# Blender 4.4.1
# www.blender.org
mtllib leg.mtl
o Big_Arm_Piece_1.002
v -0.899161 -0.438443 0.459536
v -0.901028 0.455418 0.721166
v -0.897466 -0.438075 -0.427304
v -0.898259 0.456019 -0.728258
v -0.683105 -0.437747 -0.426894
v -0.683898 0.456347 -0.727848
v -0.684800 -0.438115 0.459946
v -0.686667 0.455746 0.721575
v -0.690972 3.791005 0.303345
v -0.905333 3.790677 0.302935
v -0.689521 3.791320 -0.456326
v -0.903882 3.790992 -0.456736
v -0.899943 0.008520 0.511116
v -0.685582 0.008848 0.511526
v -0.683653 0.009267 -0.498136
v -0.898014 0.008939 -0.498546
v -0.898313 -0.438259 0.016116
v -0.898979 0.008730 0.006285
v -0.899341 0.252497 0.000924
v -0.904607 3.790835 -0.076900
v -0.690246 3.791163 -0.076491
v -0.684980 0.252825 0.001333
v -0.684618 0.009058 0.006695
v -0.683952 -0.437931 0.016526
v -0.683444 -0.437820 -0.249526
v -0.684039 0.009183 -0.296204
v -0.684452 0.456227 -0.437963
v -0.689811 3.791257 -0.304393
v -0.904172 3.790929 -0.304802
v -0.898813 0.455899 -0.438373
v -0.898400 0.008855 -0.296614
v -0.897805 -0.438148 -0.249936
v -0.898822 -0.438369 0.282169
v -0.899557 0.008604 0.309184
v -0.900475 0.455538 0.431280
v -0.905043 3.790740 0.151001
v -0.690682 3.791068 0.151411
v -0.686114 0.455866 0.431690
v -0.685196 0.008932 0.309594
v -0.684461 -0.438041 0.282579
v -0.904444 3.680997 -0.074485
v -0.904010 3.689932 -0.308847
v -0.903711 3.689997 -0.464959
v -0.689350 3.690325 -0.464549
v -0.689649 3.690260 -0.308438
v -0.690083 3.681325 -0.074075
v -0.690543 3.690066 0.159899
v -0.690841 3.690001 0.316010
v -0.905202 3.689673 0.315600
v -0.904904 3.689738 0.159489
v -0.757242 3.690156 -0.308567
v -0.752046 0.456123 -0.438092
v -0.752574 0.252722 0.001204
v -0.757677 3.681222 -0.074204
v -0.758137 3.689962 0.159770
v -0.753707 0.455763 0.431561
v -0.690342 0.361662 -0.001071
v -0.691280 0.519834 0.363378
v -0.747537 0.361574 -0.001180
v -0.748475 0.519746 0.363269
v -0.689875 0.520139 -0.372484
v -0.747070 0.520052 -0.372593
v -0.694272 3.256634 -0.262885
v -0.751466 3.256546 -0.262994
v -0.694639 3.249074 -0.064578
v -0.751834 3.248986 -0.064687
v -0.695029 3.256469 0.133400
v -0.752223 3.256382 0.133291
v -0.897483 -0.424572 -0.429455
v -0.683122 -0.424244 -0.429046
v -0.683462 -0.424318 -0.250936
v -0.683973 -0.424429 0.016229
v -0.684483 -0.424540 0.283394
v -0.684823 -0.424614 0.461504
v -0.899184 -0.424942 0.461094
v -0.898844 -0.424868 0.282985
v -0.898334 -0.424757 0.015819
v -0.897823 -0.424646 -0.251346
v -0.897487 -0.438079 -0.416435
v -0.683126 -0.437751 -0.416025
v -0.683143 -0.424249 -0.418131
v -0.683677 0.009262 -0.485762
v -0.683932 0.456340 -0.710085
v -0.689369 3.690321 -0.454983
v -0.689538 3.791316 -0.447016
v -0.903899 3.790988 -0.447426
v -0.903730 3.689993 -0.455392
v -0.898293 0.456012 -0.710494
v -0.898038 0.008934 -0.486172
v -0.897504 -0.424577 -0.418541
v -0.899151 -0.438441 0.454433
v -0.684790 -0.438113 0.454843
v -0.684813 -0.424612 0.456380
v -0.685571 0.008851 0.505716
v -0.686651 0.455749 0.713235
v -0.690833 3.690003 0.311519
v -0.690964 3.791007 0.298974
v -0.905324 3.790679 0.298564
v -0.905194 3.689675 0.311109
v -0.901012 0.455421 0.712825
v -0.899932 0.008523 0.505306
v -0.899174 -0.424940 0.455970
v -0.898275 0.465112 -0.727518
v -0.683914 0.465440 -0.727108
v -0.683948 0.465433 -0.709367
v -0.684467 0.465320 -0.437599
v -0.689887 0.527834 -0.372176
v -0.747082 0.527746 -0.372285
v -0.752061 0.465217 -0.437728
v -0.898828 0.464992 -0.438009
v -0.898309 0.465105 -0.709777
v -0.901034 0.472461 0.710708
v -0.901050 0.472458 0.719029
v -0.686689 0.472786 0.719439
v -0.686674 0.472789 0.711118
v -0.686137 0.472906 0.430258
v -0.691300 0.534253 0.362166
v -0.748495 0.534165 0.362057
v -0.753731 0.472803 0.430129
v -0.900498 0.472578 0.429849
v -0.898293 0.475847 -0.726644
v -0.683932 0.476175 -0.726234
v -0.683966 0.476167 -0.708521
v -0.684484 0.476055 -0.437169
v -0.689902 0.536917 -0.371812
v -0.747096 0.536829 -0.371921
v -0.752078 0.475951 -0.437298
v -0.898845 0.475727 -0.437579
v -0.898327 0.475839 -0.708930
v -0.900521 0.489203 0.428451
v -0.753754 0.489427 0.428732
v -0.748514 0.548232 0.360875
v -0.691319 0.548319 0.360984
v -0.686160 0.489531 0.428861
v -0.686695 0.489414 0.709053
v -0.686711 0.489411 0.717354
v -0.901072 0.489083 0.716944
v -0.901056 0.489086 0.708644
v -0.885148 0.465013 -0.437983
v -0.885134 0.455920 -0.438347
v -0.885662 0.252518 0.000950
v -0.886795 0.455559 0.431307
v -0.886818 0.472599 0.429875
v -0.886841 0.489223 0.428477
v -0.891225 3.689759 0.159515
v -0.890764 3.681018 -0.074459
v -0.890330 3.689953 -0.308821
v -0.885165 0.475748 -0.437553
v -0.772008 0.465186 -0.437766
v -0.771993 0.456093 -0.438131
v -0.772522 0.252691 0.001166
v -0.773655 0.455732 0.431523
v -0.773678 0.472772 0.430091
v -0.773701 0.489397 0.428694
v -0.778084 3.689932 0.159732
v -0.777624 3.681191 -0.074242
v -0.777190 3.690126 -0.308605
v -0.772025 0.475921 -0.437336
v -0.747685 0.520171 -0.380213
v -0.747672 0.512308 -0.380528
v -0.748147 0.348388 -0.000891
v -0.749109 0.511996 0.371541
v -0.749129 0.526732 0.370303
v -0.749149 0.541108 0.369095
v -0.752940 3.308904 0.136498
v -0.752542 3.301346 -0.065840
v -0.752166 3.309072 -0.268515
v -0.747700 0.529455 -0.379841
v -0.692974 0.527829 -0.372182
v -0.692962 0.520135 -0.372490
v -0.693429 0.361657 -0.001077
v -0.694367 0.519829 0.363372
v -0.694387 0.534248 0.362160
v -0.694406 0.548315 0.360978
v -0.698116 3.256464 0.133394
v -0.697726 3.249069 -0.064584
v -0.697358 3.256629 -0.262891
v -0.692989 0.536912 -0.371818
v -0.903880 3.779308 -0.448347
v -0.904153 3.779249 -0.305270
v -0.904588 3.778132 -0.076621
v -0.905027 3.779059 0.151983
v -0.905309 3.778998 0.300015
v -0.905318 3.778996 0.304400
v -0.690957 3.779324 0.304810
v -0.690948 3.779326 0.300424
v -0.690666 3.779387 0.152393
v -0.690227 3.778460 -0.076211
v -0.689792 3.779577 -0.304861
v -0.689519 3.779636 -0.447937
v -0.689501 3.779640 -0.457277
v -0.903862 3.779312 -0.457687
v -0.749634 3.248989 -0.064683
v -0.749267 3.256550 -0.262990
v -0.744897 0.536833 -0.371917
v -0.744882 0.527750 -0.372281
v -0.744870 0.520055 -0.372589
v -0.745337 0.361577 -0.001176
v -0.746276 0.519750 0.363273
v -0.746295 0.534168 0.362061
v -0.746315 0.548235 0.360879
v -0.750024 3.256385 0.133295
v -0.698648 3.249067 -0.064586
v -0.698281 3.256628 -0.262893
v -0.693911 0.536911 -0.371820
v -0.693896 0.527828 -0.372183
v -0.693884 0.520133 -0.372492
v -0.694351 0.361656 -0.001078
v -0.695289 0.519828 0.363370
v -0.695309 0.534246 0.362159
v -0.695328 0.548313 0.360976
v -0.699038 3.256463 0.133393
v -0.783862 3.681182 -0.074254
v -0.784322 3.689922 0.159720
v -0.779939 0.489387 0.428682
v -0.779916 0.472762 0.430079
v -0.779893 0.455722 0.431511
v -0.778760 0.252682 0.001154
v -0.778231 0.456083 -0.438142
v -0.778246 0.465177 -0.437778
v -0.778263 0.475911 -0.437348
v -0.783428 3.690116 -0.308617
v -0.770575 3.681202 -0.074229
v -0.771035 3.689942 0.159745
v -0.766652 0.489407 0.428707
v -0.766629 0.472783 0.430104
v -0.766606 0.455743 0.431536
v -0.765473 0.252702 0.001180
v -0.764944 0.456104 -0.438117
v -0.764959 0.465197 -0.437753
v -0.764976 0.475932 -0.437323
v -0.770141 3.690137 -0.308591
v -0.690709 0.512754 0.370939
v -0.690729 0.527462 0.369703
v -0.690748 0.541812 0.368497
v -0.694532 3.304463 0.136333
v -0.694135 3.296918 -0.065629
v -0.693760 3.304631 -0.267927
v -0.689302 0.530180 -0.379046
v -0.689287 0.520914 -0.379417
v -0.689274 0.513065 -0.379732
v -0.689748 0.349615 -0.000805
v -0.689460 0.522909 -0.377330
v -0.689447 0.515104 -0.377642
v -0.689920 0.353088 -0.000881
v -0.690873 0.514795 0.368759
v -0.690893 0.529420 0.367530
v -0.690913 0.543688 0.366332
v -0.694675 3.290628 0.135488
v -0.694280 3.283126 -0.065326
v -0.693907 3.290795 -0.266474
v -0.689475 0.532122 -0.376961
v -0.685581 0.469535 -0.424329
v -0.686097 0.275488 0.000833
v -0.687189 0.469186 0.417466
v -0.687212 0.485680 0.416080
v -0.687234 0.501772 0.414728
v -0.691477 3.599780 0.154381
v -0.691032 3.591320 -0.072098
v -0.690611 3.599968 -0.298952
v -0.685612 0.488728 -0.423560
v -0.685595 0.478337 -0.423976
v -0.700561 3.791303 -0.456348
v -0.700542 3.779623 -0.457299
v -0.700391 3.690308 -0.464570
v -0.694973 0.476158 -0.726255
v -0.694954 0.465423 -0.727129
v -0.694939 0.456330 -0.727870
v -0.694694 0.009250 -0.498157
v -0.694163 -0.424261 -0.429067
v -0.694146 -0.437764 -0.426915
v -0.694167 -0.437768 -0.416046
v -0.694485 -0.437837 -0.249547
v -0.694993 -0.437948 0.016505
v -0.695502 -0.438058 0.282557
v -0.695831 -0.438130 0.454822
v -0.695840 -0.438132 0.459925
v -0.695864 -0.424631 0.461483
v -0.696623 0.008831 0.511505
v -0.697708 0.455729 0.721554
v -0.697730 0.472769 0.719418
v -0.697752 0.489394 0.717332
v -0.701882 3.689984 0.315989
v -0.701998 3.779307 0.304788
v -0.702013 3.790988 0.303324
v -0.702004 3.790990 0.298952
v -0.701722 3.791051 0.151390
v -0.701287 3.791146 -0.076512
v -0.700852 3.791240 -0.304414
v -0.700579 3.791299 -0.447037
v -0.899792 3.790998 -0.456728
v -0.899772 3.779318 -0.457679
v -0.899622 3.690003 -0.464951
v -0.894203 0.475853 -0.726636
v -0.894185 0.465118 -0.727510
v -0.894170 0.456025 -0.728250
v -0.893925 0.008945 -0.498538
v -0.893393 -0.424566 -0.429448
v -0.893377 -0.438069 -0.427296
v -0.893398 -0.438073 -0.416427
v -0.893716 -0.438142 -0.249928
v -0.894224 -0.438253 0.016124
v -0.894732 -0.438363 0.282177
v -0.895061 -0.438434 0.454441
v -0.895071 -0.438437 0.459544
v -0.895095 -0.424936 0.461102
v -0.895854 0.008527 0.511124
v -0.896939 0.455424 0.721173
v -0.896961 0.472464 0.719037
v -0.896982 0.489089 0.716952
v -0.901113 3.689679 0.315608
v -0.901228 3.779002 0.304408
v -0.901243 3.790683 0.302943
v -0.901235 3.790685 0.298572
v -0.900953 3.790746 0.151009
v -0.900518 3.790841 -0.076893
v -0.900082 3.790935 -0.304795
v -0.899810 3.790994 -0.447418
v -0.899906 3.689938 -0.308839
v -0.894741 0.475733 -0.437571
v -0.894724 0.464998 -0.438001
v -0.894709 0.455905 -0.438365
v -0.895238 0.252503 0.000932
v -0.896371 0.455544 0.431288
v -0.896394 0.472584 0.429856
v -0.896417 0.489209 0.428459
v -0.900800 3.689744 0.159497
v -0.900340 3.681003 -0.074477
v 0.704041 2.228503 0.361326
v 0.704663 2.786949 -0.411456
v 0.704208 2.177503 0.314735
v 0.704830 2.735949 -0.458047
v 0.672650 2.177455 0.314675
v 0.673272 2.735901 -0.458107
v 0.672482 2.228455 0.361265
v 0.673105 2.786901 -0.411516
v 0.704001 1.673962 0.427368
v 0.704707 2.307446 -0.449253
v 0.704190 1.616110 0.374516
v 0.704896 2.249593 -0.502104
v 0.668392 1.616055 0.374448
v 0.669098 2.249538 -0.502172
v 0.668202 1.673908 0.427299
v 0.668908 2.307392 -0.449322
v 0.704798 1.138488 0.439146
v 0.705504 1.771972 -0.437475
v 0.704987 1.080635 0.386295
v 0.705693 1.714119 -0.490326
v 0.669188 1.080580 0.386226
v 0.669895 1.714064 -0.490394
v 0.668999 1.138433 0.439077
v 0.669705 1.771917 -0.437543
v 0.705716 0.521541 0.452715
v 0.706422 1.155025 -0.423906
v 0.705905 0.463688 0.399863
v 0.706611 1.097173 -0.476757
v 0.670107 0.463634 0.399795
v 0.670813 1.097118 -0.476826
v 0.669917 0.521487 0.452646
v 0.670623 1.154971 -0.423974
v -0.739045 2.226295 0.358569
v -0.738423 2.784741 -0.414214
v -0.738878 2.175295 0.311978
v -0.738255 2.733741 -0.460804
v -0.707320 2.175344 0.312038
v -0.706697 2.733789 -0.460744
v -0.707487 2.226344 0.358629
v -0.706864 2.784790 -0.414153
v -0.737560 1.671756 0.424614
v -0.736854 2.305240 -0.452007
v -0.737370 1.613904 0.371763
v -0.736664 2.247387 -0.504858
v -0.701571 1.613959 0.371831
v -0.700866 2.247442 -0.504790
v -0.701761 1.671811 0.424682
v -0.701055 2.305295 -0.451939
v -0.736763 1.136283 0.436391
v -0.736057 1.769766 -0.440230
v -0.736573 1.078429 0.383540
v -0.735867 1.711913 -0.493081
v -0.700775 1.078484 0.383609
v -0.700069 1.711968 -0.493012
v -0.700964 1.136337 0.436460
v -0.700258 1.769821 -0.440161
v -0.735845 0.519336 0.449960
v -0.735139 1.152820 -0.426661
v -0.735655 0.461483 0.397109
v -0.734950 1.094967 -0.479512
v -0.699857 0.461538 0.397177
v -0.699151 1.095022 -0.479443
v -0.700046 0.519391 0.450029
v -0.699340 1.152874 -0.426592
v 0.705809 2.526304 -0.478863
v 0.703454 3.133651 0.266902
v 0.705829 2.570135 -0.524515
v 0.703475 3.177481 0.221249
v 0.677703 2.570091 -0.524569
v 0.675348 3.177438 0.221196
v 0.677683 2.526261 -0.478917
v 0.675328 3.133608 0.266848
v 0.705988 2.059005 -0.521411
v 0.703346 2.740463 0.315355
v 0.706010 2.108184 -0.572634
v 0.703368 2.789643 0.264133
v 0.674452 2.108136 -0.572694
v 0.671810 2.789594 0.264072
v 0.674429 2.058957 -0.521471
v 0.671787 2.740415 0.315295
v 0.706209 1.481688 -0.573982
v 0.703212 2.254715 0.375222
v 0.706234 1.537475 -0.632088
v 0.703237 2.310501 0.317115
v 0.670436 1.537420 -0.632156
v 0.667439 2.310447 0.317047
v 0.670410 1.481633 -0.574050
v 0.667413 2.254660 0.375153
v 0.707005 0.946214 -0.562204
v 0.704009 1.719241 0.386999
v 0.707031 1.002001 -0.620310
v 0.704034 1.775027 0.328892
v 0.671233 1.001946 -0.620379
v 0.668236 1.774972 0.328824
v 0.671207 0.946160 -0.562273
v 0.668210 1.719186 0.386930
v 0.707923 0.329267 -0.548635
v 0.704926 1.102294 0.400569
v 0.707949 0.385054 -0.606741
v 0.704952 1.158080 0.342462
v 0.672150 0.384999 -0.606809
v 0.669154 1.158025 0.342393
v 0.672125 0.329212 -0.548703
v 0.669128 1.102239 0.400500
v -0.738512 2.524095 -0.481622
v -0.740867 3.131442 0.264143
v -0.738492 2.567925 -0.527274
v -0.740847 3.175272 0.218490
v -0.710366 2.567968 -0.527221
v -0.712720 3.175315 0.218544
v -0.710386 2.524138 -0.481568
v -0.712741 3.131485 0.264196
v -0.737098 2.056797 -0.524168
v -0.739740 2.738256 0.312598
v -0.737076 2.105976 -0.575391
v -0.739718 2.787435 0.261376
v -0.705517 2.106024 -0.575331
v -0.708159 2.787483 0.261436
v -0.705540 2.056846 -0.524108
v -0.708182 2.738304 0.312659
v -0.735352 1.479482 -0.576737
v -0.738349 2.252509 0.372467
v -0.735326 1.535269 -0.634843
v -0.738323 2.308295 0.314360
v -0.699528 1.535324 -0.634774
v -0.702524 2.308350 0.314429
v -0.699553 1.479537 -0.576668
v -0.702550 2.252564 0.372535
v -0.734555 0.944008 -0.564959
v -0.737552 1.717035 0.384244
v -0.734529 0.999795 -0.623065
v -0.737526 1.772821 0.326137
v -0.698731 0.999850 -0.622997
v -0.701728 1.772876 0.326206
v -0.698756 0.944063 -0.564891
v -0.701753 1.717090 0.384312
v -0.733637 0.327062 -0.551390
v -0.736634 1.100089 0.397813
v -0.733612 0.382849 -0.609496
v -0.736608 1.155874 0.339706
v -0.697813 0.382904 -0.609428
v -0.700810 1.155929 0.339775
v -0.697839 0.327117 -0.551322
v -0.700836 1.100143 0.397882
v 0.913170 -0.435669 0.462998
v 0.911302 0.458191 0.724628
v 0.914864 -0.435301 -0.423842
v 0.914071 0.458793 -0.724796
v 0.665839 -0.435682 -0.424317
v 0.665046 0.458412 -0.725272
v 0.664145 -0.436051 0.462522
v 0.662277 0.457810 0.724152
v 0.657973 3.793070 0.305922
v 0.906998 3.793451 0.306398
v 0.659424 3.793385 -0.453749
v 0.908449 3.793766 -0.453273
v 0.912387 0.011294 0.514578
v 0.663362 0.010913 0.514102
v 0.665291 0.011332 -0.495560
v 0.914316 0.011713 -0.495084
v 0.914017 -0.435485 0.019578
v 0.913352 0.011503 0.009747
v 0.912989 0.255271 0.004386
v 0.907724 3.793608 -0.073437
v 0.658699 3.793227 -0.073913
v 0.663964 0.254890 0.003910
v 0.664327 0.011122 0.009271
v 0.664992 -0.435867 0.019102
v 0.665500 -0.435756 -0.246950
v 0.664905 0.011248 -0.293628
v 0.664492 0.458291 -0.435387
v 0.659134 3.793321 -0.301815
v 0.908159 3.793702 -0.301339
v 0.913517 0.458672 -0.434911
v 0.913930 0.011629 -0.293152
v 0.914525 -0.435375 -0.246474
v 0.913508 -0.435596 0.285631
v 0.912773 0.011377 0.312646
v 0.911856 0.458311 0.434743
v 0.907288 3.793514 0.154464
v 0.658263 3.793133 0.153988
v 0.662831 0.457930 0.434267
v 0.663748 0.010996 0.312170
v 0.664484 -0.435977 0.285155
v 0.907887 3.683770 -0.071022
v 0.908321 3.692705 -0.305384
v 0.908619 3.692770 -0.461496
v 0.659595 3.692389 -0.461972
v 0.659296 3.692324 -0.305860
v 0.658862 3.683389 -0.071498
v 0.658402 3.692130 0.162476
v 0.658104 3.692065 0.318588
v 0.907128 3.692446 0.319063
v 0.907427 3.692511 0.162952
v 0.737821 3.692444 -0.305710
v 0.743016 0.458411 -0.435237
v 0.742488 0.255010 0.004060
v 0.737387 3.683510 -0.071348
v 0.736926 3.692250 0.162626
v 0.741355 0.458050 0.434417
v 0.669842 0.363743 0.001527
v 0.668904 0.521915 0.365976
v 0.736286 0.363845 0.001654
v 0.735348 0.522017 0.366103
v 0.670310 0.522221 -0.369886
v 0.736753 0.522323 -0.369759
v 0.665913 3.258715 -0.260286
v 0.732357 3.258817 -0.260159
v 0.665546 3.251155 -0.061979
v 0.731989 3.251257 -0.061852
v 0.665156 3.258551 0.135999
v 0.731600 3.258652 0.136126
v 0.914847 -0.421799 -0.425993
v 0.665822 -0.422180 -0.426469
v 0.665482 -0.422254 -0.248360
v 0.664972 -0.422365 0.018805
v 0.664461 -0.422476 0.285971
v 0.664121 -0.422550 0.464080
v 0.913146 -0.422168 0.464556
v 0.913486 -0.422095 0.286447
v 0.913997 -0.421984 0.019281
v 0.914507 -0.421873 -0.247884
v 0.914843 -0.435306 -0.412973
v 0.665818 -0.435687 -0.413449
v 0.665802 -0.422184 -0.415555
v 0.665268 0.011327 -0.483185
v 0.665012 0.458404 -0.707508
v 0.659576 3.692385 -0.452405
v 0.659407 3.793380 -0.444439
v 0.908431 3.793761 -0.443963
v 0.908601 3.692766 -0.451929
v 0.914037 0.458785 -0.707032
v 0.914292 0.011708 -0.482710
v 0.914826 -0.421803 -0.415079
v 0.913179 -0.435667 0.457895
v 0.664155 -0.436048 0.457419
v 0.664131 -0.422547 0.458956
v 0.663373 0.010915 0.508293
v 0.662293 0.457813 0.715811
v 0.658112 3.692067 0.314096
v 0.657981 3.793072 0.301551
v 0.907006 3.793453 0.302027
v 0.907137 3.692448 0.314572
v 0.911318 0.458194 0.716287
v 0.912398 0.011296 0.508768
v 0.913156 -0.422166 0.459432
v 0.914056 0.467886 -0.724056
v 0.665031 0.467505 -0.724532
v 0.664997 0.467497 -0.706791
v 0.664478 0.467385 -0.435022
v 0.670297 0.529915 -0.369578
v 0.736741 0.530017 -0.369451
v 0.743002 0.467505 -0.434872
v 0.913503 0.467766 -0.434546
v 0.914022 0.467878 -0.706315
v 0.911296 0.475235 0.714171
v 0.911280 0.475231 0.722491
v 0.662255 0.474850 0.722016
v 0.662271 0.474854 0.713695
v 0.662808 0.474970 0.432835
v 0.668884 0.536334 0.364764
v 0.735328 0.536436 0.364891
v 0.741332 0.475090 0.432985
v 0.911832 0.475351 0.433311
v 0.914038 0.478620 -0.723182
v 0.665013 0.478239 -0.723657
v 0.664979 0.478232 -0.705944
v 0.664460 0.478119 -0.434592
v 0.670283 0.538999 -0.369214
v 0.736726 0.539100 -0.369087
v 0.742985 0.478239 -0.434442
v 0.913485 0.478500 -0.434117
v 0.914004 0.478613 -0.705468
v 0.911810 0.491976 0.431914
v 0.741309 0.491715 0.431588
v 0.735309 0.550503 0.363709
v 0.668865 0.550401 0.363582
v 0.662785 0.491595 0.431438
v 0.662249 0.491479 0.711630
v 0.662234 0.491475 0.719930
v 0.911258 0.491856 0.720406
v 0.911274 0.491860 0.712106
v 0.897611 0.467741 -0.434577
v 0.897625 0.458648 -0.434941
v 0.897097 0.255246 0.004355
v 0.895964 0.458287 0.434712
v 0.895941 0.475327 0.433280
v 0.895918 0.491951 0.431883
v 0.891535 3.692487 0.162922
v 0.891995 3.683746 -0.071052
v 0.892430 3.692681 -0.305415
v 0.897593 0.478476 -0.434147
v 0.766175 0.467540 -0.434828
v 0.766189 0.458447 -0.435192
v 0.765661 0.255045 0.004104
v 0.764528 0.458086 0.434461
v 0.764505 0.475126 0.433029
v 0.764482 0.491750 0.431632
v 0.760099 3.692286 0.162671
v 0.760559 3.683545 -0.071303
v 0.760994 3.692480 -0.305666
v 0.766158 0.478275 -0.434398
v 0.737499 0.522444 -0.377376
v 0.737512 0.514581 -0.377691
v 0.737037 0.350661 0.001946
v 0.736075 0.514268 0.374378
v 0.736055 0.529004 0.373140
v 0.736036 0.543381 0.371932
v 0.732245 3.311177 0.139336
v 0.732643 3.303619 -0.063003
v 0.733019 3.311346 -0.265677
v 0.737484 0.531728 -0.377004
v 0.673883 0.529921 -0.369571
v 0.673896 0.522227 -0.369879
v 0.673428 0.363749 0.001534
v 0.672490 0.521921 0.365983
v 0.672470 0.536340 0.364771
v 0.672451 0.550406 0.363589
v 0.668742 3.258556 0.136006
v 0.669132 3.251161 -0.061972
v 0.669499 3.258721 -0.260279
v 0.673869 0.539004 -0.369207
v 0.908451 3.782081 -0.444884
v 0.908178 3.782022 -0.301807
v 0.907743 3.780905 -0.073158
v 0.907304 3.781833 0.155446
v 0.907021 3.781771 0.303478
v 0.907013 3.781769 0.307863
v 0.657988 3.781388 0.307387
v 0.657997 3.781391 0.303002
v 0.658279 3.781451 0.154970
v 0.658718 3.780524 -0.073634
v 0.659153 3.781641 -0.302283
v 0.659426 3.781700 -0.445360
v 0.659444 3.781704 -0.454700
v 0.908469 3.782085 -0.454224
v 0.729434 3.251253 -0.061857
v 0.729801 3.258813 -0.260164
v 0.734171 0.539096 -0.369092
v 0.734185 0.530013 -0.369455
v 0.734198 0.522319 -0.369764
v 0.733730 0.363841 0.001649
v 0.732792 0.522013 0.366098
v 0.732772 0.536432 0.364886
v 0.732753 0.550499 0.363704
v 0.729044 3.258648 0.136121
v 0.670203 3.251162 -0.061970
v 0.670570 3.258722 -0.260277
v 0.674940 0.539006 -0.369205
v 0.674954 0.529922 -0.369569
v 0.674967 0.522228 -0.369877
v 0.674500 0.363750 0.001536
v 0.673561 0.521923 0.365985
v 0.673541 0.536341 0.364773
v 0.673522 0.550408 0.363591
v 0.669813 3.258558 0.136008
v 0.767806 3.683556 -0.071289
v 0.767346 3.692297 0.162684
v 0.771729 0.491761 0.431646
v 0.771751 0.475137 0.433043
v 0.771775 0.458097 0.434475
v 0.772908 0.255056 0.004118
v 0.773436 0.458458 -0.435178
v 0.773422 0.467551 -0.434814
v 0.773404 0.478286 -0.434384
v 0.768240 3.692491 -0.305652
v 0.752371 3.683532 -0.071319
v 0.751910 3.692273 0.162655
v 0.756293 0.491738 0.431616
v 0.756316 0.475113 0.433014
v 0.756339 0.458073 0.434445
v 0.757472 0.255033 0.004089
v 0.758001 0.458434 -0.435208
v 0.757986 0.467528 -0.434844
v 0.757969 0.478262 -0.434414
v 0.752805 3.692467 -0.305682
v 0.668232 0.514833 0.373535
v 0.668212 0.529542 0.372299
v 0.668192 0.543892 0.371093
v 0.664408 3.306543 0.138930
v 0.664806 3.298998 -0.063033
v 0.665181 3.306710 -0.265331
v 0.669638 0.532260 -0.376450
v 0.669653 0.522994 -0.376821
v 0.669666 0.515145 -0.377136
v 0.669192 0.351694 0.001791
v 0.669839 0.524989 -0.374733
v 0.669851 0.517185 -0.375046
v 0.669379 0.355168 0.001715
v 0.668425 0.516875 0.371356
v 0.668405 0.531500 0.370127
v 0.668386 0.545768 0.368928
v 0.664624 3.292708 0.138085
v 0.665019 3.285206 -0.062729
v 0.665392 3.292875 -0.263877
v 0.669824 0.534203 -0.374364
v 0.665704 0.471603 -0.421748
v 0.665188 0.277556 0.003414
v 0.664095 0.471254 0.420047
v 0.664073 0.487748 0.418661
v 0.664051 0.503840 0.417309
v 0.659808 3.601848 0.156963
v 0.660254 3.593387 -0.069516
v 0.660674 3.602036 -0.296371
v 0.665673 0.490796 -0.420979
v 0.665689 0.480405 -0.421395
v 0.910588 0.478615 -0.723188
v 0.910606 0.467880 -0.724062
v 0.910621 0.458787 -0.724802
v 0.910867 0.011707 -0.495090
v 0.911398 -0.421804 -0.426000
v 0.911414 -0.435306 -0.423848
v 0.911393 -0.435311 -0.412979
v 0.911076 -0.435380 -0.246481
v 0.910567 -0.435491 0.019572
v 0.910059 -0.435601 0.285624
v 0.909730 -0.435673 0.457888
v 0.909720 -0.435675 0.462992
v 0.909697 -0.422174 0.464550
v 0.908938 0.011288 0.514572
v 0.907853 0.458186 0.724621
v 0.907831 0.475226 0.722485
v 0.907809 0.491851 0.720400
v 0.903679 3.692441 0.319057
v 0.903564 3.781764 0.307856
v 0.903549 3.793446 0.306392
v 0.903557 3.793447 0.302020
v 0.903839 3.793509 0.154458
v 0.904274 3.793603 -0.073444
v 0.904710 3.793697 -0.301346
v 0.904982 3.793756 -0.443969
v 0.905000 3.793761 -0.453280
v 0.905020 3.782080 -0.454231
v 0.905170 3.692765 -0.461502
v 0.669175 0.478246 -0.723650
v 0.669193 0.467511 -0.724524
v 0.669208 0.458418 -0.725264
v 0.669453 0.011338 -0.495552
v 0.669984 -0.422173 -0.426461
v 0.670001 -0.435676 -0.424309
v 0.669980 -0.435680 -0.413441
v 0.669662 -0.435750 -0.246942
v 0.669154 -0.435860 0.019110
v 0.668646 -0.435970 0.285163
v 0.668316 -0.436042 0.457427
v 0.668307 -0.436044 0.462530
v 0.668283 -0.422543 0.464088
v 0.667524 0.010919 0.514110
v 0.666439 0.457816 0.724160
v 0.666417 0.474856 0.722023
v 0.666396 0.491481 0.719938
v 0.662265 3.692072 0.318595
v 0.662150 3.781394 0.307395
v 0.662135 3.793076 0.305930
v 0.662143 3.793078 0.301559
v 0.662425 3.793139 0.153996
v 0.662861 3.793233 -0.073905
v 0.663296 3.793328 -0.301807
v 0.663568 3.793387 -0.444431
v 0.663586 3.793391 -0.453741
v 0.663606 3.781711 -0.454692
v 0.663757 3.692395 -0.461964
v 0.908305 3.692705 -0.305384
v 0.913469 0.478500 -0.434117
v 0.913487 0.467766 -0.434547
v 0.913501 0.458672 -0.434911
v 0.912973 0.255271 0.004386
v 0.911840 0.458311 0.434743
v 0.911816 0.475351 0.433311
v 0.911794 0.491976 0.431913
v 0.907411 3.692512 0.162952
v 0.907871 3.683770 -0.071022
vn -1.0000 -0.0015 -0.0019
vn 0.0023 -0.3213 -0.9470
vn 0.0024 -0.4570 -0.8895
vn 1.0000 0.0015 0.0019
vn -0.0014 -0.2833 0.9590
vn -0.0011 -0.4254 0.9050
vn -0.0015 1.0000 0.0004
vn 0.0015 -1.0000 -0.0004
vn -0.0021 0.1244 0.9922
vn 0.0018 0.0811 -0.9967
vn -0.0017 -0.1146 0.9934
vn 0.0021 -0.1574 -0.9875
vn 0.0018 0.0812 -0.9967
vn -0.0018 -0.0400 0.9992
vn -0.0022 0.9074 0.4202
vn 0.0016 -0.9993 -0.0381
vn 0.0015 -0.9993 0.0373
vn -0.0006 0.9044 -0.4267
vn 0.0020 -0.0837 -0.9965
vn -0.0006 0.9173 -0.3981
vn -0.0022 0.9198 0.3925
vn -0.0019 -0.0400 0.9992
vn 0.9984 0.0519 -0.0217
vn 0.9984 0.0522 -0.0212
vn 0.9984 0.0520 -0.0215
vn -0.9985 0.0492 -0.0247
vn -0.9985 0.0494 -0.0242
vn 0.9983 0.0530 0.0256
vn 0.9983 0.0531 0.0253
vn -0.9985 0.0502 0.0209
vn -0.9985 0.0501 0.0213
vn -0.9985 0.0504 0.0204
vn 0.9964 -0.0018 0.0842
vn -0.9967 -0.0048 0.0804
vn 1.0000 -0.0065 0.0016
vn 1.0000 0.0014 0.0020
vn 0.9999 -0.0105 0.0019
vn 0.9999 -0.0105 0.0015
vn -0.9999 -0.0136 -0.0019
vn -0.9999 -0.0136 -0.0024
vn 1.0000 -0.0065 0.0022
vn 0.9999 -0.0105 0.0024
vn -0.9999 -0.0135 -0.0015
vn 0.9967 -0.0054 -0.0804
vn -0.9964 -0.0084 -0.0842
vn -0.9964 -0.0084 -0.0843
vn -0.9985 0.0491 -0.0250
vn 0.0014 -0.9993 0.0373
vn 0.9983 0.0533 0.0247
vn 0.9983 0.0535 0.0242
vn 0.9984 0.0522 -0.0211
vn 0.9984 0.0523 -0.0208
vn 0.9984 0.0525 -0.0204
vn 0.9984 0.0525 -0.0203
vn -0.0015 1.0000 0.0005
vn -0.0024 0.8105 0.5857
vn 0.0024 -0.8105 -0.5857
vn -0.0004 -0.6745 0.7383
vn 0.0004 0.6745 -0.7383
vn -0.0000 -0.7754 0.6315
vn -0.0000 0.7754 -0.6315
vn 0.0024 -0.7214 -0.6926
vn -0.0024 0.7214 0.6926
vn 0.0024 -0.7213 -0.6926
vn 0.0024 -0.7214 -0.6925
vn -0.0024 0.7213 0.6926
vn -0.0024 0.7214 0.6925
vn -0.0023 0.2997 0.9540
vn -0.0023 0.2994 0.9541
vn -0.0024 0.4570 0.8894
vn -0.0024 0.4570 0.8895
vn 0.0015 0.2624 -0.9649
vn 0.0014 0.2628 -0.9648
vn 0.0011 0.4254 -0.9050
vn 0.0021 -0.1244 -0.9922
vn -0.0018 -0.0811 0.9967
vn 0.0017 0.1146 -0.9934
vn -0.0021 0.1574 0.9875
vn 0.0015 -1.0000 -0.0005
vn 0.0018 0.0400 -0.9992
vn 0.0022 -0.9074 -0.4202
vn -0.0016 0.9993 0.0381
vn -0.0015 0.9993 -0.0373
vn 0.0006 -0.9044 0.4267
vn -0.0020 0.0837 0.9965
vn 0.0006 -0.9173 0.3981
vn 0.0022 -0.9198 -0.3925
vn 0.0019 0.0400 -0.9992
vn 0.9979 -0.0570 0.0293
vn 0.9979 -0.0571 0.0290
vn -0.9979 -0.0606 0.0241
vn -0.9979 -0.0605 0.0246
vn -0.9979 -0.0607 0.0239
vn 0.9980 -0.0582 -0.0256
vn 0.9980 -0.0582 -0.0257
vn 0.9980 -0.0583 -0.0253
vn -0.9977 -0.0616 -0.0284
vn -0.9977 -0.0618 -0.0279
vn -0.9977 -0.0618 -0.0278
vn 0.9956 0.0053 -0.0936
vn -0.9952 0.0023 -0.0974
vn 1.0000 -0.0012 0.0018
vn 0.9999 0.0156 0.0021
vn 0.9999 0.0155 0.0019
vn 0.9999 0.0155 0.0024
vn -0.9999 0.0124 -0.0019
vn -0.9999 0.0125 -0.0014
vn 1.0000 -0.0011 0.0020
vn 0.9999 0.0155 0.0014
vn -0.9999 0.0124 -0.0024
vn 0.9952 0.0096 0.0975
vn 0.9952 0.0095 0.0975
vn -0.9956 0.0065 0.0936
vn -0.0018 -0.0812 0.9967
vn 0.0022 -0.9069 -0.4214
vn 0.0013 -0.9047 0.4260
vn -0.0008 0.0839 0.9965
vn -0.0014 0.0838 0.9965
vn -0.0020 0.0840 0.9965
vn -0.0020 0.0844 0.9964
vn 0.0177 0.9991 -0.0374
vn 0.0176 0.9991 -0.0373
vn -0.0016 0.9993 0.0383
vn 0.0018 0.0403 -0.9992
vn 0.0018 0.0402 -0.9992
vn -0.9977 -0.0615 -0.0288
vn -0.9979 -0.0603 0.0249
vn 0.9952 0.0095 0.0974
vn 0.9952 0.0096 0.0974
vn 0.9956 0.0054 -0.0936
vn 0.9956 0.0054 -0.0937
vn 0.9956 0.0053 -0.0937
vn 0.9980 -0.0586 -0.0245
vn 0.9980 -0.0587 -0.0242
vn 0.9980 -0.0588 -0.0240
vn 0.9979 -0.0575 0.0283
vn 0.9979 -0.0577 0.0278
vn 0.9980 -0.0588 -0.0239
vn 0.9980 -0.0577 0.0277
vn 0.0014 0.2628 -0.9649
vn -0.0023 0.2993 0.9541
vn 0.0014 0.2625 -0.9649
vn 0.0018 0.0406 -0.9992
vn 0.0018 0.0399 -0.9992
vn 0.0022 -0.9063 -0.4227
vn 0.0020 -0.9050 0.4254
vn 0.0004 0.0841 0.9965
vn -0.0008 0.0838 0.9965
vn -0.0020 0.0843 0.9964
vn -0.0020 0.0852 0.9964
vn 0.0239 0.9990 -0.0374
vn -0.0016 0.9993 0.0386
vt 0.625000 0.200000
vt 0.500000 0.200000
vt 0.500000 0.125000
vt 0.625000 0.125000
vt 0.500000 0.254769
vt 0.500000 0.250000
vt 0.625000 0.250000
vt 0.625000 0.254769
vt 0.625000 0.625000
vt 0.500000 0.625000
vt 0.500000 0.550000
vt 0.625000 0.550000
vt 0.500000 1.000000
vt 0.500000 0.995231
vt 0.625000 0.995231
vt 0.625000 1.000000
vt 0.629769 0.125000
vt 0.629769 0.200000
vt 0.370231 0.125000
vt 0.375000 0.125000
vt 0.375000 0.200000
vt 0.370231 0.200000
vt 0.625000 0.000000
vt 0.629769 0.000000
vt 0.629769 0.000000
vt 0.629769 0.250000
vt 0.375000 0.995231
vt 0.378776 0.995231
vt 0.378776 1.000000
vt 0.375000 1.000000
vt 0.375000 0.550000
vt 0.378776 0.550000
vt 0.378776 0.625000
vt 0.375000 0.625000
vt 0.375000 0.250000
vt 0.378776 0.250000
vt 0.378776 0.254769
vt 0.375000 0.254769
vt 0.378776 0.125000
vt 0.378776 0.200000
vt 0.375000 0.050000
vt 0.378776 0.050000
vt 0.500000 0.050000
vt 0.625000 0.050000
vt 0.629769 0.050000
vt 0.625000 0.700000
vt 0.500000 0.700000
vt 0.378776 0.700000
vt 0.375000 0.700000
vt 0.370231 0.050000
vt 0.375000 0.503064
vt 0.378776 0.503064
vt 0.500000 0.503064
vt 0.625000 0.503064
vt 0.875000 0.200000
vt 0.875000 0.200000
vt 0.875000 0.246936
vt 0.875000 0.246936
vt 0.629769 0.246936
vt 0.625000 0.246936
vt 0.500000 0.246936
vt 0.378776 0.246936
vt 0.375000 0.246936
vt 0.370231 0.246936
vt 0.375000 0.000000
vt 0.378776 0.000000
vt 0.378776 0.001439
vt 0.375000 0.001439
vt 0.625000 0.001439
vt 0.500000 0.001439
vt 0.500000 0.000000
vt 0.629769 0.001439
vt 0.875000 0.000000
vt 0.875000 0.001439
vt 0.500000 0.750000
vt 0.500000 0.748562
vt 0.625000 0.748561
vt 0.625000 0.750000
vt 0.375000 0.748561
vt 0.378776 0.748561
vt 0.378776 0.750000
vt 0.375000 0.750000
vt 0.370231 0.000000
vt 0.370231 0.001439
vt 0.625000 0.246936
vt 0.629769 0.250000
vt 0.875000 0.125000
vt 0.875000 0.125000
vt 0.875000 0.050000
vt 0.875000 0.050000
vt 0.625000 0.200000
vt 0.625000 0.050000
vt 0.625000 0.598014
vt 0.625000 0.664919
vt 0.625000 0.531110
vt 0.861507 0.200000
vt 0.861507 0.200000
vt 0.861507 0.125000
vt 0.861507 0.050000
vt 0.875000 0.200000
vt 0.370231 0.250000
vt 0.375000 0.500000
vt 0.378776 0.500000
vt 0.500000 0.500000
vt 0.625000 0.500000
vt 0.875000 0.250000
vt 0.875000 0.250000
vt 0.875000 0.246936
vt 0.857477 0.200000
vt 0.857477 0.200000
vt 0.625000 0.525467
vt 0.625000 0.589953
vt 0.625000 0.654439
vt 0.857477 0.050000
vt 0.857477 0.125000
vt 0.634615 0.200000
vt 0.634615 0.125000
vt 0.625000 0.144231
vt 0.625000 0.213462
vt 0.625000 0.075000
vt 0.634615 0.050000
vt 0.875000 0.200000
vt 0.862124 0.250000
vt 0.862124 0.250000
vt 0.500000 0.487124
vt 0.625000 0.487124
vt 0.378776 0.487124
vt 0.375000 0.487124
vt 0.125000 0.246936
vt 0.137876 0.246936
vt 0.137876 0.250000
vt 0.125000 0.250000
vt 0.125000 0.200000
vt 0.137876 0.200000
vt 0.125000 0.125000
vt 0.137876 0.125000
vt 0.125000 0.050000
vt 0.137876 0.050000
vt 0.125000 0.001439
vt 0.137876 0.001439
vt 0.125000 0.000000
vt 0.137876 0.000000
vt 0.378776 0.762876
vt 0.375000 0.762876
vt 0.500000 0.762876
vt 0.625000 0.762876
vt 0.862124 0.000000
vt 0.862124 0.001439
vt 0.862124 0.050000
vt 0.862124 0.125000
vt 0.862124 0.200000
vt 0.862124 0.246936
vt 0.500000 0.253463
vt 0.625000 0.253463
vt 0.500000 0.996537
vt 0.625000 0.996537
vt 0.628463 0.125000
vt 0.628463 0.200000
vt 0.371537 0.125000
vt 0.371537 0.200000
vt 0.628463 0.000000
vt 0.628463 0.250000
vt 0.375000 0.996537
vt 0.378776 0.996537
vt 0.378776 0.253463
vt 0.375000 0.253463
vt 0.628463 0.050000
vt 0.371537 0.050000
vt 0.628463 0.246936
vt 0.371537 0.246936
vt 0.628463 0.001439
vt 0.371537 0.000000
vt 0.371537 0.001439
vt 0.371537 0.250000
vt 0.870822 0.250000
vt 0.870822 0.250000
vt 0.500000 0.495822
vt 0.625000 0.495822
vt 0.378776 0.495822
vt 0.375000 0.495822
vt 0.129178 0.246936
vt 0.129178 0.250000
vt 0.129178 0.200000
vt 0.129178 0.125000
vt 0.129178 0.050000
vt 0.129178 0.001439
vt 0.129178 0.000000
vt 0.375000 0.754178
vt 0.378776 0.754178
vt 0.500000 0.754178
vt 0.625000 0.754178
vt 0.870822 0.000000
vt 0.870822 0.001439
vt 0.870822 0.050000
vt 0.870822 0.125000
vt 0.870822 0.200000
vt 0.870822 0.246936
s 1
usemtl aiWireframe1.032
f 30/1/1 31/2/1 18/3/1 19/4/1
f 297/5/2 16/6/2 4/7/3 296/8/3
f 22/9/4 23/10/4 26/11/4 27/12/4
f 13/13/5 307/14/5 308/15/6 2/16/6
f 20/4/7 316/17/7 317/18/7 29/1/7
f 302/19/8 17/20/8 32/21/8 301/22/8
f 113/23/9 309/24/9 310/25/9 137/23/9
f 296/26/10 4/7/10 103/7/10 295/26/10
f 305/27/11 306/28/11 75/29/11 1/30/11
f 25/31/4 71/32/4 72/33/4 24/34/4
f 3/35/12 69/36/12 298/37/12 299/38/12
f 17/20/1 77/39/1 78/40/1 32/21/1
f 33/41/1 76/42/1 77/39/1 17/20/1
f 19/4/1 18/3/1 34/43/1 35/44/1
f 36/44/7 315/45/7 316/17/7 20/4/7
f 38/46/4 39/47/4 23/10/4 22/9/4
f 24/34/4 72/33/4 73/48/4 40/49/4
f 303/50/8 33/41/8 17/20/8 302/19/8
f 80/51/4 81/52/4 71/32/4 25/31/4
f 27/12/4 26/11/4 82/53/4 83/54/4
f 106/55/4 27/56/4 83/57/4 105/58/4
f 29/1/7 317/18/7 318/59/7 86/60/7
f 88/60/1 30/1/1 110/1/1 111/60/1
f 89/61/1 31/2/1 30/1/1 88/60/1
f 32/21/1 78/40/1 90/62/1 79/63/1
f 301/22/8 32/21/8 79/63/8 300/64/8
f 1/65/1 75/66/1 102/67/1 91/68/1
f 100/69/1 101/70/1 13/71/1 2/23/1
f 138/69/1 112/69/1 113/23/1 137/23/1
f 10/23/7 313/25/7 314/72/7 98/69/7
f 114/73/4 115/74/4 135/74/4 136/73/4
f 14/75/4 94/76/4 95/77/4 8/78/4
f 92/79/4 93/80/4 74/81/4 7/82/4
f 305/83/8 1/65/8 91/68/8 304/84/8
f 29/1/1 180/1/1 181/4/1 20/4/1
f 179/85/1 180/1/1 29/1/1 86/60/1
f 292/86/10 192/7/10 12/7/13 291/26/13
f 28/56/4 189/56/4 190/57/4 85/57/4
f 21/87/4 188/88/4 189/56/4 28/56/4
f 37/89/4 187/90/4 188/88/4 21/87/4
f 185/73/4 186/74/4 97/74/4 9/73/4
f 184/23/9 312/24/9 313/25/9 10/23/9
f 98/69/1 183/69/1 184/23/1 10/23/1
f 20/4/1 181/4/1 182/44/1 36/44/1
f 149/1/14 150/1/14 229/91/14 230/91/14
f 150/1/15 151/4/15 228/4/15 229/91/15
f 156/4/16 157/1/16 232/91/16 223/4/16
f 155/44/17 156/4/17 223/4/17 224/92/17
f 151/4/18 152/44/18 227/92/18 228/4/18
f 153/44/19 154/44/19 225/92/19 226/92/19
f 58/46/20 57/9/20 171/93/20 172/94/20
f 57/9/21 61/12/21 170/95/21 171/93/21
f 61/56/14 107/55/14 169/96/22 170/97/22
f 63/56/16 65/87/16 176/98/16 177/97/16
f 65/87/17 67/89/17 175/99/17 176/98/17
f 133/89/19 117/89/19 173/99/19 174/99/19
f 38/46/23 22/9/23 254/9/24 255/46/25
f 161/4/26 162/44/26 60/44/27 59/4/27
f 22/9/28 27/12/28 253/12/29 254/9/29
f 160/1/30 161/4/31 59/4/32 62/1/32
f 27/56/33 106/55/33 262/100/33 253/56/33
f 159/91/34 160/1/34 62/1/34 108/1/34
f 45/56/35 46/87/36 259/87/37 260/56/38
f 166/4/39 167/1/40 64/1/40 66/4/39
f 46/87/36 47/89/41 258/89/42 259/87/37
f 165/44/43 166/4/39 66/4/39 68/44/43
f 134/89/44 116/89/44 256/89/44 257/89/44
f 163/92/45 164/44/46 132/44/46 118/44/46
f 69/36/12 16/6/2 297/5/2 298/37/12
f 71/32/4 81/52/4 82/53/4 26/11/4
f 72/33/4 71/32/4 26/11/4 23/10/4
f 73/48/4 72/33/4 23/10/4 39/47/4
f 74/81/4 93/80/4 94/76/4 14/75/4
f 75/29/11 306/28/11 307/14/5 13/13/5
f 102/67/1 75/66/1 13/71/1 101/70/1
f 77/39/1 76/42/1 34/43/1 18/3/1
f 78/40/1 77/39/1 18/3/1 31/2/1
f 90/62/1 78/40/1 31/2/1 89/61/1
f 300/64/8 79/63/8 3/35/8 299/101/8
f 5/102/4 70/103/4 81/52/4 80/51/4
f 82/53/4 81/52/4 70/103/4 15/104/4
f 83/54/4 82/53/4 15/104/4 6/105/4
f 105/58/4 83/57/4 6/106/4 104/107/4
f 85/57/4 190/57/4 191/106/4 11/106/4
f 86/60/7 318/59/7 291/26/7 12/7/7
f 192/7/1 179/85/1 86/60/1 12/7/1
f 4/7/1 88/60/1 111/60/1 103/7/1
f 16/6/1 89/61/1 88/60/1 4/7/1
f 69/36/1 90/62/1 89/61/1 16/6/1
f 79/63/1 90/62/1 69/36/1 3/35/1
f 304/84/8 91/68/8 33/41/8 303/50/8
f 40/49/4 73/48/4 93/80/4 92/79/4
f 94/76/4 93/80/4 73/48/4 39/47/4
f 95/77/4 94/76/4 39/47/4 38/46/4
f 135/74/4 115/74/4 116/89/4 134/89/4
f 97/74/4 186/74/4 187/90/4 37/89/4
f 98/69/7 314/72/7 315/45/7 36/44/7
f 36/44/1 182/44/1 183/69/1 98/69/1
f 138/69/1 130/44/1 120/44/1 112/69/1
f 35/44/1 34/43/1 101/70/1 100/69/1
f 76/42/1 102/67/1 101/70/1 34/43/1
f 91/68/1 102/67/1 76/42/1 33/41/1
f 295/26/10 103/7/10 121/7/13 294/26/13
f 123/108/4 105/58/4 104/107/4 122/107/4
f 124/55/4 106/55/4 105/58/4 123/108/4
f 262/100/33 106/55/33 124/55/33 261/100/33
f 178/96/14 169/96/22 107/55/14 125/55/14
f 168/91/34 159/91/34 108/1/34 126/1/34
f 158/1/14 149/1/14 230/91/14 231/91/14
f 111/60/1 110/1/1 128/1/1 129/60/1
f 103/7/1 111/60/1 129/60/1 121/7/1
f 112/69/1 100/69/1 2/23/1 113/23/1
f 2/23/9 308/25/9 309/24/9 113/23/9
f 8/73/4 95/74/4 115/74/4 114/73/4
f 116/89/4 115/74/4 95/74/4 38/89/4
f 256/89/44 116/89/44 38/89/44 255/89/44
f 173/99/19 117/89/19 58/89/19 172/99/19
f 162/44/45 163/92/45 118/44/46 60/44/45
f 152/44/19 153/44/19 226/92/19 227/92/19
f 112/69/1 120/44/1 35/44/1 100/69/1
f 294/26/13 121/7/13 43/7/10 293/26/10
f 84/57/4 123/108/4 122/107/4 44/106/4
f 45/56/35 124/55/4 123/108/4 84/57/4
f 261/100/33 124/55/33 45/56/33 260/56/33
f 178/96/14 125/55/14 63/56/14 177/97/22
f 167/1/34 168/91/34 126/1/34 64/1/34
f 157/1/14 158/1/14 231/91/14 232/91/14
f 129/60/1 128/1/1 42/1/1 87/60/1
f 121/7/1 129/60/1 87/60/1 43/7/1
f 154/44/19 155/44/19 224/92/19 225/92/19
f 132/44/46 164/44/46 165/44/46 68/44/46
f 67/89/19 133/89/19 174/99/19 175/99/19
f 47/89/44 134/89/44 257/89/44 258/89/44
f 96/74/4 135/74/4 134/89/4 47/89/41
f 136/73/4 135/74/4 96/74/4 48/73/4
f 137/23/9 310/25/9 311/25/9 49/23/9
f 99/69/1 138/69/1 137/23/1 49/23/1
f 50/44/1 130/44/1 138/69/1 99/69/1
f 321/1/14 322/1/14 140/1/14 139/1/14
f 322/1/15 323/4/15 141/4/15 140/1/15
f 323/4/18 324/44/18 142/44/18 141/4/18
f 324/44/19 325/44/19 143/44/19 142/44/19
f 325/44/19 326/44/19 144/44/19 143/44/19
f 326/44/19 327/44/19 145/44/19 144/44/19
f 327/44/17 328/4/17 146/4/17 145/44/17
f 328/4/16 319/1/16 147/1/16 146/4/16
f 319/1/14 320/1/14 148/1/14 147/1/14
f 320/1/14 321/1/14 139/1/14 148/1/14
f 139/1/14 140/1/14 219/1/14 220/1/14
f 140/1/15 141/4/15 218/4/15 219/1/15
f 141/4/18 142/44/18 217/44/18 218/4/18
f 142/44/19 143/44/19 216/44/19 217/44/19
f 143/44/19 144/44/19 215/44/19 216/44/19
f 144/44/19 145/44/19 214/44/19 215/44/19
f 145/44/17 146/4/17 213/4/17 214/44/17
f 146/4/16 147/1/16 222/1/16 213/4/16
f 147/1/14 148/1/14 221/1/14 222/1/14
f 148/1/14 139/1/14 220/1/14 221/1/14
f 109/1/34 52/1/34 160/1/34 159/91/34
f 52/1/31 53/4/31 161/4/31 160/1/30
f 53/4/47 56/44/47 162/44/26 161/4/26
f 56/44/45 119/44/46 163/92/45 162/44/45
f 119/44/46 131/44/46 164/44/46 163/92/45
f 165/44/46 164/44/46 131/44/46 55/44/46
f 55/44/43 54/4/39 166/4/39 165/44/43
f 54/4/39 51/1/40 167/1/40 166/4/39
f 51/1/34 127/1/34 168/91/34 167/1/34
f 127/1/34 109/1/34 159/91/34 168/91/34
f 170/97/22 169/96/22 206/109/22 207/110/22
f 171/93/21 170/95/21 207/111/21 208/112/21
f 172/94/20 171/93/20 208/112/20 209/113/20
f 210/114/19 173/99/19 172/99/19 209/114/19
f 174/99/19 173/99/19 210/114/19 211/114/19
f 175/99/19 174/99/19 211/114/19 212/114/19
f 176/98/17 175/99/17 212/114/17 203/115/17
f 177/97/16 176/98/16 203/115/16 204/110/16
f 205/109/22 178/96/14 177/97/22 204/110/22
f 206/109/22 169/96/22 178/96/14 205/109/22
f 87/60/1 42/1/1 180/1/1 179/85/1
f 181/4/1 180/1/1 42/1/1 41/4/1
f 182/44/1 181/4/1 41/4/1 50/44/1
f 183/69/1 182/44/1 50/44/1 99/69/1
f 184/23/1 183/69/1 99/69/1 49/23/1
f 49/23/9 311/25/9 312/24/9 184/23/9
f 48/73/4 96/74/4 186/74/4 185/73/4
f 187/90/4 186/74/4 96/74/4 47/89/41
f 188/88/4 187/90/4 47/89/41 46/87/36
f 189/56/4 188/88/4 46/87/36 45/56/35
f 190/57/4 189/56/4 45/56/35 84/57/4
f 191/106/4 190/57/4 84/57/4 44/106/4
f 293/26/10 43/7/10 192/7/10 292/86/10
f 43/7/1 87/60/1 179/85/1 192/7/1
f 194/116/16 193/117/16 66/4/16 64/1/16
f 126/1/14 195/116/14 194/116/14 64/1/14
f 108/1/14 196/116/14 195/116/14 126/1/14
f 197/116/14 196/116/14 108/1/14 62/1/14
f 198/118/21 197/119/21 62/1/21 59/4/21
f 199/120/20 198/118/20 59/4/20 60/44/20
f 118/44/19 200/121/19 199/121/19 60/44/19
f 201/121/19 200/121/19 118/44/19 132/44/19
f 202/121/19 201/121/19 132/44/19 68/44/19
f 193/117/17 202/121/17 68/44/17 66/4/17
f 204/110/16 203/115/16 193/117/16 194/116/16
f 195/116/14 205/109/22 204/110/22 194/116/14
f 196/116/14 206/109/22 205/109/22 195/116/14
f 207/110/22 206/109/22 196/116/14 197/116/14
f 208/112/21 207/111/21 197/119/21 198/118/21
f 209/113/20 208/112/20 198/118/20 199/120/20
f 200/121/19 210/114/19 209/114/19 199/121/19
f 211/114/19 210/114/19 200/121/19 201/121/19
f 212/114/19 211/114/19 201/121/19 202/121/19
f 203/115/17 212/114/17 202/121/17 193/117/17
f 214/44/17 213/4/17 156/4/17 155/44/17
f 215/44/19 214/44/19 155/44/19 154/44/19
f 216/44/19 215/44/19 154/44/19 153/44/19
f 217/44/19 216/44/19 153/44/19 152/44/19
f 218/4/18 217/44/18 152/44/18 151/4/18
f 219/1/15 218/4/15 151/4/15 150/1/15
f 220/1/14 219/1/14 150/1/14 149/1/14
f 221/1/14 220/1/14 149/1/14 158/1/14
f 222/1/14 221/1/14 158/1/14 157/1/14
f 213/4/16 222/1/16 157/1/16 156/4/16
f 224/92/17 223/4/17 54/4/48 55/44/48
f 225/92/19 224/92/19 55/44/19 131/44/19
f 226/92/19 225/92/19 131/44/19 119/44/19
f 227/92/19 226/92/19 119/44/19 56/44/19
f 228/4/18 227/92/18 56/44/18 53/4/18
f 229/91/15 228/4/15 53/4/15 52/1/15
f 230/91/14 229/91/14 52/1/14 109/1/14
f 231/91/14 230/91/14 109/1/14 127/1/14
f 232/91/14 231/91/14 127/1/14 51/1/14
f 223/4/16 232/91/16 51/1/16 54/4/16
f 247/89/44 234/89/44 233/89/44 246/89/44
f 235/89/44 234/89/44 247/89/44 248/89/44
f 236/89/44 235/89/44 248/89/44 249/89/44
f 237/87/37 236/89/42 249/89/42 250/87/37
f 238/56/38 237/87/37 250/87/37 251/122/38
f 252/55/33 239/55/33 238/56/33 251/122/33
f 252/55/33 243/55/33 240/55/33 239/55/33
f 241/56/33 240/55/33 243/55/33 244/122/33
f 242/9/49 241/12/49 244/12/50 245/9/50
f 233/46/51 242/9/52 245/9/53 246/46/53
f 244/122/33 243/55/33 107/55/33 61/56/33
f 245/9/50 244/12/50 61/12/50 57/9/50
f 246/46/53 245/9/53 57/9/54 58/46/54
f 117/89/44 247/89/44 246/89/44 58/89/44
f 248/89/44 247/89/44 117/89/44 133/89/44
f 249/89/44 248/89/44 133/89/44 67/89/44
f 250/87/37 249/89/42 67/89/42 65/87/37
f 251/122/38 250/87/37 65/87/37 63/56/38
f 125/55/33 252/55/33 251/122/33 63/56/33
f 107/55/33 243/55/33 252/55/33 125/55/33
f 254/9/29 253/12/29 241/12/49 242/9/49
f 255/46/25 254/9/24 242/9/52 233/46/51
f 234/89/44 256/89/44 255/89/44 233/89/44
f 257/89/44 256/89/44 234/89/44 235/89/44
f 258/89/44 257/89/44 235/89/44 236/89/44
f 259/87/37 258/89/42 236/89/42 237/87/37
f 260/56/38 259/87/37 237/87/37 238/56/38
f 239/55/33 261/100/33 260/56/33 238/56/33
f 240/55/33 262/100/33 261/100/33 239/55/33
f 253/56/33 262/100/33 240/55/33 241/56/33
f 191/106/13 264/123/13 263/123/13 11/106/13
f 44/106/10 265/123/10 264/123/13 191/106/13
f 122/107/13 266/124/13 265/123/10 44/106/10
f 104/107/10 267/124/10 266/124/13 122/107/13
f 6/106/10 268/123/10 267/124/10 104/107/10
f 15/104/2 269/125/2 268/126/3 6/105/3
f 270/127/12 269/125/2 15/104/2 70/103/12
f 271/128/12 270/127/12 70/103/12 5/102/12
f 80/129/8 272/130/8 271/131/8 5/132/8
f 25/133/8 273/134/8 272/130/8 80/129/8
f 24/135/8 274/136/8 273/134/8 25/133/8
f 40/137/8 275/138/8 274/136/8 24/135/8
f 92/139/8 276/140/8 275/138/8 40/137/8
f 7/141/8 277/142/8 276/140/8 92/139/8
f 7/82/11 74/81/11 278/143/11 277/144/11
f 279/145/5 278/143/11 74/81/11 14/75/5
f 280/146/6 279/145/5 14/75/5 8/78/6
f 281/147/9 280/147/9 8/73/9 114/73/9
f 282/147/9 281/147/9 114/73/9 136/73/9
f 283/147/9 282/147/9 136/73/9 48/73/9
f 284/147/9 283/147/9 48/73/9 185/73/9
f 285/147/9 284/147/9 185/73/9 9/73/9
f 286/148/7 285/147/7 9/73/55 97/74/7
f 287/149/7 286/148/7 97/74/7 37/89/7
f 288/150/7 287/149/7 37/89/7 21/87/7
f 289/151/7 288/150/7 21/87/7 28/56/7
f 290/152/7 289/151/7 28/56/7 85/57/7
f 263/123/7 290/152/7 85/57/7 11/106/7
f 264/123/13 292/86/10 291/26/13 263/123/13
f 265/123/10 293/26/10 292/86/10 264/123/13
f 266/124/13 294/26/13 293/26/10 265/123/10
f 267/124/10 295/26/10 294/26/13 266/124/13
f 268/123/10 296/26/10 295/26/10 267/124/10
f 269/125/2 297/5/2 296/8/3 268/126/3
f 298/37/12 297/5/2 269/125/2 270/127/12
f 299/38/12 298/37/12 270/127/12 271/128/12
f 272/130/8 300/64/8 299/101/8 271/131/8
f 273/134/8 301/22/8 300/64/8 272/130/8
f 274/136/8 302/19/8 301/22/8 273/134/8
f 275/138/8 303/50/8 302/19/8 274/136/8
f 276/140/8 304/84/8 303/50/8 275/138/8
f 277/142/8 305/83/8 304/84/8 276/140/8
f 277/144/11 278/143/11 306/28/11 305/27/11
f 307/14/5 306/28/11 278/143/11 279/145/5
f 308/15/6 307/14/5 279/145/5 280/146/6
f 309/24/9 308/25/9 280/147/9 281/147/9
f 310/25/9 309/24/9 281/147/9 282/147/9
f 311/25/9 310/25/9 282/147/9 283/147/9
f 312/24/9 311/25/9 283/147/9 284/147/9
f 313/25/9 312/24/9 284/147/9 285/147/9
f 314/72/7 313/25/7 285/147/7 286/148/7
f 315/45/7 314/72/7 286/148/7 287/149/7
f 316/17/7 315/45/7 287/149/7 288/150/7
f 317/18/7 316/17/7 288/150/7 289/151/7
f 318/59/7 317/18/7 289/151/7 290/152/7
f 291/26/7 318/59/7 290/152/7 263/123/7
f 42/1/14 128/1/14 320/1/14 319/1/14
f 128/1/14 110/1/14 321/1/14 320/1/14
f 110/1/14 30/1/14 322/1/14 321/1/14
f 30/1/15 19/4/15 323/4/15 322/1/15
f 19/4/18 35/44/18 324/44/18 323/4/18
f 35/44/19 120/44/19 325/44/19 324/44/19
f 120/44/19 130/44/19 326/44/19 325/44/19
f 130/44/19 50/44/19 327/44/19 326/44/19
f 50/44/17 41/4/17 328/4/17 327/44/17
f 41/4/16 42/1/16 319/1/16 328/4/16
f 329/65/1 330/23/1 332/7/1 331/35/1
f 331/35/56 332/7/56 334/105/56 333/102/56
f 333/102/4 334/105/4 336/78/4 335/82/4
f 335/82/57 336/78/57 330/16/57 329/30/57
f 330/23/58 336/73/58 334/106/58 332/7/58
f 335/141/59 329/65/59 331/35/59 333/132/59
f 337/65/1 338/23/1 340/7/1 339/35/1
f 339/35/56 340/7/56 342/105/56 341/102/56
f 341/102/4 342/105/4 344/78/4 343/82/4
f 343/82/57 344/78/57 338/16/57 337/30/57
f 338/23/58 344/73/58 342/106/58 340/7/58
f 343/141/59 337/65/59 339/35/59 341/132/59
f 345/65/1 346/23/1 348/7/1 347/35/1
f 347/35/56 348/7/56 350/105/56 349/102/56
f 349/102/4 350/105/4 352/78/4 351/82/4
f 351/82/57 352/78/57 346/16/57 345/30/57
f 346/23/58 352/73/58 350/106/58 348/7/58
f 351/141/59 345/65/59 347/35/59 349/132/59
f 353/65/1 354/23/1 356/7/1 355/35/1
f 355/35/56 356/7/56 358/105/56 357/102/56
f 357/102/4 358/105/4 360/78/4 359/82/4
f 359/82/57 360/78/57 354/16/57 353/30/57
f 354/23/58 360/73/58 358/106/58 356/7/58
f 359/141/59 353/65/59 355/35/59 357/132/59
f 361/65/1 362/23/1 364/7/1 363/35/1
f 363/35/57 364/7/57 366/105/57 365/102/57
f 365/102/4 366/105/4 368/78/4 367/82/4
f 367/82/56 368/78/56 362/16/56 361/30/56
f 362/23/59 368/73/59 366/106/59 364/7/59
f 367/141/58 361/65/58 363/35/58 365/132/58
f 369/65/1 370/23/1 372/7/1 371/35/1
f 371/35/57 372/7/57 374/105/57 373/102/57
f 373/102/4 374/105/4 376/78/4 375/82/4
f 375/82/56 376/78/56 370/16/56 369/30/56
f 370/23/59 376/73/59 374/106/59 372/7/59
f 375/141/58 369/65/58 371/35/58 373/132/58
f 377/65/1 378/23/1 380/7/1 379/35/1
f 379/35/57 380/7/57 382/105/57 381/102/57
f 381/102/4 382/105/4 384/78/4 383/82/4
f 383/82/56 384/78/56 378/16/56 377/30/56
f 378/23/59 384/73/59 382/106/59 380/7/59
f 383/141/58 377/65/58 379/35/58 381/132/58
f 385/65/1 386/23/1 388/7/1 387/35/1
f 387/35/57 388/7/57 390/105/57 389/102/57
f 389/102/4 390/105/4 392/78/4 391/82/4
f 391/82/56 392/78/56 386/16/56 385/30/56
f 386/23/59 392/73/59 390/106/59 388/7/59
f 391/141/58 385/65/58 387/35/58 389/132/58
f 393/65/1 394/23/1 396/7/1 395/35/1
f 395/35/60 396/7/60 398/105/60 397/102/60
f 397/102/4 398/105/4 400/78/4 399/82/4
f 399/82/61 400/78/61 394/16/61 393/30/61
f 394/23/62 400/73/62 398/106/62 396/7/62
f 399/141/63 393/65/63 395/35/63 397/132/63
f 401/65/1 402/23/1 404/7/1 403/35/1
f 403/35/60 404/7/60 406/105/60 405/102/60
f 405/102/4 406/105/4 408/78/4 407/82/4
f 407/82/61 408/78/61 402/16/61 401/30/61
f 402/23/64 408/73/64 406/106/64 404/7/64
f 407/141/63 401/65/63 403/35/63 405/132/63
f 409/65/1 410/23/1 412/7/1 411/35/1
f 411/35/60 412/7/60 414/105/60 413/102/60
f 413/102/4 414/105/4 416/78/4 415/82/4
f 415/82/61 416/78/61 410/16/61 409/30/61
f 410/23/62 416/73/62 414/106/62 412/7/62
f 415/141/63 409/65/63 411/35/63 413/132/63
f 417/65/1 418/23/1 420/7/1 419/35/1
f 419/35/60 420/7/60 422/105/60 421/102/60
f 421/102/4 422/105/4 424/78/4 423/82/4
f 423/82/61 424/78/61 418/16/61 417/30/61
f 418/23/62 424/73/62 422/106/62 420/7/62
f 423/141/63 417/65/63 419/35/63 421/132/63
f 425/65/1 426/23/1 428/7/1 427/35/1
f 427/35/60 428/7/60 430/105/60 429/102/60
f 429/102/4 430/105/4 432/78/4 431/82/4
f 431/82/61 432/78/61 426/16/61 425/30/61
f 426/23/65 432/73/65 430/106/65 428/7/65
f 431/141/63 425/65/63 427/35/63 429/132/63
f 433/65/1 434/23/1 436/7/1 435/35/1
f 435/35/61 436/7/61 438/105/61 437/102/61
f 437/102/4 438/105/4 440/78/4 439/82/4
f 439/82/60 440/78/60 434/16/60 433/30/60
f 434/23/63 440/73/63 438/106/63 436/7/63
f 439/141/62 433/65/62 435/35/62 437/132/62
f 441/65/1 442/23/1 444/7/1 443/35/1
f 443/35/61 444/7/61 446/105/61 445/102/61
f 445/102/4 446/105/4 448/78/4 447/82/4
f 447/82/60 448/78/60 442/16/60 441/30/60
f 442/23/66 448/73/66 446/106/66 444/7/66
f 447/141/62 441/65/62 443/35/62 445/132/62
f 449/65/1 450/23/1 452/7/1 451/35/1
f 451/35/61 452/7/61 454/105/61 453/102/61
f 453/102/4 454/105/4 456/78/4 455/82/4
f 455/82/60 456/78/60 450/16/60 449/30/60
f 450/23/63 456/73/63 454/106/63 452/7/63
f 455/141/62 449/65/62 451/35/62 453/132/62
f 457/65/1 458/23/1 460/7/1 459/35/1
f 459/35/61 460/7/61 462/105/61 461/102/61
f 461/102/4 462/105/4 464/78/4 463/82/4
f 463/82/60 464/78/60 458/16/60 457/30/60
f 458/23/63 464/73/63 462/106/63 460/7/63
f 463/141/62 457/65/62 459/35/62 461/132/62
f 465/65/1 466/23/1 468/7/1 467/35/1
f 467/35/61 468/7/61 470/105/61 469/102/61
f 469/102/4 470/105/4 472/78/4 471/82/4
f 471/82/60 472/78/60 466/16/60 465/30/60
f 466/23/67 472/73/67 470/106/67 468/7/67
f 471/141/62 465/65/62 467/35/62 469/132/62
f 502/1/1 503/2/1 490/3/1 491/4/1
f 738/153/68 488/6/69 476/7/70 737/154/71
f 494/9/4 495/10/4 498/11/4 499/12/4
f 485/13/72 748/155/73 749/156/74 474/16/74
f 492/4/8 757/157/8 758/158/8 501/1/8
f 743/159/7 489/20/7 504/21/7 742/160/7
f 585/23/75 750/161/75 751/161/75 609/23/75
f 737/162/76 476/7/76 575/7/76 736/162/76
f 746/163/77 747/164/77 547/29/77 473/30/77
f 497/31/4 543/32/4 544/33/4 496/34/4
f 475/35/78 541/36/78 739/165/78 740/166/78
f 489/20/1 549/39/1 550/40/1 504/21/1
f 505/41/1 548/42/1 549/39/1 489/20/1
f 491/4/1 490/3/1 506/43/1 507/44/1
f 508/44/8 756/167/8 757/157/8 492/4/8
f 510/46/4 511/47/4 495/10/4 494/9/4
f 496/34/4 544/33/4 545/48/4 512/49/4
f 744/168/7 505/41/7 489/20/7 743/159/7
f 552/51/4 553/52/4 543/32/4 497/31/4
f 499/12/4 498/11/4 554/53/4 555/54/4
f 578/55/4 499/56/4 555/57/4 577/58/4
f 501/1/8 758/158/8 759/169/79 558/60/79
f 560/60/1 502/1/1 582/1/1 583/60/1
f 561/61/1 503/2/1 502/1/1 560/60/1
f 504/21/1 550/40/1 562/62/1 551/63/1
f 742/160/7 504/21/7 551/63/7 741/170/7
f 473/65/1 547/66/1 574/67/1 563/68/1
f 572/69/1 573/70/1 485/71/1 474/23/1
f 610/69/1 584/69/1 585/23/1 609/23/1
f 482/23/8 754/161/8 755/171/8 570/69/8
f 586/73/4 587/74/4 607/74/4 608/73/4
f 486/75/4 566/76/4 567/77/4 480/78/4
f 564/79/4 565/80/4 546/81/4 479/82/4
f 746/172/7 473/65/7 563/68/7 745/173/7
f 501/1/1 652/1/1 653/4/1 492/4/1
f 651/85/1 652/1/1 501/1/1 558/60/1
f 761/162/76 664/7/76 484/7/76 760/162/76
f 500/56/4 661/56/4 662/57/4 557/57/4
f 493/87/4 660/88/4 661/56/4 500/56/4
f 509/89/4 659/90/4 660/88/4 493/87/4
f 657/73/4 658/74/4 569/74/4 481/73/4
f 656/23/75 753/161/75 754/161/75 482/23/75
f 570/69/1 655/69/1 656/23/1 482/23/1
f 492/4/1 653/4/1 654/44/1 508/44/1
f 621/1/80 622/1/80 701/91/80 702/91/80
f 622/1/81 623/4/81 700/4/81 701/91/81
f 628/4/82 629/1/82 704/91/82 695/4/82
f 627/44/83 628/4/83 695/4/83 696/92/83
f 623/4/84 624/44/84 699/92/84 700/4/84
f 625/44/85 626/44/85 697/92/85 698/92/85
f 530/46/86 529/9/86 643/93/86 644/94/86
f 529/9/87 533/12/87 642/95/87 643/93/87
f 533/56/80 579/55/88 641/96/80 642/97/80
f 535/56/82 537/87/82 648/98/82 649/97/82
f 537/87/83 539/89/83 647/99/83 648/98/83
f 605/89/85 589/89/85 645/99/85 646/99/85
f 510/46/89 494/9/89 726/9/90 727/46/90
f 633/4/91 634/44/92 532/44/93 531/4/93
f 494/9/94 499/12/94 725/12/95 726/9/96
f 632/1/97 633/4/98 531/4/99 534/1/99
f 499/56/100 578/55/100 734/100/100 725/56/100
f 631/91/101 632/1/101 534/1/101 580/1/101
f 517/56/102 518/87/103 731/87/104 732/56/105
f 638/4/106 639/1/107 536/1/107 538/4/106
f 518/87/103 519/89/108 730/89/109 731/87/104
f 637/44/110 638/4/106 538/4/106 540/44/110
f 606/89/111 588/89/111 728/89/112 729/89/111
f 635/92/113 636/44/113 604/44/113 590/44/113
f 541/36/78 488/6/69 738/153/68 739/165/78
f 543/32/4 553/52/4 554/53/4 498/11/4
f 544/33/4 543/32/4 498/11/4 495/10/4
f 545/48/4 544/33/4 495/10/4 511/47/4
f 546/81/4 565/80/4 566/76/4 486/75/4
f 547/29/77 747/164/77 748/155/73 485/13/72
f 574/67/1 547/66/1 485/71/1 573/70/1
f 549/39/1 548/42/1 506/43/1 490/3/1
f 550/40/1 549/39/1 490/3/1 503/2/1
f 562/62/1 550/40/1 503/2/1 561/61/1
f 741/170/7 551/63/7 475/35/7 740/174/7
f 477/102/4 542/103/4 553/52/4 552/51/4
f 554/53/4 553/52/4 542/103/4 487/104/4
f 555/54/4 554/53/4 487/104/4 478/105/4
f 577/58/4 555/57/4 478/106/4 576/107/4
f 557/57/4 662/57/4 663/106/4 483/106/4
f 558/60/79 759/169/79 760/162/79 484/7/79
f 664/7/1 651/85/1 558/60/1 484/7/1
f 476/7/1 560/60/1 583/60/1 575/7/1
f 488/6/1 561/61/1 560/60/1 476/7/1
f 541/36/1 562/62/1 561/61/1 488/6/1
f 551/63/1 562/62/1 541/36/1 475/35/1
f 745/173/7 563/68/7 505/41/7 744/168/7
f 512/49/4 545/48/4 565/80/4 564/79/4
f 566/76/4 565/80/4 545/48/4 511/47/4
f 567/77/4 566/76/4 511/47/4 510/46/4
f 607/74/4 587/74/4 588/89/4 606/89/4
f 569/74/4 658/74/4 659/90/4 509/89/4
f 570/69/8 755/171/8 756/167/8 508/44/8
f 508/44/1 654/44/1 655/69/1 570/69/1
f 610/69/1 602/44/1 592/44/1 584/69/1
f 507/44/1 506/43/1 573/70/1 572/69/1
f 548/42/1 574/67/1 573/70/1 506/43/1
f 563/68/1 574/67/1 548/42/1 505/41/1
f 736/162/76 575/7/76 593/7/114 735/162/114
f 595/108/4 577/58/4 576/107/4 594/107/4
f 596/55/4 578/55/4 577/58/4 595/108/4
f 734/100/100 578/55/100 596/55/100 733/100/100
f 650/96/80 641/96/80 579/55/88 597/55/88
f 640/91/101 631/91/101 580/1/101 598/1/101
f 630/1/80 621/1/80 702/91/80 703/91/80
f 583/60/1 582/1/1 600/1/1 601/60/1
f 575/7/1 583/60/1 601/60/1 593/7/1
f 584/69/1 572/69/1 474/23/1 585/23/1
f 474/23/75 749/161/75 750/161/75 585/23/75
f 480/73/4 567/74/4 587/74/4 586/73/4
f 588/89/4 587/74/4 567/74/4 510/89/4
f 728/89/112 588/89/111 510/89/111 727/89/112
f 645/99/85 589/89/85 530/89/85 644/99/85
f 634/44/113 635/92/113 590/44/113 532/44/113
f 624/44/85 625/44/85 698/92/85 699/92/85
f 584/69/1 592/44/1 507/44/1 572/69/1
f 762/162/76 735/162/114 593/7/114 515/7/76
f 556/57/4 595/108/4 594/107/4 516/106/4
f 517/56/102 596/55/4 595/108/4 556/57/4
f 733/100/100 596/55/100 517/56/100 732/56/100
f 650/96/80 597/55/88 535/56/80 649/97/80
f 639/1/101 640/91/101 598/1/101 536/1/101
f 629/1/80 630/1/80 703/91/80 704/91/80
f 601/60/1 600/1/1 514/1/1 559/60/1
f 593/7/1 601/60/1 559/60/1 515/7/1
f 626/44/85 627/44/85 696/92/85 697/92/85
f 604/44/113 636/44/113 637/44/113 540/44/113
f 539/89/85 605/89/85 646/99/85 647/99/85
f 519/89/111 606/89/111 729/89/111 730/89/111
f 568/74/4 607/74/4 606/89/4 519/89/108
f 608/73/4 607/74/4 568/74/4 520/73/4
f 609/23/75 751/161/75 752/161/75 521/23/75
f 571/69/1 610/69/1 609/23/1 521/23/1
f 522/44/1 602/44/1 610/69/1 571/69/1
f 793/1/80 794/1/80 612/1/80 611/1/80
f 794/1/115 795/4/115 613/4/81 612/1/81
f 795/4/116 796/44/116 614/44/84 613/4/84
f 796/44/117 797/44/118 615/44/85 614/44/85
f 797/44/118 798/44/119 616/44/85 615/44/85
f 798/44/119 799/44/120 617/44/85 616/44/85
f 799/44/121 800/4/122 618/4/83 617/44/83
f 800/4/123 791/1/123 619/1/82 618/4/82
f 791/1/124 792/1/125 620/1/80 619/1/80
f 792/1/125 793/1/80 611/1/80 620/1/80
f 611/1/80 612/1/80 691/1/80 692/1/80
f 612/1/81 613/4/81 690/4/81 691/1/81
f 613/4/84 614/44/84 689/44/84 690/4/84
f 614/44/85 615/44/85 688/44/85 689/44/85
f 615/44/85 616/44/85 687/44/85 688/44/85
f 616/44/85 617/44/85 686/44/85 687/44/85
f 617/44/83 618/4/83 685/4/83 686/44/83
f 618/4/82 619/1/82 694/1/82 685/4/82
f 619/1/80 620/1/80 693/1/80 694/1/80
f 620/1/80 611/1/80 692/1/80 693/1/80
f 581/1/101 524/1/101 632/1/101 631/91/101
f 524/1/126 525/4/126 633/4/98 632/1/97
f 525/4/127 528/44/127 634/44/92 633/4/91
f 528/44/113 591/44/113 635/92/113 634/44/113
f 591/44/113 603/44/113 636/44/113 635/92/113
f 637/44/113 636/44/113 603/44/113 527/44/113
f 527/44/110 526/4/106 638/4/106 637/44/110
f 526/4/106 523/1/107 639/1/107 638/4/106
f 523/1/101 599/1/101 640/91/101 639/1/101
f 599/1/101 581/1/101 631/91/101 640/91/101
f 642/97/80 641/96/80 678/109/80 679/110/80
f 643/93/87 642/95/87 679/111/87 680/112/87
f 644/94/86 643/93/86 680/112/86 681/113/86
f 682/114/85 645/99/85 644/99/85 681/114/85
f 646/99/85 645/99/85 682/114/85 683/114/85
f 647/99/85 646/99/85 683/114/85 684/114/85
f 648/98/83 647/99/83 684/114/83 675/115/83
f 649/97/82 648/98/82 675/115/82 676/110/82
f 677/109/80 650/96/80 649/97/80 676/110/80
f 678/109/80 641/96/80 650/96/80 677/109/80
f 559/60/1 514/1/1 652/1/1 651/85/1
f 653/4/1 652/1/1 514/1/1 513/4/1
f 654/44/1 653/4/1 513/4/1 522/44/1
f 655/69/1 654/44/1 522/44/1 571/69/1
f 656/23/1 655/69/1 571/69/1 521/23/1
f 521/23/75 752/161/75 753/161/75 656/23/75
f 520/73/4 568/74/4 658/74/4 657/73/4
f 659/90/4 658/74/4 568/74/4 519/89/108
f 660/88/4 659/90/4 519/89/108 518/87/103
f 661/56/4 660/88/4 518/87/103 517/56/102
f 662/57/4 661/56/4 517/56/102 556/57/4
f 663/106/4 662/57/4 556/57/4 516/106/4
f 762/162/76 515/7/76 664/7/76 761/162/76
f 515/7/1 559/60/1 651/85/1 664/7/1
f 666/116/82 665/117/82 538/4/82 536/1/82
f 598/1/80 667/116/80 666/116/80 536/1/80
f 580/1/80 668/116/80 667/116/80 598/1/80
f 669/116/80 668/116/80 580/1/80 534/1/80
f 670/118/87 669/119/87 534/1/87 531/4/87
f 671/120/86 670/118/86 531/4/86 532/44/86
f 590/44/85 672/121/85 671/121/85 532/44/85
f 673/121/85 672/121/85 590/44/85 604/44/85
f 674/121/85 673/121/85 604/44/85 540/44/85
f 665/117/83 674/121/83 540/44/83 538/4/83
f 676/110/82 675/115/82 665/117/82 666/116/82
f 667/116/80 677/109/80 676/110/80 666/116/80
f 668/116/80 678/109/80 677/109/80 667/116/80
f 679/110/80 678/109/80 668/116/80 669/116/80
f 680/112/87 679/111/87 669/119/87 670/118/87
f 681/113/86 680/112/86 670/118/86 671/120/86
f 672/121/85 682/114/85 681/114/85 671/121/85
f 683/114/85 682/114/85 672/121/85 673/121/85
f 684/114/85 683/114/85 673/121/85 674/121/85
f 675/115/83 684/114/83 674/121/83 665/117/83
f 686/44/83 685/4/83 628/4/83 627/44/83
f 687/44/85 686/44/85 627/44/85 626/44/85
f 688/44/85 687/44/85 626/44/85 625/44/85
f 689/44/85 688/44/85 625/44/85 624/44/85
f 690/4/84 689/44/84 624/44/84 623/4/84
f 691/1/81 690/4/81 623/4/81 622/1/81
f 692/1/80 691/1/80 622/1/80 621/1/80
f 693/1/80 692/1/80 621/1/80 630/1/80
f 694/1/80 693/1/80 630/1/80 629/1/80
f 685/4/82 694/1/82 629/1/82 628/4/82
f 696/92/83 695/4/83 526/4/83 527/44/83
f 697/92/85 696/92/85 527/44/85 603/44/85
f 698/92/85 697/92/85 603/44/85 591/44/85
f 699/92/85 698/92/85 591/44/85 528/44/85
f 700/4/84 699/92/84 528/44/84 525/4/84
f 701/91/81 700/4/81 525/4/81 524/1/81
f 702/91/80 701/91/80 524/1/80 581/1/80
f 703/91/80 702/91/80 581/1/80 599/1/80
f 704/91/80 703/91/80 599/1/80 523/1/80
f 695/4/82 704/91/82 523/1/82 526/4/82
f 719/89/128 706/89/128 705/89/128 718/89/128
f 707/89/129 706/89/128 719/89/128 720/89/129
f 708/89/129 707/89/129 720/89/129 721/89/111
f 709/87/104 708/89/109 721/89/109 722/87/104
f 710/56/105 709/87/104 722/87/104 723/122/105
f 724/55/130 711/55/131 710/56/130 723/122/130
f 724/55/130 715/55/131 712/55/132 711/55/131
f 713/56/132 712/55/132 715/55/131 716/122/132
f 714/9/133 713/12/134 716/12/135 717/9/135
f 705/46/136 714/9/136 717/9/137 718/46/137
f 716/122/132 715/55/131 579/55/100 533/56/100
f 717/9/135 716/12/135 533/12/138 529/9/138
f 718/46/137 717/9/137 529/9/139 530/46/139
f 589/89/129 719/89/128 718/89/128 530/89/128
f 720/89/129 719/89/128 589/89/129 605/89/129
f 721/89/111 720/89/129 605/89/129 539/89/129
f 722/87/104 721/89/109 539/89/109 537/87/104
f 723/122/105 722/87/104 537/87/104 535/56/105
f 597/55/100 724/55/130 723/122/130 535/56/100
f 579/55/100 715/55/131 724/55/130 597/55/100
f 726/9/96 725/12/95 713/12/134 714/9/133
f 727/46/90 726/9/90 714/9/136 705/46/136
f 706/89/128 728/89/112 727/89/112 705/89/128
f 729/89/111 728/89/112 706/89/128 707/89/129
f 730/89/111 729/89/111 707/89/129 708/89/129
f 731/87/104 730/89/109 708/89/109 709/87/104
f 732/56/105 731/87/104 709/87/104 710/56/105
f 711/55/131 733/100/100 732/56/100 710/56/130
f 712/55/132 734/100/100 733/100/100 711/55/131
f 725/56/100 734/100/100 712/55/132 713/56/132
f 764/175/76 736/162/76 735/162/114 763/175/114
f 765/176/76 737/162/76 736/162/76 764/175/76
f 766/177/68 738/153/68 737/154/71 765/178/71
f 739/165/78 738/153/68 766/177/68 767/179/78
f 740/166/78 739/165/78 767/179/78 768/180/78
f 769/181/7 741/170/7 740/174/7 768/182/7
f 770/183/7 742/160/7 741/170/7 769/181/7
f 771/184/7 743/159/7 742/160/7 770/183/7
f 772/185/7 744/168/7 743/159/7 771/184/7
f 773/186/7 745/173/7 744/168/7 772/185/7
f 774/187/7 746/172/7 745/173/7 773/186/7
f 774/188/77 775/189/77 747/164/77 746/163/77
f 748/155/73 747/164/77 775/189/77 776/190/140
f 749/156/74 748/155/73 776/190/140 777/191/74
f 750/161/75 749/161/75 777/192/75 778/192/75
f 751/161/75 750/161/75 778/192/75 779/192/75
f 752/161/75 751/161/75 779/192/75 780/192/75
f 753/161/75 752/161/75 780/192/75 781/192/75
f 754/161/75 753/161/75 781/192/75 782/192/75
f 755/171/8 754/161/8 782/192/8 783/193/8
f 756/167/8 755/171/8 783/193/8 784/194/8
f 757/157/8 756/167/8 784/194/8 785/195/8
f 758/158/8 757/157/8 785/195/8 786/196/8
f 759/169/79 758/158/8 786/196/8 787/197/79
f 760/162/79 759/169/79 787/197/79 788/176/79
f 789/176/76 761/162/76 760/162/76 788/176/76
f 790/176/114 762/162/76 761/162/76 789/176/76
f 790/176/114 763/175/114 735/162/114 762/162/76
f 576/107/76 764/175/76 763/175/114 594/107/114
f 478/106/76 765/176/76 764/175/76 576/107/76
f 487/104/141 766/177/68 765/178/71 478/105/71
f 767/179/78 766/177/68 487/104/141 542/103/78
f 768/180/78 767/179/78 542/103/78 477/102/78
f 552/129/7 769/181/7 768/182/7 477/132/7
f 497/133/7 770/183/7 769/181/7 552/129/7
f 496/135/7 771/184/7 770/183/7 497/133/7
f 512/137/7 772/185/7 771/184/7 496/135/7
f 564/139/7 773/186/7 772/185/7 512/137/7
f 479/141/7 774/187/7 773/186/7 564/139/7
f 479/82/77 546/81/77 775/189/77 774/188/77
f 776/190/140 775/189/77 546/81/77 486/75/142
f 777/191/74 776/190/140 486/75/142 480/78/74
f 778/192/75 777/192/75 480/73/75 586/73/75
f 779/192/75 778/192/75 586/73/75 608/73/75
f 780/192/75 779/192/75 608/73/75 520/73/75
f 781/192/75 780/192/75 520/73/75 657/73/75
f 782/192/75 781/192/75 657/73/75 481/73/75
f 783/193/8 782/192/8 481/73/8 569/74/8
f 784/194/8 783/193/8 569/74/8 509/89/8
f 785/195/8 784/194/8 509/89/8 493/87/8
f 786/196/8 785/195/8 493/87/8 500/56/8
f 787/197/79 786/196/8 500/56/8 557/57/79
f 788/176/79 787/197/79 557/57/79 483/106/79
f 663/106/76 789/176/76 788/176/76 483/106/76
f 516/106/114 790/176/114 789/176/76 663/106/76
f 594/107/114 763/175/114 790/176/114 516/106/114
f 514/1/143 600/1/124 792/1/125 791/1/124
f 600/1/124 582/1/80 793/1/80 792/1/125
f 582/1/80 502/1/144 794/1/80 793/1/80
f 502/1/145 491/4/145 795/4/115 794/1/115
f 491/4/146 507/44/146 796/44/116 795/4/116
f 507/44/147 592/44/148 797/44/118 796/44/117
f 592/44/148 602/44/149 798/44/119 797/44/118
f 602/44/149 522/44/150 799/44/120 798/44/119
f 522/44/151 513/4/151 800/4/122 799/44/121
f 513/4/152 514/1/152 791/1/123 800/4/123
