# Blender 4.4.1
# www.blender.org
mtllib eye.mtl
o Eye_Objective
v -0.008804 0.084666 0.488315
v -0.053507 0.068359 0.488315
v -0.082298 0.030472 0.488315
v -0.086034 -0.016965 0.488315
v -0.063532 -0.058892 0.488315
v -0.021934 -0.081997 0.488315
v 0.025553 -0.078945 0.488315
v 0.063850 -0.050705 0.488315
v 0.080801 -0.006242 0.488315
v 0.071022 0.040327 0.488315
v 0.037618 0.074216 0.488315
v 0.174955 0.059749 0.488315
v 0.113780 0.145435 0.488315
v 0.015990 0.184445 0.488315
v -0.087365 0.164392 0.488315
v -0.163473 0.091644 0.488315
v -0.188168 -0.010701 0.488315
v -0.153611 -0.110151 0.488315
v -0.070773 -0.175130 0.488315
v 0.034046 -0.185009 0.488315
v 0.127565 -0.136651 0.488315
v 0.180094 -0.045408 0.488315
v 0.009331 0.089430 0.500361
v 0.009331 0.089430 0.500361
v 0.159508 0.069067 0.500361
v 0.111396 0.136456 0.500361
v -0.040875 0.082060 0.500361
v -0.040875 0.082060 0.500361
v 0.095648 0.144962 0.500361
v 0.018838 0.175602 0.500361
v -0.079356 0.048383 0.500361
v -0.079356 0.048383 0.500361
v 0.000986 0.174242 0.500361
v -0.080164 0.158498 0.500361
v -0.093308 -0.001099 0.500361
v -0.093308 -0.001099 0.500361
v -0.094401 0.147765 0.500361
v -0.154195 0.090611 0.500361
v -0.077885 -0.050212 0.500361
v -0.077885 -0.050212 0.500361
v -0.160362 0.074019 0.500361
v -0.179792 -0.006505 0.500361
v -0.038242 -0.082791 0.500361
v -0.038242 -0.082791 0.500361
v -0.176083 -0.023672 0.500361
v -0.148846 -0.102056 0.500361
v 0.012413 -0.088499 0.500361
v 0.012413 -0.088499 0.500361
v -0.136542 -0.114443 0.500361
v -0.071153 -0.165735 0.500361
v 0.057749 -0.066090 0.500361
v 0.057749 -0.066090 0.500361
v -0.054144 -0.169508 0.500361
v 0.028660 -0.177313 0.500361
v 0.083782 -0.023131 0.500361
v 0.083782 -0.023131 0.500361
v 0.045038 -0.171267 0.500361
v 0.118907 -0.133070 0.500361
v 0.082820 0.026918 0.500361
v 0.082820 0.026918 0.500361
v 0.129450 -0.119031 0.500361
v 0.170899 -0.047034 0.500361
v 0.055251 0.068757 0.500361
v 0.055251 0.068757 0.500361
v 0.172146 -0.029388 0.500361
v 0.168097 0.053456 0.500361
vn -0.0000 -0.0000 1.0000
vn 0.3392 -0.9298 -0.1429
vn -0.1155 -0.8519 0.5108
vn 0.6997 0.4995 0.5108
vn -0.3597 0.7808 0.5108
vn 0.7878 -0.5986 -0.1452
vn 0.3598 -0.7808 0.5108
vn 0.3185 0.7985 0.5108
vn -0.7246 0.4626 0.5108
vn 0.9890 -0.0779 -0.1257
vn 0.7246 -0.4626 0.5108
vn -0.1637 0.8439 0.5108
vn -0.8597 -0.0063 0.5108
vn 0.8775 0.4710 -0.0904
vn 0.8597 0.0063 0.5108
vn -0.5940 0.6215 0.5108
vn -0.7162 -0.4755 0.5108
vn 0.4849 0.8730 -0.0512
vn 0.7063 0.5510 0.4445
vn 0.6608 0.6931 0.2879
vn 0.7162 0.4755 0.5108
vn -0.8357 0.2016 0.5108
vn -0.3389 -0.7901 0.5108
vn -0.0641 0.9977 -0.0211
vn 0.2902 0.8453 0.4486
vn 0.1758 0.9376 0.2998
vn 0.3389 0.7901 0.5108
vn -0.8121 -0.2822 0.5108
vn 0.1475 -0.8469 0.5108
vn -0.5935 0.8048 -0.0090
vn -0.2169 0.8661 0.4503
vn -0.3615 0.8812 0.3046
vn -0.1475 0.8469 0.5108
vn -0.5306 -0.6764 0.5108
vn 0.5835 -0.6313 0.5108
vn -0.9342 0.3562 -0.0183
vn -0.6523 0.6104 0.4493
vn -0.7820 0.5458 0.3010
vn -0.5835 0.6313 0.5108
vn -0.0807 -0.8559 0.5108
vn 0.8317 -0.2175 0.5108
vn -0.9776 -0.2053 -0.0458
vn -0.8802 0.1626 0.4458
vn -0.9562 0.0382 0.2902
vn -0.8317 0.2175 0.5108
vn 0.3949 -0.7636 0.5108
vn 0.8189 0.2616 0.5108
vn -0.7097 -0.6995 -0.0836
vn -0.8323 -0.3362 0.4408
vn -0.8308 -0.4837 0.2753
vn -0.8189 -0.2616 0.5108
vn 0.7450 -0.4289 0.5108
vn 0.5528 0.6584 0.5108
vn -0.2180 -0.9686 -0.1197
vn -0.5528 -0.6584 0.5108
vn 0.8587 0.0420 0.5108
vn 0.1155 0.8519 0.5108
vn -0.0000 -0.0000 -1.0000
vt 0.090909 0.750000
vt 0.000000 0.750000
vt 0.000000 0.500000
vt 0.090909 0.500000
vt 0.181818 0.750000
vt 0.181818 0.500000
vt 0.272727 0.750000
vt 0.272727 0.500000
vt 0.363636 0.750000
vt 0.363636 0.500000
vt 0.454545 0.750000
vt 0.454545 0.500000
vt 0.545455 0.750000
vt 0.545455 0.500000
vt 0.636364 0.750000
vt 0.636364 0.500000
vt 0.727273 0.750000
vt 0.727273 0.500000
vt 0.818182 0.750000
vt 0.818182 0.500000
vt 0.909091 0.750000
vt 0.909091 0.500000
vt 1.000000 0.750000
vt 1.000000 0.500000
s 1
usemtl aiWireframe1.001
f 24/1/1 23/2/1 25/3/1 26/4/1
f 28/5/1 27/1/1 29/4/1 30/6/1
f 32/7/1 31/5/1 33/6/1 34/8/1
f 36/9/1 35/7/1 37/8/1 38/10/1
f 40/11/1 39/9/1 41/10/1 42/12/1
f 44/13/1 43/11/1 45/12/1 46/14/1
f 48/15/1 47/13/1 49/14/1 50/16/1
f 52/17/1 51/15/1 53/16/1 54/18/1
f 56/19/1 55/17/1 57/18/1 58/20/1
f 60/21/1 59/19/1 61/20/1 62/22/1
f 64/23/1 63/21/1 65/22/1 66/24/1
f 2/1/2 1/2/2 23/2/2 24/1/2
f 1/2/3 12/3/3 25/3/3 23/2/3
f 12/3/4 13/4/4 26/4/4 25/3/4
f 13/4/5 2/1/5 24/1/5 26/4/5
f 3/5/6 2/1/6 27/1/6 28/5/6
f 2/1/7 13/4/7 29/4/7 27/1/7
f 13/4/8 14/6/8 30/6/8 29/4/8
f 14/6/9 3/5/9 28/5/9 30/6/9
f 4/7/10 3/5/10 31/5/10 32/7/10
f 3/5/11 14/6/11 33/6/11 31/5/11
f 14/6/12 15/8/12 34/8/12 33/6/12
f 15/8/13 4/7/13 32/7/13 34/8/13
f 5/9/14 4/7/14 35/7/14 36/9/14
f 4/7/15 15/8/15 37/8/15 35/7/15
f 15/8/16 16/10/16 38/10/16 37/8/16
f 16/10/17 5/9/17 36/9/17 38/10/17
f 6/11/18 5/9/19 39/9/20 40/11/18
f 5/9/19 16/10/21 41/10/21 39/9/20
f 16/10/22 17/12/22 42/12/22 41/10/22
f 17/12/23 6/11/23 40/11/23 42/12/23
f 7/13/24 6/11/25 43/11/26 44/13/24
f 6/11/25 17/12/27 45/12/27 43/11/26
f 17/12/28 18/14/28 46/14/28 45/12/28
f 18/14/29 7/13/29 44/13/29 46/14/29
f 8/15/30 7/13/31 47/13/32 48/15/30
f 7/13/31 18/14/33 49/14/33 47/13/32
f 18/14/34 19/16/34 50/16/34 49/14/34
f 19/16/35 8/15/35 48/15/35 50/16/35
f 9/17/36 8/15/37 51/15/38 52/17/36
f 8/15/37 19/16/39 53/16/39 51/15/38
f 19/16/40 20/18/40 54/18/40 53/16/40
f 20/18/41 9/17/41 52/17/41 54/18/41
f 10/19/42 9/17/43 55/17/44 56/19/42
f 9/17/43 20/18/45 57/18/45 55/17/44
f 20/18/46 21/20/46 58/20/46 57/18/46
f 21/20/47 10/19/47 56/19/47 58/20/47
f 11/21/48 10/19/49 59/19/50 60/21/48
f 10/19/49 21/20/51 61/20/51 59/19/50
f 21/20/52 22/22/52 62/22/52 61/20/52
f 22/22/53 11/21/53 60/21/53 62/22/53
f 1/23/54 11/21/54 63/21/54 64/23/54
f 11/21/55 22/22/55 65/22/55 63/21/55
f 22/22/56 12/24/56 66/24/56 65/22/56
f 12/24/57 1/23/57 64/23/57 66/24/57
f 2/1/58 3/5/58 17/12/58 16/10/58
f 3/5/58 4/7/58 18/14/58 17/12/58
f 4/7/58 5/9/58 19/16/58 18/14/58
f 5/9/58 6/11/58 20/18/58 19/16/58
f 6/11/58 7/13/58 21/20/58 20/18/58
f 7/13/58 8/15/58 22/22/58 21/20/58
f 8/15/58 9/17/58 12/24/58 22/22/58
f 9/17/58 10/19/58 13/4/58 12/3/58
f 10/19/58 11/21/58 14/6/58 13/4/58
f 11/21/58 1/23/58 15/8/58 14/6/58
f 1/2/58 2/1/58 16/10/58 15/8/58
