# Blender 4.4.1
# www.blender.org
mtllib lens.mtl
o Eye_Red_Lens
v 0.189700 0.062602 0.540218
v 0.159608 0.119857 0.540218
v 0.113297 0.165011 0.540218
v 0.055299 0.193645 0.540218
v -0.008709 0.202955 0.540218
v -0.072460 0.192029 0.540218
v -0.129716 0.161938 0.540218
v -0.174870 0.115627 0.540218
v -0.203504 0.057629 0.540218
v -0.212814 -0.006379 0.540218
v -0.201888 -0.070131 0.540218
v -0.171797 -0.127386 0.540218
v -0.125486 -0.172541 0.540218
v -0.067488 -0.201174 0.540218
v -0.003480 -0.210484 0.540218
v 0.060272 -0.199558 0.540218
v 0.117527 -0.169467 0.540218
v 0.162682 -0.123156 0.540218
v 0.191315 -0.065158 0.540218
v 0.200625 -0.001150 0.540218
v 0.189700 0.062602 0.550654
v 0.159608 0.119857 0.550654
v 0.113297 0.165011 0.550654
v 0.055299 0.193645 0.550654
v -0.008709 0.202955 0.550654
v -0.072460 0.192029 0.550654
v -0.129716 0.161938 0.550654
v -0.174870 0.115627 0.550654
v -0.203504 0.057629 0.550654
v -0.212814 -0.006379 0.550654
v -0.201888 -0.070131 0.550654
v -0.171797 -0.127386 0.550654
v -0.125486 -0.172541 0.550654
v -0.067488 -0.201174 0.550654
v -0.003480 -0.210484 0.550654
v 0.060272 -0.199558 0.550654
v 0.117527 -0.169467 0.550654
v 0.162682 -0.123156 0.550654
v 0.191315 -0.065158 0.550654
v 0.200625 -0.001150 0.550654
v -0.006094 -0.003765 0.540218
v -0.006094 -0.003765 0.550654
v 0.113297 0.165011 0.540930
v 0.159608 0.119857 0.540930
v 0.189700 0.062602 0.540930
v 0.200625 -0.001150 0.540930
v 0.191315 -0.065158 0.540930
v 0.162682 -0.123156 0.540930
v 0.117527 -0.169467 0.540930
v 0.060272 -0.199558 0.540930
v -0.003480 -0.210484 0.540930
v -0.067488 -0.201174 0.540930
v -0.125486 -0.172541 0.540930
v -0.171797 -0.127386 0.540930
v -0.201888 -0.070131 0.540930
v -0.212814 -0.006379 0.540930
v -0.203504 0.057629 0.540930
v -0.174870 0.115627 0.540930
v -0.129716 0.161938 0.540930
v -0.072460 0.192029 0.540930
v -0.008709 0.202955 0.540930
v 0.055299 0.193645 0.540930
v 0.113297 0.165011 0.549936
v 0.159608 0.119857 0.549936
v 0.189700 0.062602 0.549936
v 0.200625 -0.001150 0.549936
v 0.191315 -0.065158 0.549936
v 0.162682 -0.123156 0.549936
v 0.117527 -0.169467 0.549936
v 0.060272 -0.199558 0.549936
v -0.003480 -0.210484 0.549936
v -0.067488 -0.201174 0.549936
v -0.125486 -0.172541 0.549936
v -0.171797 -0.127386 0.549936
v -0.201888 -0.070131 0.549936
v -0.212814 -0.006379 0.549936
v -0.203504 0.057629 0.549936
v -0.174870 0.115627 0.549936
v -0.129716 0.161938 0.549936
v -0.072460 0.192029 0.549936
v -0.008709 0.202955 0.549936
v 0.055299 0.193645 0.549936
v 0.113297 0.165012 0.544198
v 0.159608 0.119857 0.544198
v 0.189700 0.062602 0.544198
v 0.200625 -0.001150 0.544198
v 0.191315 -0.065158 0.544198
v 0.162682 -0.123156 0.544198
v 0.117527 -0.169467 0.544198
v 0.060272 -0.199558 0.544198
v -0.003480 -0.210484 0.544198
v -0.067488 -0.201174 0.544198
v -0.125486 -0.172541 0.544198
v -0.171797 -0.127386 0.544198
v -0.201888 -0.070131 0.544198
v -0.212814 -0.006379 0.544198
v -0.203504 0.057629 0.544198
v -0.174870 0.115627 0.544198
v -0.129716 0.161938 0.544198
v -0.072460 0.192029 0.544198
v -0.008709 0.202955 0.544198
v 0.055299 0.193645 0.544198
vn 0.9471 0.3210 -0.0000
vn 0.8015 0.5980 -0.0000
vn 0.5775 0.8164 -0.0000
vn 0.2970 0.9549 -0.0000
vn -0.0126 0.9999 -0.0000
vn -0.3210 0.9471 -0.0000
vn -0.5980 0.8015 -0.0000
vn -0.8164 0.5775 -0.0000
vn -0.9549 0.2970 -0.0000
vn -0.9999 -0.0126 -0.0000
vn -0.9471 -0.3210 -0.0000
vn -0.8015 -0.5980 -0.0000
vn -0.5775 -0.8164 -0.0000
vn -0.2970 -0.9549 -0.0000
vn 0.0126 -0.9999 -0.0000
vn 0.3210 -0.9471 -0.0000
vn 0.5980 -0.8015 -0.0000
vn 0.8164 -0.5775 -0.0000
vn 0.9549 -0.2970 -0.0000
vn 0.9999 0.0126 -0.0000
vn -0.0000 -0.0000 -1.0000
vn -0.0000 -0.0000 1.0000
vt 0.375000 0.312500
vt 0.387500 0.312500
vt 0.387500 0.338139
vt 0.375000 0.338139
vt 0.400000 0.312500
vt 0.400000 0.338139
vt 0.412500 0.312500
vt 0.412500 0.338139
vt 0.425000 0.312500
vt 0.425000 0.338139
vt 0.437500 0.312500
vt 0.437500 0.338139
vt 0.450000 0.312500
vt 0.450000 0.338139
vt 0.462500 0.312500
vt 0.462500 0.338139
vt 0.475000 0.312500
vt 0.475000 0.338139
vt 0.487500 0.312500
vt 0.487500 0.338139
vt 0.500000 0.312500
vt 0.500000 0.338139
vt 0.512500 0.312500
vt 0.512500 0.338139
vt 0.525000 0.312500
vt 0.525000 0.338139
vt 0.537500 0.312500
vt 0.537500 0.338139
vt 0.550000 0.312500
vt 0.550000 0.338139
vt 0.562500 0.312500
vt 0.562500 0.338139
vt 0.575000 0.312500
vt 0.575000 0.338139
vt 0.587500 0.312500
vt 0.587500 0.338139
vt 0.600000 0.312500
vt 0.600000 0.338139
vt 0.612500 0.312500
vt 0.612500 0.338139
vt 0.625000 0.312500
vt 0.625000 0.338139
vt 0.626409 0.064408
vt 0.648603 0.107966
vt 0.500000 0.150000
vt 0.591842 0.029841
vt 0.548284 0.007647
vt 0.500000 -0.000000
vt 0.451716 0.007647
vt 0.408159 0.029841
vt 0.373591 0.064409
vt 0.351397 0.107966
vt 0.343750 0.156250
vt 0.351397 0.204534
vt 0.373591 0.248091
vt 0.408159 0.282659
vt 0.451716 0.304853
vt 0.500000 0.312500
vt 0.548284 0.304853
vt 0.591841 0.282659
vt 0.626409 0.248091
vt 0.648603 0.204534
vt 0.656250 0.156250
vt 0.648603 0.892034
vt 0.626409 0.935591
vt 0.500000 0.837500
vt 0.591841 0.970159
vt 0.548284 0.992353
vt 0.500000 1.000000
vt 0.451716 0.992353
vt 0.408159 0.970159
vt 0.373591 0.935591
vt 0.351397 0.892034
vt 0.343750 0.843750
vt 0.351397 0.795466
vt 0.373591 0.751909
vt 0.408159 0.717341
vt 0.451716 0.695147
vt 0.500000 0.687500
vt 0.548284 0.695147
vt 0.591842 0.717341
vt 0.626409 0.751908
vt 0.648603 0.795466
vt 0.656250 0.843750
vt 0.400000 0.455860
vt 0.387500 0.455860
vt 0.375000 0.455860
vt 0.625000 0.455860
vt 0.612500 0.455860
vt 0.600000 0.455860
vt 0.587500 0.455860
vt 0.575000 0.455860
vt 0.562500 0.455860
vt 0.550000 0.455860
vt 0.537500 0.455860
vt 0.525000 0.455860
vt 0.512500 0.455860
vt 0.500000 0.455860
vt 0.487500 0.455860
vt 0.475000 0.455860
vt 0.462500 0.455860
vt 0.450000 0.455860
vt 0.437500 0.455860
vt 0.425000 0.455860
vt 0.412500 0.455860
vt 0.387500 0.662572
vt 0.400000 0.662572
vt 0.400000 0.688440
vt 0.387500 0.688440
vt 0.375000 0.662572
vt 0.375000 0.688440
vt 0.612500 0.662572
vt 0.625000 0.662572
vt 0.625000 0.688440
vt 0.612500 0.688440
vt 0.600000 0.662572
vt 0.600000 0.688440
vt 0.587500 0.662572
vt 0.587500 0.688440
vt 0.575000 0.662572
vt 0.575000 0.688440
vt 0.562500 0.662572
vt 0.562500 0.688440
vt 0.550000 0.662572
vt 0.550000 0.688440
vt 0.537500 0.662572
vt 0.537500 0.688440
vt 0.525000 0.662572
vt 0.525000 0.688440
vt 0.512500 0.662572
vt 0.512500 0.688440
vt 0.500000 0.662572
vt 0.500000 0.688440
vt 0.487500 0.662572
vt 0.487500 0.688440
vt 0.475000 0.662572
vt 0.475000 0.688440
vt 0.462500 0.662572
vt 0.462500 0.688440
vt 0.450000 0.662572
vt 0.450000 0.688440
vt 0.437500 0.662572
vt 0.437500 0.688440
vt 0.425000 0.662572
vt 0.425000 0.688440
vt 0.412500 0.662572
vt 0.412500 0.688440
s 1
usemtl aiWireframe1.001
f 1/1/1 2/2/2 44/3/2 45/4/1
f 2/2/2 3/5/3 43/6/3 44/3/2
f 3/5/3 4/7/4 62/8/4 43/6/3
f 4/7/4 5/9/5 61/10/5 62/8/4
f 5/9/5 6/11/6 60/12/6 61/10/5
f 6/11/6 7/13/7 59/14/7 60/12/6
f 7/13/7 8/15/8 58/16/8 59/14/7
f 8/15/8 9/17/9 57/18/9 58/16/8
f 9/17/9 10/19/10 56/20/10 57/18/9
f 10/19/10 11/21/11 55/22/11 56/20/10
f 11/21/11 12/23/12 54/24/12 55/22/11
f 12/23/12 13/25/13 53/26/13 54/24/12
f 13/25/13 14/27/14 52/28/14 53/26/13
f 14/27/14 15/29/15 51/30/15 52/28/14
f 15/29/15 16/31/16 50/32/16 51/30/15
f 16/31/16 17/33/17 49/34/17 50/32/16
f 17/33/17 18/35/18 48/36/18 49/34/17
f 18/35/18 19/37/19 47/38/19 48/36/18
f 19/37/19 20/39/20 46/40/20 47/38/19
f 20/39/20 1/41/1 45/42/1 46/40/20
f 2/43/21 1/44/21 41/45/21
f 3/46/21 2/43/21 41/45/21
f 4/47/21 3/46/21 41/45/21
f 5/48/21 4/47/21 41/45/21
f 6/49/21 5/48/21 41/45/21
f 7/50/21 6/49/21 41/45/21
f 8/51/21 7/50/21 41/45/21
f 9/52/21 8/51/21 41/45/21
f 10/53/21 9/52/21 41/45/21
f 11/54/21 10/53/21 41/45/21
f 12/55/21 11/54/21 41/45/21
f 13/56/21 12/55/21 41/45/21
f 14/57/21 13/56/21 41/45/21
f 15/58/21 14/57/21 41/45/21
f 16/59/21 15/58/21 41/45/21
f 17/60/21 16/59/21 41/45/21
f 18/61/21 17/60/21 41/45/21
f 19/62/21 18/61/21 41/45/21
f 20/63/21 19/62/21 41/45/21
f 1/44/21 20/63/21 41/45/21
f 21/64/22 22/65/22 42/66/22
f 22/65/22 23/67/22 42/66/22
f 23/67/22 24/68/22 42/66/22
f 24/68/22 25/69/22 42/66/22
f 25/69/22 26/70/22 42/66/22
f 26/70/22 27/71/22 42/66/22
f 27/71/22 28/72/22 42/66/22
f 28/72/22 29/73/22 42/66/22
f 29/73/22 30/74/22 42/66/22
f 30/74/22 31/75/22 42/66/22
f 31/75/22 32/76/22 42/66/22
f 32/76/22 33/77/22 42/66/22
f 33/77/22 34/78/22 42/66/22
f 34/78/22 35/79/22 42/66/22
f 35/79/22 36/80/22 42/66/22
f 36/80/22 37/81/22 42/66/22
f 37/81/22 38/82/22 42/66/22
f 38/82/22 39/83/22 42/66/22
f 39/83/22 40/84/22 42/66/22
f 40/84/22 21/64/22 42/66/22
f 44/3/2 43/6/3 83/85/3 84/86/2
f 45/4/1 44/3/2 84/86/2 85/87/1
f 46/40/20 45/42/1 85/88/1 86/89/20
f 47/38/19 46/40/20 86/89/20 87/90/19
f 48/36/18 47/38/19 87/90/19 88/91/18
f 49/34/17 48/36/18 88/91/18 89/92/17
f 50/32/16 49/34/17 89/92/17 90/93/16
f 51/30/15 50/32/16 90/93/16 91/94/15
f 52/28/14 51/30/15 91/94/15 92/95/14
f 53/26/13 52/28/14 92/95/14 93/96/13
f 54/24/12 53/26/13 93/96/13 94/97/12
f 55/22/11 54/24/12 94/97/12 95/98/11
f 56/20/10 55/22/11 95/98/11 96/99/10
f 57/18/9 56/20/10 96/99/10 97/100/9
f 58/16/8 57/18/9 97/100/9 98/101/8
f 59/14/7 58/16/8 98/101/8 99/102/7
f 60/12/6 59/14/7 99/102/7 100/103/6
f 61/10/5 60/12/6 100/103/6 101/104/5
f 62/8/4 61/10/5 101/104/5 102/105/4
f 43/6/3 62/8/4 102/105/4 83/85/3
f 64/106/2 63/107/3 23/108/3 22/109/2
f 65/110/1 64/106/2 22/109/2 21/111/1
f 66/112/20 65/113/1 21/114/1 40/115/20
f 67/116/19 66/112/20 40/115/20 39/117/19
f 68/118/18 67/116/19 39/117/19 38/119/18
f 69/120/17 68/118/18 38/119/18 37/121/17
f 70/122/16 69/120/17 37/121/17 36/123/16
f 71/124/15 70/122/16 36/123/16 35/125/15
f 72/126/14 71/124/15 35/125/15 34/127/14
f 73/128/13 72/126/14 34/127/14 33/129/13
f 74/130/12 73/128/13 33/129/13 32/131/12
f 75/132/11 74/130/12 32/131/12 31/133/11
f 76/134/10 75/132/11 31/133/11 30/135/10
f 77/136/9 76/134/10 30/135/10 29/137/9
f 78/138/8 77/136/9 29/137/9 28/139/8
f 79/140/7 78/138/8 28/139/8 27/141/7
f 80/142/6 79/140/7 27/141/7 26/143/6
f 81/144/5 80/142/6 26/143/6 25/145/5
f 82/146/4 81/144/5 25/145/5 24/147/4
f 63/107/3 82/146/4 24/147/4 23/108/3
f 84/86/2 83/85/3 63/107/3 64/106/2
f 85/87/1 84/86/2 64/106/2 65/110/1
f 86/89/20 85/88/1 65/113/1 66/112/20
f 87/90/19 86/89/20 66/112/20 67/116/19
f 88/91/18 87/90/19 67/116/19 68/118/18
f 89/92/17 88/91/18 68/118/18 69/120/17
f 90/93/16 89/92/17 69/120/17 70/122/16
f 91/94/15 90/93/16 70/122/16 71/124/15
f 92/95/14 91/94/15 71/124/15 72/126/14
f 93/96/13 92/95/14 72/126/14 73/128/13
f 94/97/12 93/96/13 73/128/13 74/130/12
f 95/98/11 94/97/12 74/130/12 75/132/11
f 96/99/10 95/98/11 75/132/11 76/134/10
f 97/100/9 96/99/10 76/134/10 77/136/9
f 98/101/8 97/100/9 77/136/9 78/138/8
f 99/102/7 98/101/8 78/138/8 79/140/7
f 100/103/6 99/102/7 79/140/7 80/142/6
f 101/104/5 100/103/6 80/142/6 81/144/5
f 102/105/4 101/104/5 81/144/5 82/146/4
f 83/85/3 102/105/4 82/146/4 63/107/3
