# Blender 4.4.1
# www.blender.org
mtllib puple.mtl
o Eyeball1
v 0.028017 -0.179213 0.199007
v 0.023939 -0.179265 0.191002
v 0.017587 -0.179345 0.184649
v 0.009582 -0.179446 0.180570
v 0.000709 -0.179558 0.179165
v -0.008164 -0.179671 0.180570
v -0.016168 -0.179772 0.184649
v -0.022520 -0.179852 0.191002
v -0.026599 -0.179904 0.199007
v -0.028004 -0.179921 0.207880
v -0.026599 -0.179904 0.216754
v -0.022520 -0.179852 0.224759
v -0.016168 -0.179772 0.231112
v -0.008164 -0.179671 0.235191
v 0.000709 -0.179558 0.236596
v 0.009582 -0.179446 0.235191
v 0.017587 -0.179345 0.231112
v 0.023939 -0.179265 0.224759
v 0.028017 -0.179213 0.216754
v 0.029423 -0.179195 0.207880
v 0.054568 -0.172152 0.190352
v 0.046512 -0.172254 0.174539
v 0.033963 -0.172413 0.161989
v 0.018152 -0.172613 0.153932
v 0.000624 -0.172835 0.151156
v -0.016903 -0.173056 0.153932
v -0.032715 -0.173256 0.161989
v -0.045263 -0.173415 0.174539
v -0.053320 -0.173517 0.190352
v -0.056096 -0.173552 0.207880
v -0.053320 -0.173517 0.225409
v -0.045263 -0.173415 0.241222
v -0.032715 -0.173256 0.253771
v -0.016903 -0.173056 0.261829
v 0.000624 -0.172835 0.264605
v 0.018152 -0.172613 0.261829
v 0.033963 -0.172413 0.253771
v 0.046512 -0.172254 0.241222
v 0.054568 -0.172152 0.225409
v 0.057344 -0.172117 0.207880
v 0.079736 -0.160810 0.182128
v 0.067900 -0.160960 0.158896
v 0.049465 -0.161193 0.140460
v 0.026235 -0.161487 0.128623
v 0.000485 -0.161812 0.124544
v -0.025266 -0.162138 0.128623
v -0.048495 -0.162432 0.140460
v -0.066930 -0.162665 0.158896
v -0.078767 -0.162815 0.182128
v -0.082845 -0.162866 0.207880
v -0.078767 -0.162815 0.233633
v -0.066930 -0.162665 0.256864
v -0.048495 -0.162432 0.275301
v -0.025266 -0.162138 0.287138
v 0.000485 -0.161812 0.291217
v 0.026235 -0.161487 0.287138
v 0.049465 -0.161193 0.275301
v 0.067900 -0.160960 0.256864
v 0.079736 -0.160810 0.233633
v 0.083815 -0.160759 0.207880
v 0.102902 -0.145466 0.174539
v 0.087578 -0.145659 0.144460
v 0.063709 -0.145961 0.120590
v 0.033634 -0.146342 0.105265
v 0.000294 -0.146763 0.099984
v -0.033045 -0.147185 0.105265
v -0.063120 -0.147565 0.120590
v -0.086989 -0.147867 0.144460
v -0.102313 -0.148061 0.174539
v -0.107593 -0.148128 0.207880
v -0.102313 -0.148061 0.241222
v -0.086989 -0.147867 0.271300
v -0.063120 -0.147565 0.295170
v -0.033045 -0.147185 0.310496
v 0.000294 -0.146763 0.315777
v 0.033634 -0.146342 0.310496
v 0.063709 -0.145961 0.295170
v 0.087577 -0.145659 0.271300
v 0.102902 -0.145466 0.241222
v 0.108182 -0.145399 0.207880
v 0.123495 -0.126497 0.167770
v 0.105060 -0.126730 0.131586
v 0.076346 -0.127093 0.102870
v 0.040165 -0.127551 0.084434
v 0.000058 -0.128058 0.078081
v -0.040049 -0.128565 0.084434
v -0.076230 -0.129022 0.102870
v -0.104944 -0.129386 0.131586
v -0.123379 -0.129619 0.167770
v -0.129731 -0.129699 0.207880
v -0.123379 -0.129619 0.247991
v -0.104944 -0.129386 0.284175
v -0.076230 -0.129022 0.312890
v -0.040049 -0.128565 0.331327
v 0.000058 -0.128058 0.337680
v 0.040165 -0.127550 0.331327
v 0.076346 -0.127093 0.312890
v 0.105060 -0.126730 0.284175
v 0.123495 -0.126497 0.247991
v 0.129847 -0.126416 0.207880
v 0.141008 -0.104370 0.161989
v 0.119916 -0.104637 0.120590
v 0.087064 -0.105052 0.087736
v 0.045668 -0.105576 0.066642
v -0.000219 -0.106156 0.059374
v -0.046106 -0.106737 0.066642
v -0.087502 -0.107260 0.087736
v -0.120354 -0.107676 0.120590
v -0.141446 -0.107942 0.161989
v -0.148714 -0.108034 0.207880
v -0.141446 -0.107942 0.253771
v -0.120354 -0.107675 0.295170
v -0.087502 -0.107260 0.328025
v -0.046106 -0.106737 0.349119
v -0.000219 -0.106156 0.356387
v 0.045668 -0.105576 0.349119
v 0.087064 -0.105052 0.328025
v 0.119916 -0.104637 0.295170
v 0.141008 -0.104370 0.253771
v 0.148276 -0.104278 0.207880
v 0.155010 -0.079631 0.157338
v 0.131780 -0.079925 0.111744
v 0.095599 -0.080383 0.075560
v 0.050008 -0.080959 0.052328
v -0.000530 -0.081598 0.044323
v -0.051067 -0.082237 0.052328
v -0.096658 -0.082814 0.075560
v -0.132839 -0.083272 0.111744
v -0.156069 -0.083565 0.157338
v -0.164074 -0.083667 0.207880
v -0.156069 -0.083565 0.258422
v -0.132839 -0.083272 0.304017
v -0.096658 -0.082814 0.340201
v -0.051067 -0.082237 0.363432
v -0.000530 -0.081598 0.371437
v 0.050008 -0.080959 0.363432
v 0.095599 -0.080383 0.340201
v 0.131780 -0.079925 0.304017
v 0.155010 -0.079631 0.258422
v 0.163014 -0.079530 0.207880
v 0.165156 -0.052889 0.153932
v 0.140361 -0.053202 0.105265
v 0.101741 -0.053691 0.066642
v 0.053078 -0.054306 0.041845
v -0.000866 -0.054989 0.033300
v -0.054810 -0.055671 0.041845
v -0.103474 -0.056286 0.066642
v -0.142093 -0.056774 0.105265
v -0.166888 -0.057088 0.153932
v -0.175432 -0.057196 0.207880
v -0.166888 -0.057088 0.261829
v -0.142093 -0.056774 0.310496
v -0.103474 -0.056286 0.349119
v -0.054810 -0.055671 0.373916
v -0.000866 -0.054988 0.382460
v 0.053078 -0.054306 0.373916
v 0.101741 -0.053691 0.349119
v 0.140361 -0.053202 0.310496
v 0.165156 -0.052889 0.261829
v 0.173700 -0.052781 0.207880
v 0.171197 -0.024802 0.151854
v 0.145446 -0.025127 0.101312
v 0.105339 -0.025634 0.061202
v 0.054801 -0.026274 0.035450
v -0.001220 -0.026982 0.026576
v -0.057242 -0.027691 0.035450
v -0.107780 -0.028330 0.061202
v -0.147887 -0.028837 0.101312
v -0.173637 -0.029162 0.151854
v -0.182510 -0.029275 0.207880
v -0.173637 -0.029162 0.263906
v -0.147887 -0.028837 0.314448
v -0.107780 -0.028330 0.354559
v -0.057242 -0.027690 0.380311
v -0.001220 -0.026982 0.389185
v 0.054801 -0.026273 0.380311
v 0.105339 -0.025634 0.354559
v 0.145446 -0.025127 0.314448
v 0.171197 -0.024802 0.263906
v 0.180069 -0.024689 0.207880
v 0.172983 0.003939 0.151156
v 0.146911 0.003609 0.099984
v 0.106304 0.003096 0.059374
v 0.055137 0.002449 0.033300
v -0.001583 0.001731 0.024316
v -0.058303 0.001014 0.033300
v -0.109471 0.000367 0.059374
v -0.150078 -0.000146 0.099984
v -0.176150 -0.000476 0.151156
v -0.185133 -0.000590 0.207880
v -0.176150 -0.000476 0.264605
v -0.150078 -0.000146 0.315777
v -0.109471 0.000367 0.356387
v -0.058303 0.001014 0.382460
v -0.001583 0.001732 0.391445
v 0.055136 0.002449 0.382460
v 0.106304 0.003096 0.356387
v 0.146911 0.003609 0.315777
v 0.172983 0.003939 0.264605
v 0.181966 0.004053 0.207880
v 0.170470 0.032625 0.151854
v 0.144720 0.032300 0.101312
v 0.104613 0.031792 0.061202
v 0.054075 0.031153 0.035450
v -0.001947 0.030445 0.026576
v -0.057968 0.029736 0.035450
v -0.108506 0.029097 0.061202
v -0.148613 0.028590 0.101312
v -0.174363 0.028264 0.151854
v -0.183236 0.028152 0.207880
v -0.174363 0.028265 0.263906
v -0.148613 0.028590 0.314448
v -0.108506 0.029097 0.354559
v -0.057968 0.029737 0.380311
v -0.001947 0.030445 0.389185
v 0.054075 0.031153 0.380311
v 0.104613 0.031793 0.354559
v 0.144720 0.032300 0.314448
v 0.170470 0.032625 0.263906
v 0.179343 0.032738 0.207880
v 0.163722 0.060551 0.153932
v 0.138926 0.060237 0.105265
v 0.100307 0.059749 0.066642
v 0.051643 0.059134 0.041845
v -0.002301 0.058451 0.033300
v -0.056245 0.057769 0.041845
v -0.104908 0.057154 0.066642
v -0.143528 0.056665 0.105265
v -0.168323 0.056352 0.153932
v -0.176867 0.056244 0.207880
v -0.168323 0.056352 0.261829
v -0.143528 0.056665 0.310496
v -0.104908 0.057154 0.349119
v -0.056245 0.057769 0.373916
v -0.002301 0.058451 0.382460
v 0.051643 0.059134 0.373916
v 0.100307 0.059749 0.349118
v 0.138926 0.060237 0.310496
v 0.163721 0.060551 0.261829
v 0.172265 0.060659 0.207880
v 0.152902 0.087028 0.157338
v 0.129673 0.086734 0.111744
v 0.093491 0.086277 0.075560
v 0.047901 0.085700 0.052328
v -0.002637 0.085061 0.044323
v -0.053175 0.084422 0.052328
v -0.098766 0.083846 0.075560
v -0.134947 0.083388 0.111744
v -0.158177 0.083094 0.157338
v -0.166181 0.082993 0.207880
v -0.158177 0.083094 0.258422
v -0.134947 0.083388 0.304017
v -0.098766 0.083846 0.340201
v -0.053175 0.084422 0.363432
v -0.002637 0.085061 0.371437
v 0.047901 0.085700 0.363432
v 0.093491 0.086277 0.340201
v 0.129673 0.086735 0.304017
v 0.152902 0.087028 0.258422
v 0.160907 0.087129 0.207880
v 0.138279 0.111405 0.161989
v 0.117187 0.111138 0.120590
v 0.084335 0.110723 0.087736
v 0.042940 0.110199 0.066642
v -0.002948 0.109619 0.059374
v -0.048835 0.109039 0.066642
v -0.090231 0.108515 0.087736
v -0.123083 0.108100 0.120590
v -0.144175 0.107833 0.161989
v -0.151443 0.107741 0.207880
v -0.144175 0.107833 0.253771
v -0.123083 0.108100 0.295170
v -0.090231 0.108515 0.328025
v -0.048835 0.109039 0.349118
v -0.002948 0.109619 0.356387
v 0.042940 0.110200 0.349118
v 0.084335 0.110723 0.328025
v 0.117187 0.111139 0.295170
v 0.138279 0.111405 0.253771
v 0.145547 0.111497 0.207880
v 0.120212 0.133082 0.167770
v 0.101777 0.132849 0.131586
v 0.073063 0.132485 0.102870
v 0.036882 0.132028 0.084434
v -0.003225 0.131521 0.078081
v -0.043332 0.131013 0.084434
v -0.079513 0.130556 0.102870
v -0.108226 0.130193 0.131586
v -0.126662 0.129960 0.167770
v -0.133014 0.129879 0.207880
v -0.126662 0.129960 0.247991
v -0.108226 0.130193 0.284175
v -0.079513 0.130556 0.312890
v -0.043332 0.131013 0.331327
v -0.003225 0.131521 0.337680
v 0.036882 0.132028 0.331327
v 0.073063 0.132485 0.312890
v 0.101777 0.132849 0.284175
v 0.120212 0.133082 0.247991
v 0.126564 0.133162 0.207880
v 0.099146 0.151524 0.174538
v 0.083822 0.151330 0.144460
v 0.059954 0.151028 0.120590
v 0.029878 0.150648 0.105265
v -0.003461 0.150226 0.099984
v -0.036801 0.149805 0.105265
v -0.066876 0.149424 0.120590
v -0.090744 0.149122 0.144460
v -0.106069 0.148929 0.174538
v -0.111349 0.148862 0.207880
v -0.106069 0.148929 0.241222
v -0.090744 0.149122 0.271300
v -0.066876 0.149424 0.295170
v -0.036801 0.149805 0.310496
v -0.003461 0.150226 0.315777
v 0.029878 0.150648 0.310496
v 0.059953 0.151028 0.295170
v 0.083822 0.151330 0.271300
v 0.099146 0.151524 0.241222
v 0.104426 0.151591 0.207880
v 0.075600 0.166278 0.182128
v 0.063764 0.166128 0.158896
v 0.045328 0.165895 0.140460
v 0.022099 0.165601 0.128623
v -0.003652 0.165275 0.124544
v -0.029402 0.164950 0.128623
v -0.052632 0.164656 0.140460
v -0.071067 0.164423 0.158896
v -0.082903 0.164273 0.182128
v -0.086981 0.164222 0.207880
v -0.082903 0.164273 0.233633
v -0.071067 0.164423 0.256864
v -0.052632 0.164656 0.275301
v -0.029402 0.164950 0.287138
v -0.003652 0.165275 0.291217
v 0.022099 0.165601 0.287138
v 0.045328 0.165895 0.275301
v 0.063764 0.166128 0.256864
v 0.075600 0.166278 0.233633
v 0.079678 0.166329 0.207880
v 0.050153 0.176980 0.190351
v 0.042096 0.176878 0.174538
v 0.029548 0.176719 0.161989
v 0.013736 0.176519 0.153932
v -0.003791 0.176298 0.151156
v -0.021319 0.176076 0.153932
v -0.037130 0.175876 0.161989
v -0.049678 0.175717 0.174538
v -0.057735 0.175615 0.190351
v -0.060511 0.175580 0.207880
v -0.057735 0.175615 0.225409
v -0.049678 0.175717 0.241222
v -0.037130 0.175876 0.253771
v -0.021318 0.176076 0.261828
v -0.003791 0.176298 0.264605
v 0.013736 0.176519 0.261828
v 0.029548 0.176719 0.253771
v 0.042096 0.176878 0.241222
v 0.050153 0.176980 0.225409
v 0.052929 0.177015 0.207880
v 0.023432 0.183367 0.199007
v 0.019354 0.183315 0.191002
v 0.013001 0.183235 0.184649
v 0.004997 0.183133 0.180570
v -0.003876 0.183021 0.179164
v -0.012749 0.182909 0.180570
v -0.020753 0.182808 0.184649
v -0.027106 0.182728 0.191002
v -0.031184 0.182676 0.199007
v -0.032590 0.182658 0.207880
v -0.031184 0.182676 0.216754
v -0.027106 0.182728 0.224759
v -0.020753 0.182808 0.231112
v -0.012749 0.182909 0.235191
v -0.003876 0.183021 0.236596
v 0.004997 0.183134 0.235191
v 0.013001 0.183235 0.231112
v 0.019354 0.183315 0.224759
v 0.023432 0.183367 0.216754
v 0.024837 0.183384 0.207880
v 0.000738 -0.181818 0.207880
v -0.003905 0.185281 0.207880
vn 0.2029 -0.9772 -0.0619
vn 0.1745 -0.9776 -0.1178
vn 0.2818 -0.9392 -0.1961
vn 0.3291 -0.9386 -0.1031
vn 0.1301 -0.9782 -0.1621
vn 0.2080 -0.9402 -0.2699
vn 0.0743 -0.9789 -0.1905
vn 0.1150 -0.9413 -0.3173
vn 0.0124 -0.9796 -0.2003
vn 0.0119 -0.9426 -0.3336
vn -0.0495 -0.9804 -0.1905
vn -0.0912 -0.9439 -0.3173
vn -0.1054 -0.9811 -0.1621
vn -0.1841 -0.9451 -0.2699
vn -0.1497 -0.9817 -0.1178
vn -0.2579 -0.9461 -0.1961
vn -0.1781 -0.9821 -0.0619
vn -0.3053 -0.9467 -0.1031
vn -0.1879 -0.9822 -0.0000
vn -0.3216 -0.9469 -0.0000
vn -0.1781 -0.9821 0.0619
vn -0.3053 -0.9467 0.1031
vn -0.1497 -0.9817 0.1178
vn -0.2579 -0.9461 0.1961
vn -0.1054 -0.9811 0.1621
vn -0.1841 -0.9451 0.2699
vn -0.0495 -0.9804 0.1905
vn -0.0912 -0.9439 0.3173
vn 0.0124 -0.9796 0.2003
vn 0.0119 -0.9426 0.3336
vn 0.0743 -0.9789 0.1905
vn 0.1150 -0.9413 0.3173
vn 0.1301 -0.9782 0.1621
vn 0.2080 -0.9402 0.2699
vn 0.1745 -0.9776 0.1178
vn 0.2818 -0.9392 0.1961
vn 0.2029 -0.9772 0.0619
vn 0.3291 -0.9386 0.1031
vn 0.2127 -0.9771 -0.0000
vn 0.3455 -0.9384 -0.0000
vn 0.3920 -0.8774 -0.2767
vn 0.4588 -0.8765 -0.1455
vn 0.2878 -0.8787 -0.3808
vn 0.1566 -0.8804 -0.4477
vn 0.0112 -0.8822 -0.4708
vn -0.1343 -0.8840 -0.4477
vn -0.2655 -0.8857 -0.3808
vn -0.3697 -0.8870 -0.2767
vn -0.4365 -0.8879 -0.1455
vn -0.4596 -0.8881 -0.0000
vn -0.4365 -0.8879 0.1455
vn -0.3697 -0.8870 0.2767
vn -0.2655 -0.8857 0.3808
vn -0.1343 -0.8840 0.4477
vn 0.0112 -0.8822 0.4708
vn 0.1566 -0.8804 0.4477
vn 0.2878 -0.8787 0.3808
vn 0.3920 -0.8774 0.2767
vn 0.4588 -0.8765 0.1455
vn 0.4819 -0.8762 -0.0000
vn 0.4952 -0.7941 -0.3525
vn 0.5804 -0.7930 -0.1853
vn 0.3626 -0.7957 -0.4851
vn 0.1954 -0.7978 -0.5703
vn 0.0101 -0.8002 -0.5997
vn -0.1752 -0.8025 -0.5703
vn -0.3423 -0.8047 -0.4851
vn -0.4750 -0.8063 -0.3525
vn -0.5601 -0.8074 -0.1853
vn -0.5895 -0.8078 -0.0000
vn -0.5601 -0.8074 0.1853
vn -0.4750 -0.8063 0.3525
vn -0.3423 -0.8047 0.4851
vn -0.1752 -0.8025 0.5703
vn 0.0101 -0.8002 0.5997
vn 0.1954 -0.7978 0.5703
vn 0.3626 -0.7957 0.4852
vn 0.4952 -0.7940 0.3525
vn 0.5804 -0.7930 0.1853
vn 0.6097 -0.7926 -0.0000
vn 0.5875 -0.6914 -0.4205
vn 0.6891 -0.6901 -0.2210
vn 0.4293 -0.6934 -0.5787
vn 0.2299 -0.6959 -0.6803
vn 0.0088 -0.6987 -0.7153
vn -0.2122 -0.7015 -0.6803
vn -0.4116 -0.7041 -0.5787
vn -0.5698 -0.7061 -0.4205
vn -0.6714 -0.7073 -0.2210
vn -0.7064 -0.7078 -0.0000
vn -0.6714 -0.7073 0.2210
vn -0.5698 -0.7061 0.4205
vn -0.4116 -0.7041 0.5787
vn -0.2122 -0.7015 0.6803
vn 0.0088 -0.6987 0.7153
vn 0.2299 -0.6959 0.6803
vn 0.4293 -0.6934 0.5787
vn 0.5875 -0.6914 0.4205
vn 0.6891 -0.6901 0.2210
vn 0.7241 -0.6897 -0.0000
vn 0.6661 -0.5720 -0.4787
vn 0.7817 -0.5706 -0.2516
vn 0.4860 -0.5743 -0.6588
vn 0.2590 -0.5772 -0.7745
vn 0.0073 -0.5804 -0.8143
vn -0.2443 -0.5835 -0.7745
vn -0.4713 -0.5864 -0.6588
vn -0.6514 -0.5887 -0.4787
vn -0.7671 -0.5901 -0.2516
vn -0.8069 -0.5906 -0.0000
vn -0.7671 -0.5901 0.2516
vn -0.6514 -0.5887 0.4787
vn -0.4713 -0.5864 0.6588
vn -0.2443 -0.5835 0.7745
vn 0.0073 -0.5804 0.8143
vn 0.2590 -0.5772 0.7745
vn 0.4860 -0.5743 0.6588
vn 0.6661 -0.5720 0.4787
vn 0.7818 -0.5706 0.2516
vn 0.8216 -0.5701 -0.0000
vn 0.7289 -0.4388 -0.5255
vn 0.8559 -0.4372 -0.2763
vn 0.5311 -0.4413 -0.7233
vn 0.2819 -0.4445 -0.8503
vn 0.0057 -0.4479 -0.8940
vn -0.2706 -0.4514 -0.8503
vn -0.5198 -0.4546 -0.7233
vn -0.7176 -0.4571 -0.5255
vn -0.8445 -0.4587 -0.2763
vn -0.8883 -0.4593 -0.0000
vn -0.8445 -0.4587 0.2763
vn -0.7176 -0.4571 0.5255
vn -0.5198 -0.4546 0.7233
vn -0.2706 -0.4515 0.8503
vn 0.0057 -0.4480 0.8940
vn 0.2819 -0.4445 0.8503
vn 0.5311 -0.4413 0.7233
vn 0.7289 -0.4388 0.5255
vn 0.8559 -0.4372 0.2763
vn 0.8996 -0.4367 -0.0000
vn 0.7743 -0.2950 -0.5598
vn 0.9096 -0.2934 -0.2943
vn 0.5636 -0.2977 -0.7705
vn 0.2981 -0.3011 -0.9058
vn 0.0039 -0.3048 -0.9524
vn -0.2904 -0.3085 -0.9058
vn -0.5559 -0.3118 -0.7705
vn -0.7666 -0.3146 -0.5598
vn -0.9019 -0.3162 -0.2943
vn -0.9485 -0.3169 -0.0000
vn -0.9019 -0.3163 0.2943
vn -0.7666 -0.3145 0.5598
vn -0.5559 -0.3119 0.7705
vn -0.2904 -0.3085 0.9058
vn 0.0039 -0.3048 0.9524
vn 0.2981 -0.3011 0.9058
vn 0.5636 -0.2977 0.7705
vn 0.7743 -0.2951 0.5598
vn 0.9096 -0.2934 0.2943
vn 0.9562 -0.2927 -0.0000
vn 0.8012 -0.1442 -0.5807
vn 0.9416 -0.1423 -0.3053
vn 0.5826 -0.1471 -0.7993
vn 0.3072 -0.1505 -0.9397
vn 0.0020 -0.1543 -0.9880
vn -0.3033 -0.1582 -0.9397
vn -0.5788 -0.1616 -0.7993
vn -0.7973 -0.1645 -0.5807
vn -0.9376 -0.1661 -0.3053
vn -0.9860 -0.1667 -0.0000
vn -0.9376 -0.1662 0.3053
vn -0.7973 -0.1644 0.5807
vn -0.5787 -0.1617 0.7993
vn -0.3033 -0.1581 0.9397
vn 0.0020 -0.1543 0.9880
vn 0.3072 -0.1505 0.9397
vn 0.5827 -0.1469 0.7993
vn 0.8012 -0.1442 0.5807
vn 0.9415 -0.1424 0.3053
vn 0.9899 -0.1417 -0.0000
vn 0.8090 0.0102 -0.5878
vn 0.9510 0.0120 -0.3090
vn 0.5877 0.0074 -0.8090
vn 0.3090 0.0039 -0.9511
vn -0.0000 -0.0000 -1.0000
vn -0.3090 -0.0039 -0.9511
vn -0.5877 -0.0074 -0.8090
vn -0.8090 -0.0102 -0.5878
vn -0.9510 -0.0120 -0.3090
vn -0.9999 -0.0126 -0.0000
vn -0.9510 -0.0120 0.3090
vn -0.8090 -0.0102 0.5878
vn -0.5877 -0.0074 0.8090
vn -0.3090 -0.0039 0.9511
vn -0.0000 -0.0000 1.0000
vn 0.3090 0.0039 0.9511
vn 0.5877 0.0074 0.8090
vn 0.8090 0.0102 0.5878
vn 0.9510 0.0120 0.3090
vn 0.9999 0.0126 -0.0000
vn 0.7973 0.1644 -0.5807
vn 0.9376 0.1661 -0.3053
vn 0.5787 0.1618 -0.7993
vn 0.3033 0.1582 -0.9397
vn -0.0020 0.1543 -0.9880
vn -0.3072 0.1505 -0.9397
vn -0.5827 0.1469 -0.7993
vn -0.8012 0.1442 -0.5807
vn -0.9415 0.1424 -0.3053
vn -0.9899 0.1417 -0.0000
vn -0.9415 0.1424 0.3053
vn -0.8012 0.1442 0.5807
vn -0.5827 0.1469 0.7993
vn -0.3072 0.1504 0.9397
vn -0.0020 0.1543 0.9880
vn 0.3033 0.1581 0.9397
vn 0.5787 0.1618 0.7993
vn 0.7973 0.1644 0.5807
vn 0.9376 0.1661 0.3053
vn 0.9860 0.1667 -0.0000
vn 0.7666 0.3145 -0.5598
vn 0.9019 0.3163 -0.2943
vn 0.5559 0.3119 -0.7705
vn 0.2904 0.3085 -0.9058
vn -0.0039 0.3048 -0.9524
vn -0.2981 0.3010 -0.9058
vn -0.5636 0.2977 -0.7705
vn -0.7743 0.2950 -0.5598
vn -0.9096 0.2933 -0.2943
vn -0.9562 0.2928 -0.0000
vn -0.9096 0.2934 0.2943
vn -0.7743 0.2951 0.5598
vn -0.5636 0.2977 0.7705
vn -0.2981 0.3011 0.9058
vn -0.0039 0.3048 0.9524
vn 0.2904 0.3085 0.9058
vn 0.5559 0.3118 0.7705
vn 0.7666 0.3145 0.5598
vn 0.9019 0.3163 0.2943
vn 0.9485 0.3169 -0.0000
vn 0.7176 0.4571 -0.5255
vn 0.8445 0.4587 -0.2763
vn 0.5198 0.4546 -0.7233
vn 0.2706 0.4515 -0.8503
vn -0.0057 0.4479 -0.8940
vn -0.2819 0.4444 -0.8503
vn -0.5311 0.4413 -0.7233
vn -0.7289 0.4388 -0.5255
vn -0.8559 0.4372 -0.2763
vn -0.8996 0.4367 -0.0000
vn -0.8559 0.4372 0.2763
vn -0.7289 0.4388 0.5255
vn -0.5311 0.4413 0.7233
vn -0.2819 0.4445 0.8503
vn -0.0057 0.4480 0.8940
vn 0.2706 0.4514 0.8503
vn 0.5198 0.4546 0.7233
vn 0.7176 0.4571 0.5255
vn 0.8446 0.4587 0.2763
vn 0.8883 0.4592 -0.0000
vn 0.6514 0.5887 -0.4787
vn 0.7671 0.5901 -0.2516
vn 0.4713 0.5864 -0.6588
vn 0.2443 0.5835 -0.7745
vn -0.0073 0.5804 -0.8143
vn -0.2590 0.5772 -0.7745
vn -0.4860 0.5743 -0.6588
vn -0.6661 0.5720 -0.4787
vn -0.7818 0.5706 -0.2516
vn -0.8216 0.5701 -0.0000
vn -0.7818 0.5706 0.2516
vn -0.6661 0.5720 0.4787
vn -0.4860 0.5743 0.6588
vn -0.2590 0.5772 0.7745
vn -0.0073 0.5804 0.8143
vn 0.2443 0.5836 0.7744
vn 0.4713 0.5864 0.6588
vn 0.6514 0.5887 0.4787
vn 0.7671 0.5901 0.2516
vn 0.8069 0.5906 -0.0000
vn 0.5698 0.7061 -0.4205
vn 0.6714 0.7073 -0.2210
vn 0.4116 0.7041 -0.5787
vn 0.2122 0.7015 -0.6803
vn -0.0088 0.6987 -0.7153
vn -0.2299 0.6959 -0.6803
vn -0.4293 0.6934 -0.5787
vn -0.5875 0.6914 -0.4205
vn -0.6891 0.6902 -0.2210
vn -0.7241 0.6897 -0.0000
vn -0.6891 0.6901 0.2210
vn -0.5875 0.6914 0.4205
vn -0.4293 0.6934 0.5787
vn -0.2299 0.6959 0.6803
vn -0.0088 0.6987 0.7153
vn 0.2122 0.7015 0.6803
vn 0.4116 0.7041 0.5787
vn 0.5698 0.7061 0.4205
vn 0.6714 0.7073 0.2210
vn 0.7064 0.7078 -0.0000
vn 0.4750 0.8063 -0.3525
vn 0.5602 0.8074 -0.1853
vn 0.3423 0.8046 -0.4852
vn 0.1752 0.8025 -0.5703
vn -0.0101 0.8002 -0.5996
vn -0.1954 0.7979 -0.5703
vn -0.3626 0.7957 -0.4852
vn -0.4952 0.7940 -0.3525
vn -0.5804 0.7930 -0.1853
vn -0.6098 0.7926 -0.0000
vn -0.5804 0.7930 0.1853
vn -0.4952 0.7941 0.3525
vn -0.3626 0.7957 0.4852
vn -0.1954 0.7979 0.5703
vn -0.0101 0.8002 0.5996
vn 0.1752 0.8025 0.5703
vn 0.3423 0.8047 0.4851
vn 0.4750 0.8063 0.3525
vn 0.5601 0.8074 0.1853
vn 0.5895 0.8078 -0.0000
vn 0.3697 0.8870 -0.2767
vn 0.4365 0.8879 -0.1455
vn 0.2655 0.8857 -0.3808
vn 0.1343 0.8840 -0.4477
vn -0.0112 0.8822 -0.4708
vn -0.1566 0.8804 -0.4477
vn -0.2878 0.8787 -0.3808
vn -0.3920 0.8774 -0.2767
vn -0.4588 0.8765 -0.1455
vn -0.4819 0.8762 -0.0000
vn -0.4588 0.8765 0.1455
vn -0.3920 0.8774 0.2767
vn -0.2878 0.8787 0.3808
vn -0.1566 0.8804 0.4477
vn -0.0112 0.8822 0.4708
vn 0.1343 0.8840 0.4477
vn 0.2655 0.8857 0.3808
vn 0.3697 0.8870 0.2767
vn 0.4365 0.8879 0.1455
vn 0.4596 0.8881 -0.0000
vn 0.2579 0.9461 -0.1961
vn 0.3053 0.9467 -0.1031
vn 0.1841 0.9451 -0.2699
vn 0.0912 0.9439 -0.3173
vn -0.0119 0.9426 -0.3336
vn -0.1150 0.9413 -0.3173
vn -0.2080 0.9402 -0.2699
vn -0.2818 0.9392 -0.1961
vn -0.3291 0.9386 -0.1031
vn -0.3455 0.9384 -0.0000
vn -0.3291 0.9386 0.1031
vn -0.2818 0.9392 0.1961
vn -0.2080 0.9402 0.2699
vn -0.1150 0.9413 0.3173
vn -0.0119 0.9426 0.3336
vn 0.0912 0.9439 0.3173
vn 0.1841 0.9451 0.2699
vn 0.2579 0.9461 0.1961
vn 0.3053 0.9467 0.1031
vn 0.3216 0.9469 -0.0000
vn 0.1497 0.9817 -0.1178
vn 0.1781 0.9821 -0.0619
vn 0.1054 0.9811 -0.1621
vn 0.0495 0.9804 -0.1905
vn -0.0124 0.9796 -0.2003
vn -0.0743 0.9789 -0.1905
vn -0.1301 0.9782 -0.1621
vn -0.1745 0.9776 -0.1178
vn -0.2029 0.9772 -0.0619
vn -0.2127 0.9771 -0.0000
vn -0.2029 0.9772 0.0619
vn -0.1745 0.9776 0.1178
vn -0.1301 0.9782 0.1621
vn -0.0743 0.9789 0.1905
vn -0.0124 0.9796 0.2003
vn 0.0495 0.9804 0.1905
vn 0.1054 0.9811 0.1621
vn 0.1497 0.9817 0.1178
vn 0.1781 0.9821 0.0619
vn 0.1879 0.9822 -0.0000
vn 0.0126 -0.9999 -0.0000
vn -0.0126 0.9999 -0.0000
vt 0.000000 0.050000
vt 0.050000 0.050000
vt 0.050000 0.100000
vt 0.000000 0.100000
vt 0.100000 0.050000
vt 0.100000 0.100000
vt 0.150000 0.050000
vt 0.150000 0.100000
vt 0.200000 0.050000
vt 0.200000 0.100000
vt 0.250000 0.050000
vt 0.250000 0.100000
vt 0.300000 0.050000
vt 0.300000 0.100000
vt 0.350000 0.050000
vt 0.350000 0.100000
vt 0.400000 0.050000
vt 0.400000 0.100000
vt 0.450000 0.050000
vt 0.450000 0.100000
vt 0.500000 0.050000
vt 0.500000 0.100000
vt 0.550000 0.050000
vt 0.550000 0.100000
vt 0.600000 0.050000
vt 0.600000 0.100000
vt 0.650000 0.050000
vt 0.650000 0.100000
vt 0.700000 0.050000
vt 0.700000 0.100000
vt 0.750000 0.050000
vt 0.750000 0.100000
vt 0.800000 0.050000
vt 0.800000 0.100000
vt 0.850000 0.050000
vt 0.850000 0.100000
vt 0.900000 0.050000
vt 0.900000 0.100000
vt 0.950000 0.050000
vt 0.950000 0.100000
vt 1.000000 0.050000
vt 1.000000 0.100000
vt 0.050000 0.150000
vt 0.000000 0.150000
vt 0.100000 0.150000
vt 0.150000 0.150000
vt 0.200000 0.150000
vt 0.250000 0.150000
vt 0.300000 0.150000
vt 0.350000 0.150000
vt 0.400000 0.150000
vt 0.450000 0.150000
vt 0.500000 0.150000
vt 0.550000 0.150000
vt 0.600000 0.150000
vt 0.650000 0.150000
vt 0.700000 0.150000
vt 0.750000 0.150000
vt 0.800000 0.150000
vt 0.850000 0.150000
vt 0.900000 0.150000
vt 0.950000 0.150000
vt 1.000000 0.150000
vt 0.050000 0.200000
vt 0.000000 0.200000
vt 0.100000 0.200000
vt 0.150000 0.200000
vt 0.200000 0.200000
vt 0.250000 0.200000
vt 0.300000 0.200000
vt 0.350000 0.200000
vt 0.400000 0.200000
vt 0.450000 0.200000
vt 0.500000 0.200000
vt 0.550000 0.200000
vt 0.600000 0.200000
vt 0.650000 0.200000
vt 0.700000 0.200000
vt 0.750000 0.200000
vt 0.800000 0.200000
vt 0.850000 0.200000
vt 0.900000 0.200000
vt 0.950000 0.200000
vt 1.000000 0.200000
vt 0.050000 0.250000
vt 0.000000 0.250000
vt 0.100000 0.250000
vt 0.150000 0.250000
vt 0.200000 0.250000
vt 0.250000 0.250000
vt 0.300000 0.250000
vt 0.350000 0.250000
vt 0.400000 0.250000
vt 0.450000 0.250000
vt 0.500000 0.250000
vt 0.550000 0.250000
vt 0.600000 0.250000
vt 0.650000 0.250000
vt 0.700000 0.250000
vt 0.750000 0.250000
vt 0.800000 0.250000
vt 0.850000 0.250000
vt 0.900000 0.250000
vt 0.950000 0.250000
vt 1.000000 0.250000
vt 0.050000 0.300000
vt 0.000000 0.300000
vt 0.100000 0.300000
vt 0.150000 0.300000
vt 0.200000 0.300000
vt 0.250000 0.300000
vt 0.300000 0.300000
vt 0.350000 0.300000
vt 0.400000 0.300000
vt 0.450000 0.300000
vt 0.500000 0.300000
vt 0.550000 0.300000
vt 0.600000 0.300000
vt 0.650000 0.300000
vt 0.700000 0.300000
vt 0.750000 0.300000
vt 0.800000 0.300000
vt 0.850000 0.300000
vt 0.900000 0.300000
vt 0.950000 0.300000
vt 1.000000 0.300000
vt 0.050000 0.350000
vt 0.000000 0.350000
vt 0.100000 0.350000
vt 0.150000 0.350000
vt 0.200000 0.350000
vt 0.250000 0.350000
vt 0.300000 0.350000
vt 0.350000 0.350000
vt 0.400000 0.350000
vt 0.450000 0.350000
vt 0.500000 0.350000
vt 0.550000 0.350000
vt 0.600000 0.350000
vt 0.650000 0.350000
vt 0.700000 0.350000
vt 0.750000 0.350000
vt 0.800000 0.350000
vt 0.850000 0.350000
vt 0.900000 0.350000
vt 0.950000 0.350000
vt 1.000000 0.350000
vt 0.050000 0.400000
vt 0.000000 0.400000
vt 0.100000 0.400000
vt 0.150000 0.400000
vt 0.200000 0.400000
vt 0.250000 0.400000
vt 0.300000 0.400000
vt 0.350000 0.400000
vt 0.400000 0.400000
vt 0.450000 0.400000
vt 0.500000 0.400000
vt 0.550000 0.400000
vt 0.600000 0.400000
vt 0.650000 0.400000
vt 0.700000 0.400000
vt 0.750000 0.400000
vt 0.800000 0.400000
vt 0.850000 0.400000
vt 0.900000 0.400000
vt 0.950000 0.400000
vt 1.000000 0.400000
vt 0.050000 0.450000
vt 0.000000 0.450000
vt 0.100000 0.450000
vt 0.150000 0.450000
vt 0.200000 0.450000
vt 0.250000 0.450000
vt 0.300000 0.450000
vt 0.350000 0.450000
vt 0.400000 0.450000
vt 0.450000 0.450000
vt 0.500000 0.450000
vt 0.550000 0.450000
vt 0.600000 0.450000
vt 0.650000 0.450000
vt 0.700000 0.450000
vt 0.750000 0.450000
vt 0.800000 0.450000
vt 0.850000 0.450000
vt 0.900000 0.450000
vt 0.950000 0.450000
vt 1.000000 0.450000
vt 0.050000 0.500000
vt 0.000000 0.500000
vt 0.100000 0.500000
vt 0.150000 0.500000
vt 0.200000 0.500000
vt 0.250000 0.500000
vt 0.300000 0.500000
vt 0.350000 0.500000
vt 0.400000 0.500000
vt 0.450000 0.500000
vt 0.500000 0.500000
vt 0.550000 0.500000
vt 0.600000 0.500000
vt 0.650000 0.500000
vt 0.700000 0.500000
vt 0.750000 0.500000
vt 0.800000 0.500000
vt 0.850000 0.500000
vt 0.900000 0.500000
vt 0.950000 0.500000
vt 1.000000 0.500000
vt 0.050000 0.550000
vt 0.000000 0.550000
vt 0.100000 0.550000
vt 0.150000 0.550000
vt 0.200000 0.550000
vt 0.250000 0.550000
vt 0.300000 0.550000
vt 0.350000 0.550000
vt 0.400000 0.550000
vt 0.450000 0.550000
vt 0.500000 0.550000
vt 0.550000 0.550000
vt 0.600000 0.550000
vt 0.650000 0.550000
vt 0.700000 0.550000
vt 0.750000 0.550000
vt 0.800000 0.550000
vt 0.850000 0.550000
vt 0.900000 0.550000
vt 0.950000 0.550000
vt 1.000000 0.550000
vt 0.050000 0.600000
vt 0.000000 0.600000
vt 0.100000 0.600000
vt 0.150000 0.600000
vt 0.200000 0.600000
vt 0.250000 0.600000
vt 0.300000 0.600000
vt 0.350000 0.600000
vt 0.400000 0.600000
vt 0.450000 0.600000
vt 0.500000 0.600000
vt 0.550000 0.600000
vt 0.600000 0.600000
vt 0.650000 0.600000
vt 0.700000 0.600000
vt 0.750000 0.600000
vt 0.800000 0.600000
vt 0.850000 0.600000
vt 0.900000 0.600000
vt 0.950000 0.600000
vt 1.000000 0.600000
vt 0.050000 0.650000
vt 0.000000 0.650000
vt 0.100000 0.650000
vt 0.150000 0.650000
vt 0.200000 0.650000
vt 0.250000 0.650000
vt 0.300000 0.650000
vt 0.350000 0.650000
vt 0.400000 0.650000
vt 0.450000 0.650000
vt 0.500000 0.650000
vt 0.550000 0.650000
vt 0.600000 0.650000
vt 0.650000 0.650000
vt 0.700000 0.650000
vt 0.750000 0.650000
vt 0.800000 0.650000
vt 0.850000 0.650000
vt 0.900000 0.650000
vt 0.950000 0.650000
vt 1.000000 0.650000
vt 0.050000 0.700000
vt 0.000000 0.700000
vt 0.100000 0.700000
vt 0.150000 0.700000
vt 0.200000 0.700000
vt 0.250000 0.700000
vt 0.300000 0.700000
vt 0.350000 0.700000
vt 0.400000 0.700000
vt 0.450000 0.700000
vt 0.500000 0.700000
vt 0.550000 0.700000
vt 0.600000 0.700000
vt 0.650000 0.700000
vt 0.700000 0.700000
vt 0.750000 0.700000
vt 0.800000 0.700000
vt 0.850000 0.700000
vt 0.900000 0.700000
vt 0.950000 0.700000
vt 1.000000 0.700000
vt 0.050000 0.750000
vt 0.000000 0.750000
vt 0.100000 0.750000
vt 0.150000 0.750000
vt 0.200000 0.750000
vt 0.250000 0.750000
vt 0.300000 0.750000
vt 0.350000 0.750000
vt 0.400000 0.750000
vt 0.450000 0.750000
vt 0.500000 0.750000
vt 0.550000 0.750000
vt 0.600000 0.750000
vt 0.650000 0.750000
vt 0.700000 0.750000
vt 0.750000 0.750000
vt 0.800000 0.750000
vt 0.850000 0.750000
vt 0.900000 0.750000
vt 0.950000 0.750000
vt 1.000000 0.750000
vt 0.050000 0.800000
vt 0.000000 0.800000
vt 0.100000 0.800000
vt 0.150000 0.800000
vt 0.200000 0.800000
vt 0.250000 0.800000
vt 0.300000 0.800000
vt 0.350000 0.800000
vt 0.400000 0.800000
vt 0.450000 0.800000
vt 0.500000 0.800000
vt 0.550000 0.800000
vt 0.600000 0.800000
vt 0.650000 0.800000
vt 0.700000 0.800000
vt 0.750000 0.800000
vt 0.800000 0.800000
vt 0.850000 0.800000
vt 0.900000 0.800000
vt 0.950000 0.800000
vt 1.000000 0.800000
vt 0.050000 0.850000
vt 0.000000 0.850000
vt 0.100000 0.850000
vt 0.150000 0.850000
vt 0.200000 0.850000
vt 0.250000 0.850000
vt 0.300000 0.850000
vt 0.350000 0.850000
vt 0.400000 0.850000
vt 0.450000 0.850000
vt 0.500000 0.850000
vt 0.550000 0.850000
vt 0.600000 0.850000
vt 0.650000 0.850000
vt 0.700000 0.850000
vt 0.750000 0.850000
vt 0.800000 0.850000
vt 0.850000 0.850000
vt 0.900000 0.850000
vt 0.950000 0.850000
vt 1.000000 0.850000
vt 0.050000 0.900000
vt 0.000000 0.900000
vt 0.100000 0.900000
vt 0.150000 0.900000
vt 0.200000 0.900000
vt 0.250000 0.900000
vt 0.300000 0.900000
vt 0.350000 0.900000
vt 0.400000 0.900000
vt 0.450000 0.900000
vt 0.500000 0.900000
vt 0.550000 0.900000
vt 0.600000 0.900000
vt 0.650000 0.900000
vt 0.700000 0.900000
vt 0.750000 0.900000
vt 0.800000 0.900000
vt 0.850000 0.900000
vt 0.900000 0.900000
vt 0.950000 0.900000
vt 1.000000 0.900000
vt 0.050000 0.950000
vt 0.000000 0.950000
vt 0.100000 0.950000
vt 0.150000 0.950000
vt 0.200000 0.950000
vt 0.250000 0.950000
vt 0.300000 0.950000
vt 0.350000 0.950000
vt 0.400000 0.950000
vt 0.450000 0.950000
vt 0.500000 0.950000
vt 0.550000 0.950000
vt 0.600000 0.950000
vt 0.650000 0.950000
vt 0.700000 0.950000
vt 0.750000 0.950000
vt 0.800000 0.950000
vt 0.850000 0.950000
vt 0.900000 0.950000
vt 0.950000 0.950000
vt 1.000000 0.950000
vt 0.025000 0.000000
vt 0.075000 0.000000
vt 0.125000 0.000000
vt 0.175000 0.000000
vt 0.225000 0.000000
vt 0.275000 0.000000
vt 0.325000 0.000000
vt 0.375000 0.000000
vt 0.425000 0.000000
vt 0.475000 0.000000
vt 0.525000 0.000000
vt 0.575000 0.000000
vt 0.625000 0.000000
vt 0.675000 0.000000
vt 0.725000 0.000000
vt 0.775000 0.000000
vt 0.825000 0.000000
vt 0.875000 0.000000
vt 0.925000 0.000000
vt 0.975000 0.000000
vt 0.025000 1.000000
vt 0.075000 1.000000
vt 0.125000 1.000000
vt 0.175000 1.000000
vt 0.225000 1.000000
vt 0.275000 1.000000
vt 0.325000 1.000000
vt 0.375000 1.000000
vt 0.425000 1.000000
vt 0.475000 1.000000
vt 0.525000 1.000000
vt 0.575000 1.000000
vt 0.625000 1.000000
vt 0.675000 1.000000
vt 0.725000 1.000000
vt 0.775000 1.000000
vt 0.825000 1.000000
vt 0.875000 1.000000
vt 0.925000 1.000000
vt 0.975000 1.000000
s 1
usemtl aiWireframe1.001
f 1/1/1 2/2/2 22/3/3 21/4/4
f 2/2/2 3/5/5 23/6/6 22/3/3
f 3/5/5 4/7/7 24/8/8 23/6/6
f 4/7/7 5/9/9 25/10/10 24/8/8
f 5/9/9 6/11/11 26/12/12 25/10/10
f 6/11/11 7/13/13 27/14/14 26/12/12
f 7/13/13 8/15/15 28/16/16 27/14/14
f 8/15/15 9/17/17 29/18/18 28/16/16
f 9/17/17 10/19/19 30/20/20 29/18/18
f 10/19/19 11/21/21 31/22/22 30/20/20
f 11/21/21 12/23/23 32/24/24 31/22/22
f 12/23/23 13/25/25 33/26/26 32/24/24
f 13/25/25 14/27/27 34/28/28 33/26/26
f 14/27/27 15/29/29 35/30/30 34/28/28
f 15/29/29 16/31/31 36/32/32 35/30/30
f 16/31/31 17/33/33 37/34/34 36/32/32
f 17/33/33 18/35/35 38/36/36 37/34/34
f 18/35/35 19/37/37 39/38/38 38/36/36
f 19/37/37 20/39/39 40/40/40 39/38/38
f 20/39/39 1/41/1 21/42/4 40/40/40
f 21/4/4 22/3/3 42/43/41 41/44/42
f 22/3/3 23/6/6 43/45/43 42/43/41
f 23/6/6 24/8/8 44/46/44 43/45/43
f 24/8/8 25/10/10 45/47/45 44/46/44
f 25/10/10 26/12/12 46/48/46 45/47/45
f 26/12/12 27/14/14 47/49/47 46/48/46
f 27/14/14 28/16/16 48/50/48 47/49/47
f 28/16/16 29/18/18 49/51/49 48/50/48
f 29/18/18 30/20/20 50/52/50 49/51/49
f 30/20/20 31/22/22 51/53/51 50/52/50
f 31/22/22 32/24/24 52/54/52 51/53/51
f 32/24/24 33/26/26 53/55/53 52/54/52
f 33/26/26 34/28/28 54/56/54 53/55/53
f 34/28/28 35/30/30 55/57/55 54/56/54
f 35/30/30 36/32/32 56/58/56 55/57/55
f 36/32/32 37/34/34 57/59/57 56/58/56
f 37/34/34 38/36/36 58/60/58 57/59/57
f 38/36/36 39/38/38 59/61/59 58/60/58
f 39/38/38 40/40/40 60/62/60 59/61/59
f 40/40/40 21/42/4 41/63/42 60/62/60
f 41/44/42 42/43/41 62/64/61 61/65/62
f 42/43/41 43/45/43 63/66/63 62/64/61
f 43/45/43 44/46/44 64/67/64 63/66/63
f 44/46/44 45/47/45 65/68/65 64/67/64
f 45/47/45 46/48/46 66/69/66 65/68/65
f 46/48/46 47/49/47 67/70/67 66/69/66
f 47/49/47 48/50/48 68/71/68 67/70/67
f 48/50/48 49/51/49 69/72/69 68/71/68
f 49/51/49 50/52/50 70/73/70 69/72/69
f 50/52/50 51/53/51 71/74/71 70/73/70
f 51/53/51 52/54/52 72/75/72 71/74/71
f 52/54/52 53/55/53 73/76/73 72/75/72
f 53/55/53 54/56/54 74/77/74 73/76/73
f 54/56/54 55/57/55 75/78/75 74/77/74
f 55/57/55 56/58/56 76/79/76 75/78/75
f 56/58/56 57/59/57 77/80/77 76/79/76
f 57/59/57 58/60/58 78/81/78 77/80/77
f 58/60/58 59/61/59 79/82/79 78/81/78
f 59/61/59 60/62/60 80/83/80 79/82/79
f 60/62/60 41/63/42 61/84/62 80/83/80
f 61/65/62 62/64/61 82/85/81 81/86/82
f 62/64/61 63/66/63 83/87/83 82/85/81
f 63/66/63 64/67/64 84/88/84 83/87/83
f 64/67/64 65/68/65 85/89/85 84/88/84
f 65/68/65 66/69/66 86/90/86 85/89/85
f 66/69/66 67/70/67 87/91/87 86/90/86
f 67/70/67 68/71/68 88/92/88 87/91/87
f 68/71/68 69/72/69 89/93/89 88/92/88
f 69/72/69 70/73/70 90/94/90 89/93/89
f 70/73/70 71/74/71 91/95/91 90/94/90
f 71/74/71 72/75/72 92/96/92 91/95/91
f 72/75/72 73/76/73 93/97/93 92/96/92
f 73/76/73 74/77/74 94/98/94 93/97/93
f 74/77/74 75/78/75 95/99/95 94/98/94
f 75/78/75 76/79/76 96/100/96 95/99/95
f 76/79/76 77/80/77 97/101/97 96/100/96
f 77/80/77 78/81/78 98/102/98 97/101/97
f 78/81/78 79/82/79 99/103/99 98/102/98
f 79/82/79 80/83/80 100/104/100 99/103/99
f 80/83/80 61/84/62 81/105/82 100/104/100
f 81/86/82 82/85/81 102/106/101 101/107/102
f 82/85/81 83/87/83 103/108/103 102/106/101
f 83/87/83 84/88/84 104/109/104 103/108/103
f 84/88/84 85/89/85 105/110/105 104/109/104
f 85/89/85 86/90/86 106/111/106 105/110/105
f 86/90/86 87/91/87 107/112/107 106/111/106
f 87/91/87 88/92/88 108/113/108 107/112/107
f 88/92/88 89/93/89 109/114/109 108/113/108
f 89/93/89 90/94/90 110/115/110 109/114/109
f 90/94/90 91/95/91 111/116/111 110/115/110
f 91/95/91 92/96/92 112/117/112 111/116/111
f 92/96/92 93/97/93 113/118/113 112/117/112
f 93/97/93 94/98/94 114/119/114 113/118/113
f 94/98/94 95/99/95 115/120/115 114/119/114
f 95/99/95 96/100/96 116/121/116 115/120/115
f 96/100/96 97/101/97 117/122/117 116/121/116
f 97/101/97 98/102/98 118/123/118 117/122/117
f 98/102/98 99/103/99 119/124/119 118/123/118
f 99/103/99 100/104/100 120/125/120 119/124/119
f 100/104/100 81/105/82 101/126/102 120/125/120
f 101/107/102 102/106/101 122/127/121 121/128/122
f 102/106/101 103/108/103 123/129/123 122/127/121
f 103/108/103 104/109/104 124/130/124 123/129/123
f 104/109/104 105/110/105 125/131/125 124/130/124
f 105/110/105 106/111/106 126/132/126 125/131/125
f 106/111/106 107/112/107 127/133/127 126/132/126
f 107/112/107 108/113/108 128/134/128 127/133/127
f 108/113/108 109/114/109 129/135/129 128/134/128
f 109/114/109 110/115/110 130/136/130 129/135/129
f 110/115/110 111/116/111 131/137/131 130/136/130
f 111/116/111 112/117/112 132/138/132 131/137/131
f 112/117/112 113/118/113 133/139/133 132/138/132
f 113/118/113 114/119/114 134/140/134 133/139/133
f 114/119/114 115/120/115 135/141/135 134/140/134
f 115/120/115 116/121/116 136/142/136 135/141/135
f 116/121/116 117/122/117 137/143/137 136/142/136
f 117/122/117 118/123/118 138/144/138 137/143/137
f 118/123/118 119/124/119 139/145/139 138/144/138
f 119/124/119 120/125/120 140/146/140 139/145/139
f 120/125/120 101/126/102 121/147/122 140/146/140
f 121/128/122 122/127/121 142/148/141 141/149/142
f 122/127/121 123/129/123 143/150/143 142/148/141
f 123/129/123 124/130/124 144/151/144 143/150/143
f 124/130/124 125/131/125 145/152/145 144/151/144
f 125/131/125 126/132/126 146/153/146 145/152/145
f 126/132/126 127/133/127 147/154/147 146/153/146
f 127/133/127 128/134/128 148/155/148 147/154/147
f 128/134/128 129/135/129 149/156/149 148/155/148
f 129/135/129 130/136/130 150/157/150 149/156/149
f 130/136/130 131/137/131 151/158/151 150/157/150
f 131/137/131 132/138/132 152/159/152 151/158/151
f 132/138/132 133/139/133 153/160/153 152/159/152
f 133/139/133 134/140/134 154/161/154 153/160/153
f 134/140/134 135/141/135 155/162/155 154/161/154
f 135/141/135 136/142/136 156/163/156 155/162/155
f 136/142/136 137/143/137 157/164/157 156/163/156
f 137/143/137 138/144/138 158/165/158 157/164/157
f 138/144/138 139/145/139 159/166/159 158/165/158
f 139/145/139 140/146/140 160/167/160 159/166/159
f 140/146/140 121/147/122 141/168/142 160/167/160
f 141/149/142 142/148/141 162/169/161 161/170/162
f 142/148/141 143/150/143 163/171/163 162/169/161
f 143/150/143 144/151/144 164/172/164 163/171/163
f 144/151/144 145/152/145 165/173/165 164/172/164
f 145/152/145 146/153/146 166/174/166 165/173/165
f 146/153/146 147/154/147 167/175/167 166/174/166
f 147/154/147 148/155/148 168/176/168 167/175/167
f 148/155/148 149/156/149 169/177/169 168/176/168
f 149/156/149 150/157/150 170/178/170 169/177/169
f 150/157/150 151/158/151 171/179/171 170/178/170
f 151/158/151 152/159/152 172/180/172 171/179/171
f 152/159/152 153/160/153 173/181/173 172/180/172
f 153/160/153 154/161/154 174/182/174 173/181/173
f 154/161/154 155/162/155 175/183/175 174/182/174
f 155/162/155 156/163/156 176/184/176 175/183/175
f 156/163/156 157/164/157 177/185/177 176/184/176
f 157/164/157 158/165/158 178/186/178 177/185/177
f 158/165/158 159/166/159 179/187/179 178/186/178
f 159/166/159 160/167/160 180/188/180 179/187/179
f 160/167/160 141/168/142 161/189/162 180/188/180
f 161/170/162 162/169/161 182/190/181 181/191/182
f 162/169/161 163/171/163 183/192/183 182/190/181
f 163/171/163 164/172/164 184/193/184 183/192/183
f 164/172/164 165/173/165 185/194/185 184/193/184
f 165/173/165 166/174/166 186/195/186 185/194/185
f 166/174/166 167/175/167 187/196/187 186/195/186
f 167/175/167 168/176/168 188/197/188 187/196/187
f 168/176/168 169/177/169 189/198/189 188/197/188
f 169/177/169 170/178/170 190/199/190 189/198/189
f 170/178/170 171/179/171 191/200/191 190/199/190
f 171/179/171 172/180/172 192/201/192 191/200/191
f 172/180/172 173/181/173 193/202/193 192/201/192
f 173/181/173 174/182/174 194/203/194 193/202/193
f 174/182/174 175/183/175 195/204/195 194/203/194
f 175/183/175 176/184/176 196/205/196 195/204/195
f 176/184/176 177/185/177 197/206/197 196/205/196
f 177/185/177 178/186/178 198/207/198 197/206/197
f 178/186/178 179/187/179 199/208/199 198/207/198
f 179/187/179 180/188/180 200/209/200 199/208/199
f 180/188/180 161/189/162 181/210/182 200/209/200
f 181/191/182 182/190/181 202/211/201 201/212/202
f 182/190/181 183/192/183 203/213/203 202/211/201
f 183/192/183 184/193/184 204/214/204 203/213/203
f 184/193/184 185/194/185 205/215/205 204/214/204
f 185/194/185 186/195/186 206/216/206 205/215/205
f 186/195/186 187/196/187 207/217/207 206/216/206
f 187/196/187 188/197/188 208/218/208 207/217/207
f 188/197/188 189/198/189 209/219/209 208/218/208
f 189/198/189 190/199/190 210/220/210 209/219/209
f 190/199/190 191/200/191 211/221/211 210/220/210
f 191/200/191 192/201/192 212/222/212 211/221/211
f 192/201/192 193/202/193 213/223/213 212/222/212
f 193/202/193 194/203/194 214/224/214 213/223/213
f 194/203/194 195/204/195 215/225/215 214/224/214
f 195/204/195 196/205/196 216/226/216 215/225/215
f 196/205/196 197/206/197 217/227/217 216/226/216
f 197/206/197 198/207/198 218/228/218 217/227/217
f 198/207/198 199/208/199 219/229/219 218/228/218
f 199/208/199 200/209/200 220/230/220 219/229/219
f 200/209/200 181/210/182 201/231/202 220/230/220
f 201/212/202 202/211/201 222/232/221 221/233/222
f 202/211/201 203/213/203 223/234/223 222/232/221
f 203/213/203 204/214/204 224/235/224 223/234/223
f 204/214/204 205/215/205 225/236/225 224/235/224
f 205/215/205 206/216/206 226/237/226 225/236/225
f 206/216/206 207/217/207 227/238/227 226/237/226
f 207/217/207 208/218/208 228/239/228 227/238/227
f 208/218/208 209/219/209 229/240/229 228/239/228
f 209/219/209 210/220/210 230/241/230 229/240/229
f 210/220/210 211/221/211 231/242/231 230/241/230
f 211/221/211 212/222/212 232/243/232 231/242/231
f 212/222/212 213/223/213 233/244/233 232/243/232
f 213/223/213 214/224/214 234/245/234 233/244/233
f 214/224/214 215/225/215 235/246/235 234/245/234
f 215/225/215 216/226/216 236/247/236 235/246/235
f 216/226/216 217/227/217 237/248/237 236/247/236
f 217/227/217 218/228/218 238/249/238 237/248/237
f 218/228/218 219/229/219 239/250/239 238/249/238
f 219/229/219 220/230/220 240/251/240 239/250/239
f 220/230/220 201/231/202 221/252/222 240/251/240
f 221/233/222 222/232/221 242/253/241 241/254/242
f 222/232/221 223/234/223 243/255/243 242/253/241
f 223/234/223 224/235/224 244/256/244 243/255/243
f 224/235/224 225/236/225 245/257/245 244/256/244
f 225/236/225 226/237/226 246/258/246 245/257/245
f 226/237/226 227/238/227 247/259/247 246/258/246
f 227/238/227 228/239/228 248/260/248 247/259/247
f 228/239/228 229/240/229 249/261/249 248/260/248
f 229/240/229 230/241/230 250/262/250 249/261/249
f 230/241/230 231/242/231 251/263/251 250/262/250
f 231/242/231 232/243/232 252/264/252 251/263/251
f 232/243/232 233/244/233 253/265/253 252/264/252
f 233/244/233 234/245/234 254/266/254 253/265/253
f 234/245/234 235/246/235 255/267/255 254/266/254
f 235/246/235 236/247/236 256/268/256 255/267/255
f 236/247/236 237/248/237 257/269/257 256/268/256
f 237/248/237 238/249/238 258/270/258 257/269/257
f 238/249/238 239/250/239 259/271/259 258/270/258
f 239/250/239 240/251/240 260/272/260 259/271/259
f 240/251/240 221/252/222 241/273/242 260/272/260
f 241/254/242 242/253/241 262/274/261 261/275/262
f 242/253/241 243/255/243 263/276/263 262/274/261
f 243/255/243 244/256/244 264/277/264 263/276/263
f 244/256/244 245/257/245 265/278/265 264/277/264
f 245/257/245 246/258/246 266/279/266 265/278/265
f 246/258/246 247/259/247 267/280/267 266/279/266
f 247/259/247 248/260/248 268/281/268 267/280/267
f 248/260/248 249/261/249 269/282/269 268/281/268
f 249/261/249 250/262/250 270/283/270 269/282/269
f 250/262/250 251/263/251 271/284/271 270/283/270
f 251/263/251 252/264/252 272/285/272 271/284/271
f 252/264/252 253/265/253 273/286/273 272/285/272
f 253/265/253 254/266/254 274/287/274 273/286/273
f 254/266/254 255/267/255 275/288/275 274/287/274
f 255/267/255 256/268/256 276/289/276 275/288/275
f 256/268/256 257/269/257 277/290/277 276/289/276
f 257/269/257 258/270/258 278/291/278 277/290/277
f 258/270/258 259/271/259 279/292/279 278/291/278
f 259/271/259 260/272/260 280/293/280 279/292/279
f 260/272/260 241/273/242 261/294/262 280/293/280
f 261/275/262 262/274/261 282/295/281 281/296/282
f 262/274/261 263/276/263 283/297/283 282/295/281
f 263/276/263 264/277/264 284/298/284 283/297/283
f 264/277/264 265/278/265 285/299/285 284/298/284
f 265/278/265 266/279/266 286/300/286 285/299/285
f 266/279/266 267/280/267 287/301/287 286/300/286
f 267/280/267 268/281/268 288/302/288 287/301/287
f 268/281/268 269/282/269 289/303/289 288/302/288
f 269/282/269 270/283/270 290/304/290 289/303/289
f 270/283/270 271/284/271 291/305/291 290/304/290
f 271/284/271 272/285/272 292/306/292 291/305/291
f 272/285/272 273/286/273 293/307/293 292/306/292
f 273/286/273 274/287/274 294/308/294 293/307/293
f 274/287/274 275/288/275 295/309/295 294/308/294
f 275/288/275 276/289/276 296/310/296 295/309/295
f 276/289/276 277/290/277 297/311/297 296/310/296
f 277/290/277 278/291/278 298/312/298 297/311/297
f 278/291/278 279/292/279 299/313/299 298/312/298
f 279/292/279 280/293/280 300/314/300 299/313/299
f 280/293/280 261/294/262 281/315/282 300/314/300
f 281/296/282 282/295/281 302/316/301 301/317/302
f 282/295/281 283/297/283 303/318/303 302/316/301
f 283/297/283 284/298/284 304/319/304 303/318/303
f 284/298/284 285/299/285 305/320/305 304/319/304
f 285/299/285 286/300/286 306/321/306 305/320/305
f 286/300/286 287/301/287 307/322/307 306/321/306
f 287/301/287 288/302/288 308/323/308 307/322/307
f 288/302/288 289/303/289 309/324/309 308/323/308
f 289/303/289 290/304/290 310/325/310 309/324/309
f 290/304/290 291/305/291 311/326/311 310/325/310
f 291/305/291 292/306/292 312/327/312 311/326/311
f 292/306/292 293/307/293 313/328/313 312/327/312
f 293/307/293 294/308/294 314/329/314 313/328/313
f 294/308/294 295/309/295 315/330/315 314/329/314
f 295/309/295 296/310/296 316/331/316 315/330/315
f 296/310/296 297/311/297 317/332/317 316/331/316
f 297/311/297 298/312/298 318/333/318 317/332/317
f 298/312/298 299/313/299 319/334/319 318/333/318
f 299/313/299 300/314/300 320/335/320 319/334/319
f 300/314/300 281/315/282 301/336/302 320/335/320
f 301/317/302 302/316/301 322/337/321 321/338/322
f 302/316/301 303/318/303 323/339/323 322/337/321
f 303/318/303 304/319/304 324/340/324 323/339/323
f 304/319/304 305/320/305 325/341/325 324/340/324
f 305/320/305 306/321/306 326/342/326 325/341/325
f 306/321/306 307/322/307 327/343/327 326/342/326
f 307/322/307 308/323/308 328/344/328 327/343/327
f 308/323/308 309/324/309 329/345/329 328/344/328
f 309/324/309 310/325/310 330/346/330 329/345/329
f 310/325/310 311/326/311 331/347/331 330/346/330
f 311/326/311 312/327/312 332/348/332 331/347/331
f 312/327/312 313/328/313 333/349/333 332/348/332
f 313/328/313 314/329/314 334/350/334 333/349/333
f 314/329/314 315/330/315 335/351/335 334/350/334
f 315/330/315 316/331/316 336/352/336 335/351/335
f 316/331/316 317/332/317 337/353/337 336/352/336
f 317/332/317 318/333/318 338/354/338 337/353/337
f 318/333/318 319/334/319 339/355/339 338/354/338
f 319/334/319 320/335/320 340/356/340 339/355/339
f 320/335/320 301/336/302 321/357/322 340/356/340
f 321/338/322 322/337/321 342/358/341 341/359/342
f 322/337/321 323/339/323 343/360/343 342/358/341
f 323/339/323 324/340/324 344/361/344 343/360/343
f 324/340/324 325/341/325 345/362/345 344/361/344
f 325/341/325 326/342/326 346/363/346 345/362/345
f 326/342/326 327/343/327 347/364/347 346/363/346
f 327/343/327 328/344/328 348/365/348 347/364/347
f 328/344/328 329/345/329 349/366/349 348/365/348
f 329/345/329 330/346/330 350/367/350 349/366/349
f 330/346/330 331/347/331 351/368/351 350/367/350
f 331/347/331 332/348/332 352/369/352 351/368/351
f 332/348/332 333/349/333 353/370/353 352/369/352
f 333/349/333 334/350/334 354/371/354 353/370/353
f 334/350/334 335/351/335 355/372/355 354/371/354
f 335/351/335 336/352/336 356/373/356 355/372/355
f 336/352/336 337/353/337 357/374/357 356/373/356
f 337/353/337 338/354/338 358/375/358 357/374/357
f 338/354/338 339/355/339 359/376/359 358/375/358
f 339/355/339 340/356/340 360/377/360 359/376/359
f 340/356/340 321/357/322 341/378/342 360/377/360
f 341/359/342 342/358/341 362/379/361 361/380/362
f 342/358/341 343/360/343 363/381/363 362/379/361
f 343/360/343 344/361/344 364/382/364 363/381/363
f 344/361/344 345/362/345 365/383/365 364/382/364
f 345/362/345 346/363/346 366/384/366 365/383/365
f 346/363/346 347/364/347 367/385/367 366/384/366
f 347/364/347 348/365/348 368/386/368 367/385/367
f 348/365/348 349/366/349 369/387/369 368/386/368
f 349/366/349 350/367/350 370/388/370 369/387/369
f 350/367/350 351/368/351 371/389/371 370/388/370
f 351/368/351 352/369/352 372/390/372 371/389/371
f 352/369/352 353/370/353 373/391/373 372/390/372
f 353/370/353 354/371/354 374/392/374 373/391/373
f 354/371/354 355/372/355 375/393/375 374/392/374
f 355/372/355 356/373/356 376/394/376 375/393/375
f 356/373/356 357/374/357 377/395/377 376/394/376
f 357/374/357 358/375/358 378/396/378 377/395/377
f 358/375/358 359/376/359 379/397/379 378/396/378
f 359/376/359 360/377/360 380/398/380 379/397/379
f 360/377/360 341/378/342 361/399/362 380/398/380
f 2/2/2 1/1/1 381/400/381
f 3/5/5 2/2/2 381/401/381
f 4/7/7 3/5/5 381/402/381
f 5/9/9 4/7/7 381/403/381
f 6/11/11 5/9/9 381/404/381
f 7/13/13 6/11/11 381/405/381
f 8/15/15 7/13/13 381/406/381
f 9/17/17 8/15/15 381/407/381
f 10/19/19 9/17/17 381/408/381
f 11/21/21 10/19/19 381/409/381
f 12/23/23 11/21/21 381/410/381
f 13/25/25 12/23/23 381/411/381
f 14/27/27 13/25/25 381/412/381
f 15/29/29 14/27/27 381/413/381
f 16/31/31 15/29/29 381/414/381
f 17/33/33 16/31/31 381/415/381
f 18/35/35 17/33/33 381/416/381
f 19/37/37 18/35/35 381/417/381
f 20/39/39 19/37/37 381/418/381
f 1/41/1 20/39/39 381/419/381
f 361/380/362 362/379/361 382/420/382
f 362/379/361 363/381/363 382/421/382
f 363/381/363 364/382/364 382/422/382
f 364/382/364 365/383/365 382/423/382
f 365/383/365 366/384/366 382/424/382
f 366/384/366 367/385/367 382/425/382
f 367/385/367 368/386/368 382/426/382
f 368/386/368 369/387/369 382/427/382
f 369/387/369 370/388/370 382/428/382
f 370/388/370 371/389/371 382/429/382
f 371/389/371 372/390/372 382/430/382
f 372/390/372 373/391/373 382/431/382
f 373/391/373 374/392/374 382/432/382
f 374/392/374 375/393/375 382/433/382
f 375/393/375 376/394/376 382/434/382
f 376/394/376 377/395/377 382/435/382
f 377/395/377 378/396/378 382/436/382
f 378/396/378 379/397/379 382/437/382
f 379/397/379 380/398/380 382/438/382
f 380/398/380 361/399/362 382/439/382
