# Blender 4.4.1
# www.blender.org
mtllib limb.mtl
o Gru_Forearm.003
v -0.143309 -0.421653 2.003462
v 0.158822 -0.421653 2.003462
v -0.143309 -0.211079 2.017925
v 0.158822 -0.211079 2.017925
v -0.143309 0.206236 -0.285877
v 0.158822 0.206236 -0.285877
v -0.143309 -0.150288 -0.234997
v 0.158822 -0.150288 -0.234997
v -0.143309 -0.316366 2.010694
v 0.158822 -0.316366 2.010694
v 0.158822 -0.038382 -0.250967
v -0.143309 -0.038382 -0.250967
v -0.143309 -0.116974 1.327404
v 0.158822 -0.116974 1.327404
v 0.158822 -0.419198 1.230640
v -0.143309 -0.419198 1.230640
v -0.143309 0.157312 -0.278895
v 0.158822 0.157312 -0.278895
v 0.158822 -0.161432 1.313170
v 0.158822 -0.232137 2.016479
v -0.143309 -0.232137 2.016479
v -0.143309 -0.161432 1.313170
v -0.143309 -0.400596 2.004909
v 0.158822 -0.400596 2.004909
v 0.158822 -0.374740 1.244874
v 0.158822 -0.101365 -0.241979
v -0.143309 -0.101365 -0.241979
v -0.143309 -0.379536 1.243339
v -0.143309 -0.140223 -0.164469
v 0.158822 -0.140223 -0.164469
v 0.158822 -0.091300 -0.171451
v 0.158822 -0.028317 -0.180439
v 0.158822 0.167377 -0.208367
v 0.158822 0.216301 -0.215349
v -0.143309 0.216301 -0.215349
v -0.143309 0.167377 -0.208367
v -0.143309 -0.028317 -0.180439
v -0.143309 -0.091300 -0.171451
v -0.143309 -0.204761 1.946981
v 0.158822 -0.204761 1.946981
v 0.158822 -0.225818 1.945535
v 0.158822 -0.310048 1.939750
v 0.158822 -0.394277 1.933965
v 0.158822 -0.415335 1.932518
v -0.143309 -0.415335 1.932518
v -0.143309 -0.394277 1.933965
v -0.143309 -0.310048 1.939750
v -0.143309 -0.225818 1.945535
v 0.068394 -0.028317 -0.180439
v 0.068394 0.167377 -0.208367
v 0.068394 -0.161432 1.313170
v 0.068394 -0.316921 1.263386
v 0.068394 -0.374740 1.244874
v 0.068394 -0.091300 -0.171451
v 0.068394 -0.225818 1.945535
v 0.068394 -0.310048 1.939750
v 0.068394 -0.394277 1.933965
v -0.052880 0.167377 -0.208367
v -0.052880 -0.028317 -0.180439
v -0.052880 -0.316921 1.263386
v -0.052880 -0.161432 1.313170
v -0.052880 -0.091300 -0.171451
v -0.052880 -0.374740 1.244874
v -0.052880 -0.394277 1.933965
v -0.052880 -0.310048 1.939750
v -0.052880 -0.225818 1.945535
v -0.143309 0.281008 0.322970
v 0.158822 0.281008 0.322970
v 0.158822 0.152242 0.330402
v 0.068394 0.152242 0.330402
v 0.068394 -0.060040 0.262435
v 0.068394 -0.140015 0.236829
v 0.158822 -0.140015 0.236829
v 0.158822 -0.202137 0.216939
v -0.143309 -0.202137 0.216939
v -0.143309 -0.140015 0.236829
v -0.052880 -0.140015 0.236829
v -0.052880 -0.060040 0.262435
v -0.052880 0.152242 0.330402
v -0.143309 0.152242 0.330402
v -0.143309 -0.058487 0.928499
v 0.158822 -0.058487 0.928499
v 0.158822 -0.110011 0.912003
v 0.068394 -0.110011 0.912003
v 0.068394 -0.291499 0.838247
v 0.068394 -0.391864 0.806112
v 0.158822 -0.391864 0.806112
v 0.158822 -0.443388 0.789616
v -0.143309 -0.443388 0.789616
v -0.143309 -0.400766 0.795932
v -0.052880 -0.361057 0.815976
v -0.052880 -0.291499 0.838247
v -0.052880 -0.110011 0.912003
v -0.143309 -0.110011 0.912003
v 0.155449 -0.211079 2.017925
v 0.155449 -0.204761 1.946981
v 0.155449 -0.116974 1.327404
v 0.155449 -0.058487 0.928499
v 0.155449 0.281008 0.322970
v 0.155449 0.216301 -0.215349
v 0.155449 0.206236 -0.285877
v 0.155449 0.157312 -0.278895
v 0.155449 -0.038382 -0.250967
v 0.155449 -0.101365 -0.241979
v 0.155449 -0.150288 -0.234997
v 0.155449 -0.140223 -0.164469
v 0.155449 -0.202137 0.216939
v 0.155449 -0.443388 0.789616
v 0.155449 -0.419198 1.230640
v 0.155449 -0.415335 1.932518
v 0.155449 -0.421653 2.003462
v 0.155449 -0.400596 2.004909
v 0.155449 -0.316366 2.010694
v 0.155449 -0.232137 2.016479
v -0.138126 -0.211079 2.017925
v -0.138126 -0.204761 1.946981
v -0.138126 -0.116974 1.327404
v -0.138126 -0.058487 0.928499
v -0.138126 0.281008 0.322970
v -0.138126 0.216301 -0.215349
v -0.138126 0.206236 -0.285877
v -0.138126 0.157312 -0.278895
v -0.138126 -0.038382 -0.250967
v -0.138126 -0.101365 -0.241979
v -0.138126 -0.150288 -0.234997
v -0.138126 -0.140223 -0.164469
v -0.138126 -0.202137 0.216939
v -0.138126 -0.443388 0.789616
v -0.138126 -0.419198 1.230640
v -0.138126 -0.415335 1.932518
v -0.138126 -0.421653 2.003462
v -0.138126 -0.400596 2.004909
v -0.138126 -0.316366 2.010694
v -0.138126 -0.232137 2.016479
v 0.158822 -0.210720 2.013891
v 0.155449 -0.210720 2.013891
v -0.138126 -0.210720 2.013891
v -0.143309 -0.210720 2.013891
v -0.143309 -0.231778 2.012445
v -0.143309 -0.316007 2.006660
v -0.143309 -0.400237 2.000875
v -0.143309 -0.421294 1.999428
v -0.138126 -0.421294 1.999428
v 0.155449 -0.421294 1.999428
v 0.158822 -0.421294 1.999428
v 0.158822 -0.400237 2.000875
v 0.158822 -0.316007 2.006660
v 0.158822 -0.231778 2.012445
v 0.070077 -0.110011 0.912003
v 0.070077 0.152242 0.330402
v 0.070077 0.167377 -0.208367
v 0.070077 -0.028317 -0.180439
v 0.070077 -0.091300 -0.171451
v 0.070077 -0.140015 0.236829
v 0.070077 -0.391864 0.806112
v 0.070077 -0.374740 1.244874
v 0.070077 -0.394277 1.933965
v 0.070077 -0.310048 1.939750
v 0.070077 -0.225818 1.945535
v 0.070077 -0.161432 1.313170
v 0.144865 -0.110011 0.912003
v 0.144865 0.152242 0.330402
v 0.144865 0.167377 -0.208367
v 0.144865 -0.028317 -0.180439
v 0.144865 -0.091300 -0.171451
v 0.144865 -0.140015 0.236829
v 0.144865 -0.391864 0.806112
v 0.144865 -0.374740 1.244874
v 0.144865 -0.394277 1.933965
v 0.144865 -0.310048 1.939750
v 0.144865 -0.225818 1.945535
v 0.144865 -0.161432 1.313170
v -0.064265 -0.110011 0.912003
v -0.064265 0.152242 0.330402
v -0.064265 0.167377 -0.208367
v -0.064265 -0.028317 -0.180439
v -0.064265 -0.091300 -0.171451
v -0.064265 -0.140015 0.236829
v -0.064265 -0.400766 0.795932
v -0.064265 -0.375344 1.244681
v -0.064265 -0.394277 1.933965
v -0.064265 -0.310048 1.939750
v -0.064265 -0.225818 1.945535
v -0.064265 -0.161432 1.313170
v -0.140115 -0.110011 0.912003
v -0.140115 0.152242 0.330402
v -0.140115 0.167377 -0.208367
v -0.140115 -0.028317 -0.180439
v -0.140115 -0.091300 -0.171451
v -0.140115 -0.140015 0.236829
v -0.140115 -0.400766 0.795932
v -0.140115 -0.379366 1.243393
v -0.140115 -0.394277 1.933965
v -0.140115 -0.310048 1.939750
v -0.140115 -0.225818 1.945535
v -0.140115 -0.161432 1.313170
v -0.143309 0.274570 0.320909
v -0.143309 0.211230 -0.214626
v -0.143309 0.201165 -0.285154
v -0.138126 0.201165 -0.285154
v 0.155449 0.201165 -0.285154
v 0.158822 0.201165 -0.285154
v 0.158822 0.211230 -0.214626
v 0.158822 0.274570 0.320909
v 0.158822 -0.063827 0.926790
v 0.158822 -0.121582 1.325929
v 0.158822 -0.206943 1.946831
v 0.158822 -0.212903 2.013741
v 0.158822 -0.213262 2.017776
v 0.155449 -0.213262 2.017776
v -0.138126 -0.213262 2.017776
v -0.143309 -0.213262 2.017776
v -0.143309 -0.212903 2.013741
v -0.143309 -0.206943 1.946831
v -0.143309 -0.121582 1.325929
v -0.143309 -0.063827 0.926789
v -0.143309 0.161131 0.333248
v -0.143309 0.174378 -0.209366
v -0.143309 0.164312 -0.279894
v -0.138126 0.164312 -0.279894
v 0.155449 0.164312 -0.279894
v 0.158822 0.164312 -0.279894
v 0.158822 0.174378 -0.209366
v 0.158822 0.161131 0.333248
v 0.158822 -0.102638 0.914363
v 0.158822 -0.155071 1.315206
v 0.158822 -0.222805 1.945742
v 0.158822 -0.228765 2.012652
v 0.158822 -0.229124 2.016686
v 0.155449 -0.229124 2.016686
v -0.138126 -0.229124 2.016686
v -0.143309 -0.229124 2.016686
v -0.143309 -0.228765 2.012652
v -0.143309 -0.222805 1.945742
v -0.143309 -0.155071 1.315206
v -0.143309 -0.102638 0.914363
v -0.143309 0.206087 0.352287
v -0.143309 0.159349 0.337322
v -0.143309 0.150471 0.334480
v -0.140115 0.150471 0.334480
v -0.064265 0.150471 0.334480
v -0.052880 0.150471 0.334480
v -0.052880 -0.061162 0.266721
v -0.052880 -0.141061 0.241139
v -0.064265 -0.141061 0.241139
v -0.140115 -0.141061 0.241139
v -0.143309 -0.141061 0.241139
v -0.143309 -0.203328 0.221203
v -0.138126 -0.203328 0.221203
v 0.155449 -0.203328 0.221203
v 0.158822 -0.203328 0.221203
v 0.158822 -0.141282 0.241068
v 0.144865 -0.141282 0.241068
v 0.070077 -0.141282 0.241068
v 0.068394 -0.141282 0.241068
v 0.068394 -0.061162 0.266721
v 0.068394 0.150471 0.334480
v 0.070077 0.150471 0.334480
v 0.144865 0.150471 0.334480
v 0.158822 0.150471 0.334480
v 0.158822 0.159349 0.337322
v 0.158822 0.206087 0.352287
v 0.158822 0.212518 0.354346
v 0.155449 0.212518 0.354346
v -0.138126 0.212518 0.354346
v -0.143309 0.212518 0.354346
v -0.143309 0.207797 0.332227
v -0.143309 0.161002 0.317244
v -0.143309 0.152113 0.314398
v -0.140115 0.152113 0.314398
v -0.064265 0.152113 0.314398
v -0.052880 0.152113 0.314398
v -0.052880 -0.055405 0.247957
v -0.052880 -0.135379 0.222351
v -0.064265 -0.135379 0.222351
v -0.140115 -0.135379 0.222351
v -0.143309 -0.135379 0.222351
v -0.143309 -0.197501 0.202461
v -0.138126 -0.197501 0.202461
v 0.155449 -0.197501 0.202461
v 0.158822 -0.197501 0.202461
v 0.158822 -0.135379 0.222351
v 0.144865 -0.135379 0.222351
v 0.070077 -0.135379 0.222351
v 0.068394 -0.135379 0.222351
v 0.068394 -0.055405 0.247957
v 0.068394 0.152113 0.314398
v 0.070077 0.152113 0.314398
v 0.144865 0.152113 0.314398
v 0.158822 0.152113 0.314398
v 0.158822 0.161002 0.317244
v 0.158822 0.207797 0.332227
v 0.158822 0.214236 0.334288
v 0.155449 0.214236 0.334288
v -0.138126 0.214236 0.334288
v -0.143309 0.214236 0.334288
v -0.143309 -0.064926 0.950609
v -0.143309 -0.070225 0.948912
v -0.143309 -0.108740 0.936581
v -0.143309 -0.116056 0.934239
v -0.140115 -0.116056 0.934239
v -0.064265 -0.116056 0.934239
v -0.052880 -0.116056 0.934239
v -0.052880 -0.292917 0.861964
v -0.052880 -0.361820 0.839903
v -0.064265 -0.401563 0.819848
v -0.140115 -0.401787 0.819776
v -0.143309 -0.401796 0.819773
v -0.143309 -0.442038 0.814219
v -0.138126 -0.442038 0.814219
v 0.155449 -0.442038 0.814219
v 0.158822 -0.442038 0.814219
v 0.158822 -0.390909 0.830589
v 0.144865 -0.390909 0.830589
v 0.070077 -0.390909 0.830589
v 0.068394 -0.390909 0.830589
v 0.068394 -0.292917 0.861964
v 0.068394 -0.116056 0.934239
v 0.070077 -0.116056 0.934239
v 0.144865 -0.116056 0.934239
v 0.158822 -0.116056 0.934239
v 0.158822 -0.108740 0.936581
v 0.158822 -0.070225 0.948912
v 0.158822 -0.064926 0.950609
v 0.155449 -0.064926 0.950609
v -0.138126 -0.064926 0.950609
v -0.143309 -0.024662 0.758584
v -0.143309 -0.063665 0.746096
v -0.143309 -0.071074 0.743724
v -0.140115 -0.071074 0.743724
v -0.064265 -0.071074 0.743724
v -0.052880 -0.104057 0.898292
v -0.052880 -0.287729 0.823837
v -0.052880 -0.357537 0.801486
v -0.064265 -0.397246 0.781441
v -0.140115 -0.397246 0.781441
v -0.143309 -0.397246 0.781441
v -0.143309 -0.439383 0.775281
v -0.138126 -0.439383 0.775281
v 0.155449 -0.439383 0.775281
v 0.158822 -0.439383 0.775281
v 0.158822 -0.387604 0.791859
v 0.144865 -0.387604 0.791859
v 0.070077 -0.387604 0.791859
v 0.068394 -0.387604 0.791859
v 0.068394 -0.287729 0.823837
v 0.068394 -0.071074 0.743724
v 0.070077 -0.071074 0.743724
v 0.144865 -0.071074 0.743724
v 0.158822 -0.071074 0.743724
v 0.158822 -0.063665 0.746096
v 0.158822 -0.024662 0.758584
v 0.158822 -0.019296 0.760302
v 0.155449 -0.019296 0.760302
v -0.138126 -0.019296 0.760302
v -0.143309 -0.019296 0.760302
v -0.143309 -0.221190 1.930702
v -0.143309 -0.224282 1.930451
v -0.140115 -0.224282 1.930451
v -0.064265 -0.224282 1.930451
v -0.052880 -0.224282 1.930451
v -0.052880 -0.310212 1.923616
v -0.052880 -0.393811 1.917528
v -0.064265 -0.393826 1.917523
v -0.140115 -0.393922 1.917492
v -0.143309 -0.393926 1.917491
v -0.143309 -0.415427 1.915776
v -0.138126 -0.415427 1.915776
v 0.155449 -0.415427 1.915776
v 0.158822 -0.415427 1.915776
v 0.158822 -0.393811 1.917528
v 0.144865 -0.393811 1.917528
v 0.070077 -0.393811 1.917528
v 0.068394 -0.393811 1.917528
v 0.068394 -0.310212 1.923616
v 0.068394 -0.224282 1.930451
v 0.070077 -0.224282 1.930451
v 0.144865 -0.224282 1.930451
v 0.158822 -0.224282 1.930451
v 0.158822 -0.221190 1.930702
v 0.158822 -0.204907 1.932021
v 0.158822 -0.202667 1.932203
v 0.155449 -0.202667 1.932203
v -0.138126 -0.202667 1.932203
v -0.143309 -0.202667 1.932203
v -0.143309 -0.204907 1.932021
v 0.158822 -0.092399 -0.161629
v 0.144865 -0.092399 -0.161629
v 0.070077 -0.092399 -0.161629
v 0.068394 -0.092399 -0.161629
v 0.068394 -0.028993 -0.169755
v 0.068394 0.166997 -0.195329
v 0.070077 0.166997 -0.195329
v 0.144865 0.166997 -0.195329
v 0.158822 0.166997 -0.195329
v 0.158822 0.174044 -0.196233
v 0.158822 0.211145 -0.200987
v 0.158822 0.216249 -0.201641
v 0.155449 0.216249 -0.201641
v -0.138126 0.216249 -0.201641
v -0.143309 0.216249 -0.201641
v -0.143309 0.211145 -0.200987
v -0.143309 0.174044 -0.196233
v -0.143309 0.166997 -0.195329
v -0.140115 0.166997 -0.195329
v -0.064265 0.166997 -0.195329
v -0.052880 0.166997 -0.195329
v -0.052880 -0.028993 -0.169755
v -0.052880 -0.092399 -0.161629
v -0.064265 -0.092399 -0.161629
v -0.140115 -0.092399 -0.161629
v -0.143309 -0.092399 -0.161629
v -0.143309 -0.141652 -0.155318
v -0.138126 -0.141652 -0.155318
v 0.155449 -0.141652 -0.155318
v 0.158822 -0.141652 -0.155318
v -0.117060 -0.391173 2.089695
v 0.132573 -0.391173 2.089695
v -0.117060 -0.160198 1.995003
v 0.132573 -0.160198 1.995003
v -0.117060 -0.254890 1.764027
v 0.132573 -0.254890 1.764027
v -0.117060 -0.485866 1.858719
v 0.132573 -0.485866 1.858719
v -0.149895 -0.177163 1.867059
v 0.165408 -0.382833 1.780992
v 0.007757 -0.528702 1.840793
v -0.149895 -0.382833 1.780992
v 0.165408 -0.468901 1.986662
v -0.149895 -0.468901 1.986662
v 0.007757 -0.409099 2.132531
v 0.165408 -0.263230 2.072730
v 0.007757 -0.117361 2.012928
v -0.149895 -0.263230 2.072730
v 0.165408 -0.177163 1.867059
v 0.007757 -0.236964 1.721190
v 0.007757 -0.241360 2.126077
v 0.007757 -0.123815 1.845189
v 0.007757 -0.404704 1.727644
v 0.007757 -0.522248 2.008533
v 0.223065 -0.323032 1.926861
v -0.207551 -0.323032 1.926861
v -0.072239 -0.326030 2.130437
v 0.087753 -0.326030 2.130437
v 0.087753 -0.177995 2.069748
v -0.072239 -0.177995 2.069748
v -0.072239 -0.119455 1.929859
v 0.087753 -0.119455 1.929859
v 0.087753 -0.180144 1.781824
v -0.072239 -0.180144 1.781824
v -0.072239 -0.320034 1.723284
v 0.087753 -0.320034 1.723284
v 0.087753 -0.468068 1.783973
v -0.072239 -0.468068 1.783973
v -0.072239 -0.526608 1.923863
v 0.087753 -0.526608 1.923863
v 0.087753 -0.465919 2.071897
v -0.072239 -0.465919 2.071897
v 0.194981 -0.366704 2.031223
v 0.194981 -0.427394 1.883188
v 0.194981 -0.279359 1.822499
v 0.194981 -0.218670 1.970533
v -0.179468 -0.427394 1.883188
v -0.179468 -0.366704 2.031223
v -0.179468 -0.218670 1.970533
v -0.179468 -0.279359 1.822499
v 0.007757 -0.326377 2.145296
v 0.093710 -0.246847 2.112691
v 0.007757 -0.167318 2.080087
v -0.078196 -0.246847 2.112691
v 0.007757 -0.104597 1.930206
v 0.093710 -0.137201 1.850676
v 0.007757 -0.169806 1.771147
v -0.078196 -0.137201 1.850676
v 0.007757 -0.319687 1.708426
v 0.093710 -0.399216 1.741030
v 0.007757 -0.478745 1.773635
v -0.078196 -0.399216 1.741030
v 0.007757 -0.541467 1.923516
v 0.093710 -0.508862 2.003045
v 0.007757 -0.476258 2.082574
v -0.078196 -0.508862 2.003045
v 0.208598 -0.402561 1.959465
v 0.208598 -0.355636 1.847332
v 0.208598 -0.243503 1.894256
v 0.208598 -0.290427 2.006390
v -0.193084 -0.402561 1.959465
v -0.193084 -0.290427 2.006390
v -0.193084 -0.243503 1.894256
v -0.193084 -0.355636 1.847332
v -0.066282 -0.403176 2.118376
v 0.081796 -0.403176 2.118376
v 0.154558 -0.335851 2.090775
v 0.154558 -0.198841 2.034606
v 0.081796 -0.131517 2.007005
v -0.066282 -0.131517 2.007005
v -0.139044 -0.198841 2.034606
v -0.139044 -0.335851 2.090775
v 0.154558 -0.159117 1.939681
v 0.154558 -0.215287 1.802670
v 0.081796 -0.242888 1.735346
v -0.066282 -0.242888 1.735346
v -0.139044 -0.215287 1.802670
v -0.139044 -0.159117 1.939681
v 0.154558 -0.310212 1.762946
v 0.154558 -0.447223 1.819116
v 0.081796 -0.514547 1.846717
v -0.066282 -0.514547 1.846717
v -0.139044 -0.447223 1.819116
v -0.139044 -0.310212 1.762946
v 0.154558 -0.486946 1.914041
v 0.154558 -0.430776 2.051052
v -0.139044 -0.430776 2.051052
v -0.139044 -0.486946 1.914041
vn -0.0000 -0.0685 0.9976
vn 0.0002 0.9964 0.0853
vn -0.0000 0.9963 0.0854
vn 0.0001 0.9925 -0.1226
vn -0.0000 0.9925 -0.1226
vn -0.0000 -0.1413 -0.9900
vn -0.0000 -0.9870 -0.1604
vn -0.0000 -0.9549 -0.2969
vn 1.0000 -0.0000 -0.0000
vn -1.0000 -0.0000 -0.0000
vn -0.0000 0.9952 0.0981
vn -0.0000 0.9901 0.1403
vn -0.0000 -1.0000 0.0055
vn -0.0000 -0.9975 -0.0700
vn -0.0000 -0.9900 0.1413
vn -0.0000 -0.9942 0.1077
vn -0.0000 0.9930 -0.1180
vn -0.0000 0.9900 -0.1413
vn -0.0000 0.9961 0.0887
vn -0.0000 -0.9961 -0.0887
vn -0.0000 0.1413 0.9900
vn -0.0000 -0.9996 -0.0280
vn -0.0000 -0.9967 -0.0815
vn -0.0003 -0.9967 -0.0815
vn -0.0000 0.9537 0.3007
vn -0.0000 0.9929 0.1187
vn -0.0000 0.0685 -0.9976
vn -0.0000 -0.9949 -0.1013
vn -0.0000 0.9996 0.0283
vn -0.0001 -0.9967 -0.0815
vn -0.0001 0.9929 0.1187
vn -0.0000 0.9572 0.2895
vn -0.0267 0.9993 0.0250
vn -0.0006 0.9997 0.0250
vn -0.0006 0.9996 0.0279
vn -0.0268 0.9993 0.0279
vn -0.0000 0.9724 0.2332
vn -0.0000 0.9043 0.4268
vn -0.0000 -0.9116 -0.4111
vn 0.0001 -0.9116 -0.4111
vn -0.0000 -0.9732 -0.2298
vn -0.0000 0.9964 0.0851
vn -0.0000 0.9142 0.4054
vn -0.0000 -0.9212 -0.3890
vn -0.0000 -0.9977 -0.0681
vn -0.8944 0.4117 0.1746
vn -0.2277 0.8836 0.4091
vn -0.3827 0.9175 0.1084
vn -0.9642 0.2641 0.0243
vn 0.1733 -0.9551 -0.2403
vn 0.0145 -0.9729 -0.2309
vn 0.2714 -0.8756 -0.3997
vn 0.7180 -0.6516 -0.2448
vn -0.0000 0.9903 0.1388
vn -0.0000 0.9903 0.1389
vn -0.0000 0.9894 0.1451
vn -0.0000 -0.9929 -0.1189
vn -0.0000 -0.9919 -0.1272
vn -0.0000 0.9992 -0.0390
vn -0.0000 -0.9985 0.0548
vn -0.0000 -0.9997 0.0242
vn -0.8749 0.4842 -0.0071
vn -0.1854 0.9815 -0.0478
vn -0.2453 0.9681 -0.0503
vn -0.8691 0.4945 -0.0079
vn -0.0000 0.9964 0.0853
vn -0.0001 -0.9942 0.1077
vn 0.0001 -0.9977 -0.0681
vn -0.0000 0.9537 0.3008
vn 0.0002 0.9929 0.1187
vn -0.0001 0.9964 0.0851
vn -0.0000 0.9057 0.4239
vn -0.0009 0.9934 0.1148
vn -0.0261 0.9983 -0.0519
vn -0.0274 0.9980 -0.0570
vn -0.0267 0.9993 0.0244
vn -0.0006 0.9997 0.0244
vn -0.0009 0.9930 0.1178
vn -0.0261 0.9985 -0.0476
vn -0.0275 0.9982 -0.0526
vn -0.0266 0.9994 0.0215
vn -0.0006 0.9998 0.0215
vn -0.0000 -0.0685 0.9977
vn -0.0000 -0.8798 -0.4753
vn 0.2406 -0.8567 -0.4562
vn 0.8577 -0.4619 -0.2258
vn -0.2453 0.8786 0.4098
vn -0.8884 0.4220 0.1806
vn -0.0000 0.9042 0.4270
vn -0.0000 -0.9204 -0.3910
vn -0.0000 0.9133 0.4073
vn -0.0000 0.9133 0.4074
vn 0.0001 -0.8798 -0.4754
vn -0.0000 0.8243 0.5661
vn -0.0002 0.8243 0.5661
vn -0.0000 -0.9996 -0.0292
vn -0.0000 0.9938 0.1112
vn -0.0000 -0.9880 -0.1542
vn -0.0000 1.0000 0.0038
vn -0.0273 0.9993 0.0249
vn -0.0274 0.9992 0.0279
vn -0.0273 0.9993 0.0244
vn -0.0273 0.9994 0.0215
vn -0.5692 -0.3183 0.7580
vn -0.2438 -0.3769 0.8936
vn -0.2932 0.0530 0.9546
vn -0.7238 -0.0302 0.6894
vn -0.0000 -0.3905 0.9206
vn -0.0012 0.0582 0.9983
vn -0.0000 0.3992 0.9169
vn -0.3565 0.3826 0.8524
vn -0.7729 0.2837 0.5676
vn 0.2438 -0.3769 0.8936
vn 0.2946 0.0535 0.9541
vn 0.5692 -0.3183 0.7580
vn 0.7078 -0.0234 0.7060
vn 0.7729 0.2837 0.5676
vn 0.3565 0.3826 0.8524
vn 0.3310 0.6748 0.6596
vn -0.0000 0.7012 0.7129
vn 0.6965 0.5703 0.4354
vn 0.5394 0.7792 0.3192
vn 0.2727 0.8913 0.3623
vn -0.0000 0.9285 0.3714
vn -0.3226 0.6788 0.6597
vn -0.7075 0.5628 0.4274
vn -0.2727 0.8913 0.3623
vn -0.5394 0.7792 0.3192
vn -0.3253 0.9454 0.0187
vn -0.7080 0.7000 0.0934
vn 0.0008 1.0000 -0.0015
vn -0.0000 0.9349 -0.3550
vn -0.3633 0.8737 -0.3235
vn -0.7742 0.6038 -0.1899
vn 0.3322 0.9431 0.0168
vn 0.6905 0.7176 0.0907
vn 0.7742 0.6038 -0.1899
vn 0.3631 0.8738 -0.3236
vn 0.2959 0.7183 -0.6296
vn -0.0000 0.7546 -0.6562
vn 0.7057 0.4899 -0.5119
vn 0.5692 0.3183 -0.7580
vn 0.2438 0.3789 -0.8928
vn -0.0000 0.3905 -0.9206
vn -0.2958 0.7183 -0.6297
vn -0.7091 0.4868 -0.5101
vn -0.2438 0.3789 -0.8928
vn -0.5692 0.3183 -0.7580
vn -0.2932 -0.0530 -0.9546
vn -0.7238 0.0302 -0.6894
vn -0.0012 -0.0582 -0.9983
vn -0.0000 -0.3992 -0.9169
vn -0.3565 -0.3826 -0.8524
vn -0.7729 -0.2837 -0.5676
vn 0.2946 -0.0535 -0.9541
vn 0.7078 0.0234 -0.7060
vn 0.7729 -0.2837 -0.5676
vn 0.3565 -0.3826 -0.8524
vn 0.3310 -0.6748 -0.6596
vn -0.0000 -0.7012 -0.7129
vn 0.6965 -0.5703 -0.4354
vn 0.5394 -0.7792 -0.3192
vn 0.2727 -0.8913 -0.3623
vn -0.0000 -0.9285 -0.3714
vn -0.3226 -0.6788 -0.6597
vn -0.7075 -0.5628 -0.4274
vn -0.2727 -0.8913 -0.3623
vn -0.5394 -0.7792 -0.3192
vn -0.3253 -0.9454 -0.0187
vn -0.7080 -0.7000 -0.0934
vn 0.0008 -1.0000 0.0015
vn -0.0000 -0.9349 0.3550
vn -0.3633 -0.8737 0.3235
vn -0.7742 -0.6038 0.1899
vn 0.3322 -0.9431 -0.0168
vn 0.6905 -0.7176 -0.0907
vn 0.7742 -0.6038 0.1899
vn 0.3631 -0.8738 0.3236
vn 0.2959 -0.7183 0.6296
vn -0.0000 -0.7546 0.6562
vn 0.7057 -0.4899 0.5119
vn -0.2958 -0.7183 0.6297
vn -0.7091 -0.4868 0.5101
vn 0.9217 -0.1469 0.3590
vn 0.9618 -0.2679 0.0561
vn 0.9630 0.1472 0.2257
vn 0.8922 -0.4194 -0.1674
vn 0.9624 -0.1507 -0.2260
vn 0.9216 0.1554 -0.3556
vn 0.9620 0.2671 -0.0573
vn 0.8920 0.4197 0.1680
vn -0.8920 -0.4197 -0.1680
vn -0.9612 -0.2705 0.0542
vn -0.9624 -0.1507 -0.2260
vn -0.9216 -0.1554 0.3556
vn -0.9630 0.1472 0.2257
vn -0.8922 0.4194 0.1674
vn -0.9620 0.2671 -0.0573
vn -0.9217 0.1469 -0.3590
vt 0.375000 0.125000
vt 0.379289 0.125000
vt 0.379289 0.225000
vt 0.375000 0.225000
vt 0.375000 0.465000
vt 0.379289 0.465000
vt 0.379288 0.466326
vt 0.375000 0.466326
vt 0.375000 0.525000
vt 0.379289 0.525000
vt 0.379289 0.625000
vt 0.375000 0.625000
vt 0.375000 0.783674
vt 0.379288 0.783674
vt 0.379289 0.785000
vt 0.375000 0.785000
vt 0.841326 0.125000
vt 0.841326 0.225000
vt 0.840000 0.225000
vt 0.840000 0.125000
vt 0.158674 0.225000
vt 0.158674 0.125000
vt 0.160000 0.125000
vt 0.160000 0.225000
vt 0.375000 0.025000
vt 0.379289 0.025000
vt 0.840000 0.025000
vt 0.841326 0.025000
vt 0.379289 0.725000
vt 0.375000 0.725000
vt 0.158674 0.025000
vt 0.160000 0.025000
vt 0.375000 0.262500
vt 0.379288 0.262500
vt 0.379288 0.265183
vt 0.375000 0.265183
vt 0.637500 0.225000
vt 0.637500 0.125000
vt 0.640184 0.125000
vt 0.640184 0.225000
vt 0.637500 0.025000
vt 0.640184 0.025000
vt 0.375000 0.984816
vt 0.379289 0.984816
vt 0.379289 0.987500
vt 0.375000 0.987500
vt 0.359816 0.125000
vt 0.359816 0.025000
vt 0.362500 0.025000
vt 0.362500 0.125000
vt 0.362500 0.225000
vt 0.359817 0.225000
vt 0.375000 0.521423
vt 0.379289 0.521423
vt 0.840000 0.228577
vt 0.841326 0.228577
vt 0.637500 0.228577
vt 0.640184 0.228577
vt 0.379289 0.228577
vt 0.375000 0.228577
vt 0.359817 0.228577
vt 0.362500 0.228577
vt 0.158674 0.228577
vt 0.160000 0.228577
vt 0.375000 0.000000
vt 0.379289 0.000000
vt 0.637500 0.000000
vt 0.640184 0.000000
vt 0.841326 0.000000
vt 0.840000 0.000000
vt 0.379289 0.750000
vt 0.375000 0.750000
vt 0.158674 0.000000
vt 0.160000 0.000000
vt 0.362500 0.000000
vt 0.359816 0.000000
vt 0.379288 0.762500
vt 0.375000 0.762500
vt 0.875000 0.025000
vt 0.862500 0.025000
vt 0.862500 0.000000
vt 0.875000 0.000000
vt 0.862500 0.125000
vt 0.875000 0.125000
vt 0.875000 0.225000
vt 0.862500 0.225000
vt 0.862500 0.228577
vt 0.875000 0.228577
vt 0.375000 0.487500
vt 0.379289 0.487500
vt 0.379289 0.500000
vt 0.375000 0.500000
vt 0.125000 0.225000
vt 0.137500 0.225000
vt 0.137500 0.228577
vt 0.125000 0.228577
vt 0.125000 0.125000
vt 0.137500 0.125000
vt 0.125000 0.025000
vt 0.137500 0.025000
vt 0.125000 0.000000
vt 0.137500 0.000000
vt 0.375000 0.250000
vt 0.379289 0.250000
vt 0.379289 0.250711
vt 0.375000 0.250711
vt 0.625000 0.225000
vt 0.625711 0.225000
vt 0.625711 0.228577
vt 0.625000 0.228577
vt 0.625000 0.125000
vt 0.625711 0.125000
vt 0.625000 0.025000
vt 0.625711 0.025000
vt 0.625000 0.000000
vt 0.625711 0.000000
vt 0.375000 0.999289
vt 0.379289 0.999289
vt 0.379289 1.000000
vt 0.375000 1.000000
vt 0.374289 0.025000
vt 0.374289 0.000000
vt 0.374289 0.125000
vt 0.374289 0.225000
vt 0.374289 0.228577
vt 0.137500 0.145000
vt 0.137500 0.143821
vt 0.250000 0.225000
vt 0.750000 0.025000
vt 0.862500 0.122615
vt 0.137500 0.025000
vt 0.140183 0.025000
vt 0.140183 0.025000
vt 0.660000 0.225000
vt 0.658674 0.225000
vt 0.658674 0.025000
vt 0.660000 0.025000
vt 0.375000 0.411000
vt 0.379289 0.411000
vt 0.379289 0.412298
vt 0.375000 0.412298
vt 0.786000 0.228577
vt 0.786000 0.225000
vt 0.787298 0.225000
vt 0.787298 0.228577
vt 0.787298 0.225000
vt 0.787298 0.125000
vt 0.786000 0.125000
vt 0.786000 0.025000
vt 0.787298 0.025000
vt 0.137500 0.193000
vt 0.137500 0.191847
vt 0.787298 0.000000
vt 0.786000 0.000000
vt 0.375000 0.837702
vt 0.379289 0.837702
vt 0.379289 0.839000
vt 0.375000 0.839000
vt 0.212702 0.025000
vt 0.212702 0.000000
vt 0.214000 0.000000
vt 0.214000 0.025000
vt 0.712702 0.025000
vt 0.714000 0.025000
vt 0.212702 0.125000
vt 0.214000 0.125000
vt 0.212702 0.225000
vt 0.214000 0.225000
vt 0.714000 0.225000
vt 0.712703 0.225000
vt 0.214000 0.228577
vt 0.212702 0.228577
vt 0.375000 0.375000
vt 0.379289 0.375000
vt 0.379289 0.408992
vt 0.375000 0.408992
vt 0.750000 0.228577
vt 0.750000 0.225000
vt 0.783992 0.225000
vt 0.783992 0.228577
vt 0.783992 0.125000
vt 0.750000 0.125000
vt 0.783992 0.025000
vt 0.137500 0.194785
vt 0.783992 0.000000
vt 0.750000 0.000000
vt 0.375000 0.841008
vt 0.379289 0.841008
vt 0.379289 0.875000
vt 0.375000 0.875000
vt 0.216008 0.025000
vt 0.216008 0.000000
vt 0.250000 0.000000
vt 0.250000 0.025000
vt 0.716008 0.025000
vt 0.216008 0.125000
vt 0.250000 0.125000
vt 0.216008 0.225000
vt 0.716008 0.225000
vt 0.216008 0.228577
vt 0.250000 0.228577
vt 0.622209 0.250000
vt 0.625000 0.250000
vt 0.625000 0.250711
vt 0.622209 0.250711
vt 0.622209 0.265183
vt 0.622209 0.262500
vt 0.625000 0.262500
vt 0.625000 0.265183
vt 0.622209 0.408992
vt 0.622209 0.375000
vt 0.625000 0.375000
vt 0.625000 0.408992
vt 0.622209 0.412298
vt 0.622209 0.411000
vt 0.625000 0.411000
vt 0.625000 0.412298
vt 0.622209 0.466326
vt 0.622209 0.465000
vt 0.625000 0.465000
vt 0.625000 0.466326
vt 0.622209 0.500000
vt 0.622209 0.487500
vt 0.625000 0.487500
vt 0.625000 0.500000
vt 0.622209 0.525000
vt 0.622209 0.521423
vt 0.625000 0.521423
vt 0.625000 0.525000
vt 0.622209 0.625000
vt 0.625000 0.625000
vt 0.622209 0.725000
vt 0.625000 0.725000
vt 0.622209 0.750000
vt 0.625000 0.750000
vt 0.622209 0.762500
vt 0.625000 0.762500
vt 0.622209 0.785000
vt 0.622209 0.783674
vt 0.625000 0.783674
vt 0.625000 0.785000
vt 0.622209 0.839000
vt 0.622209 0.837702
vt 0.625000 0.837702
vt 0.625000 0.839000
vt 0.622209 0.875000
vt 0.622209 0.841008
vt 0.625000 0.841008
vt 0.625000 0.875000
vt 0.622209 0.987500
vt 0.622209 0.984816
vt 0.625000 0.984816
vt 0.625000 0.987500
vt 0.622209 1.000000
vt 0.622209 0.999289
vt 0.625000 0.999289
vt 0.625000 1.000000
vt 0.622209 0.025000
vt 0.622209 0.000000
vt 0.622209 0.125000
vt 0.622209 0.225000
vt 0.622209 0.228577
vt 0.158674 0.250000
vt 0.158674 0.247409
vt 0.160000 0.247409
vt 0.160000 0.250000
vt 0.125000 0.247409
vt 0.137500 0.247409
vt 0.137500 0.250000
vt 0.125000 0.250000
vt 0.379289 0.502591
vt 0.375000 0.502591
vt 0.622209 0.502591
vt 0.625000 0.502591
vt 0.862500 0.250000
vt 0.862500 0.247409
vt 0.875000 0.247409
vt 0.875000 0.250000
vt 0.840000 0.250000
vt 0.840000 0.247409
vt 0.841326 0.247409
vt 0.841326 0.250000
vt 0.786000 0.250000
vt 0.786000 0.247409
vt 0.787298 0.247409
vt 0.787298 0.250000
vt 0.750000 0.250000
vt 0.750000 0.247409
vt 0.783992 0.247409
vt 0.783992 0.250000
vt 0.637500 0.250000
vt 0.637500 0.247409
vt 0.640184 0.247409
vt 0.640184 0.250000
vt 0.625711 0.250000
vt 0.625711 0.247409
vt 0.625000 0.247409
vt 0.622209 0.247409
vt 0.379289 0.247409
vt 0.375000 0.247409
vt 0.374289 0.250000
vt 0.374289 0.247409
vt 0.362500 0.250000
vt 0.362500 0.247409
vt 0.359817 0.250000
vt 0.359817 0.247409
vt 0.216008 0.250000
vt 0.216008 0.247409
vt 0.250000 0.247409
vt 0.250000 0.250000
vt 0.212702 0.250000
vt 0.212702 0.247409
vt 0.214000 0.247409
vt 0.214000 0.250000
vt 0.160386 0.247409
vt 0.160386 0.228577
vt 0.160386 0.225000
vt 0.660386 0.225000
vt 0.160386 0.125000
vt 0.160386 0.025000
vt 0.660386 0.025000
vt 0.160386 0.000000
vt 0.379289 0.785386
vt 0.375000 0.785386
vt 0.622209 0.785386
vt 0.625000 0.785386
vt 0.839614 0.025000
vt 0.839614 0.000000
vt 0.137500 0.145343
vt 0.839614 0.125000
vt 0.839614 0.225000
vt 0.839614 0.228577
vt 0.839614 0.247409
vt 0.839614 0.250000
vt 0.622209 0.464614
vt 0.625000 0.464614
vt 0.379289 0.464614
vt 0.375000 0.464614
vt 0.160386 0.250000
vt 0.138028 0.247409
vt 0.138028 0.228577
vt 0.138028 0.225000
vt 0.638028 0.225000
vt 0.138028 0.125000
vt 0.138028 0.025000
vt 0.638028 0.025000
vt 0.138028 0.000000
vt 0.375000 0.763028
vt 0.379288 0.763028
vt 0.622209 0.763028
vt 0.625000 0.763028
vt 0.861972 0.000000
vt 0.861972 0.025000
vt 0.137500 0.125469
vt 0.861972 0.125000
vt 0.861972 0.225000
vt 0.861972 0.228577
vt 0.861972 0.247409
vt 0.861972 0.250000
vt 0.622209 0.486972
vt 0.625000 0.486972
vt 0.379289 0.486972
vt 0.375000 0.486972
vt 0.138028 0.250000
vt 0.437500 0.000000
vt 0.437500 0.062500
vt 0.375000 0.062500
vt 0.500000 0.000000
vt 0.500000 0.062500
vt 0.500000 0.125000
vt 0.437500 0.125000
vt 0.562500 0.000000
vt 0.562500 0.062500
vt 0.625000 0.062500
vt 0.562500 0.125000
vt 0.562500 0.187500
vt 0.500000 0.187500
vt 0.625000 0.187500
vt 0.562500 0.250000
vt 0.500000 0.250000
vt 0.437500 0.187500
vt 0.375000 0.187500
vt 0.437500 0.250000
vt 0.437500 0.312500
vt 0.375000 0.312500
vt 0.500000 0.312500
vt 0.500000 0.375000
vt 0.437500 0.375000
vt 0.562500 0.312500
vt 0.625000 0.312500
vt 0.562500 0.375000
vt 0.562500 0.437500
vt 0.500000 0.437500
vt 0.625000 0.437500
vt 0.562500 0.500000
vt 0.500000 0.500000
vt 0.437500 0.437500
vt 0.375000 0.437500
vt 0.437500 0.500000
vt 0.437500 0.562500
vt 0.375000 0.562500
vt 0.500000 0.562500
vt 0.500000 0.625000
vt 0.437500 0.625000
vt 0.562500 0.562500
vt 0.625000 0.562500
vt 0.562500 0.625000
vt 0.562500 0.687500
vt 0.500000 0.687500
vt 0.625000 0.687500
vt 0.562500 0.750000
vt 0.500000 0.750000
vt 0.437500 0.687500
vt 0.375000 0.687500
vt 0.437500 0.750000
vt 0.437500 0.812500
vt 0.375000 0.812500
vt 0.500000 0.812500
vt 0.500000 0.875000
vt 0.437500 0.875000
vt 0.562500 0.812500
vt 0.625000 0.812500
vt 0.562500 0.875000
vt 0.562500 0.937500
vt 0.500000 0.937500
vt 0.625000 0.937500
vt 0.562500 1.000000
vt 0.500000 1.000000
vt 0.437500 0.937500
vt 0.375000 0.937500
vt 0.437500 1.000000
vt 0.687500 0.000000
vt 0.687500 0.062500
vt 0.750000 0.062500
vt 0.687500 0.125000
vt 0.812500 0.000000
vt 0.812500 0.062500
vt 0.875000 0.062500
vt 0.812500 0.125000
vt 0.812500 0.187500
vt 0.750000 0.187500
vt 0.875000 0.187500
vt 0.812500 0.250000
vt 0.687500 0.187500
vt 0.687500 0.250000
vt 0.187500 0.000000
vt 0.187500 0.062500
vt 0.125000 0.062500
vt 0.250000 0.062500
vt 0.187500 0.125000
vt 0.312500 0.000000
vt 0.312500 0.062500
vt 0.312500 0.125000
vt 0.312500 0.187500
vt 0.250000 0.187500
vt 0.312500 0.250000
vt 0.187500 0.187500
vt 0.125000 0.187500
vt 0.187500 0.250000
s 1
usemtl aiWireframe1.026
f 9/1/1 133/2/1 134/3/1 21/4/1
f 67/5/2 119/6/3 295/7/4 296/8/5
f 17/9/6 122/10/6 123/11/6 12/12/6
f 278/13/7 279/14/7 127/15/8 75/16/8
f 286/17/9 287/18/9 70/19/9 71/20/9
f 272/21/10 273/22/10 78/23/10 79/24/10
f 23/25/1 132/26/1 133/2/1 9/1/1
f 71/20/9 72/27/9 285/28/9 286/17/9
f 12/12/6 123/11/6 124/29/6 27/30/6
f 273/22/10 274/31/10 77/32/10 78/23/10
f 39/33/11 116/34/11 384/35/12 385/36/12
f 55/37/9 56/38/9 375/39/9 376/40/9
f 56/38/9 57/41/9 374/42/9 375/39/9
f 367/43/13 368/44/13 130/45/14 45/46/14
f 362/47/10 363/48/10 64/49/10 65/50/10
f 65/50/10 66/51/10 361/52/10 362/47/10
f 219/53/6 220/54/6 122/10/6 17/9/6
f 224/55/9 69/19/9 290/18/9 291/56/9
f 227/57/9 41/37/9 379/40/9 380/58/9
f 21/4/1 134/3/1 231/59/1 232/60/1
f 357/61/10 358/52/10 48/51/10 234/62/10
f 268/63/10 269/21/10 80/24/10 217/64/10
f 1/65/1 131/66/1 132/26/1 23/25/1
f 43/41/9 44/67/9 370/68/9 371/42/9
f 281/69/9 282/28/9 73/27/9 74/70/9
f 27/30/6 124/29/6 125/71/6 7/72/6
f 277/31/10 278/73/10 75/74/10 76/32/10
f 45/75/10 46/49/10 366/48/10 367/76/10
f 7/72/15 125/71/15 126/77/16 29/78/16
f 26/79/9 31/80/9 30/81/9 8/82/9
f 32/83/9 31/80/9 26/79/9 11/84/9
f 18/85/9 33/86/9 32/83/9 11/84/9
f 223/87/9 33/86/9 18/85/9 222/88/9
f 35/89/17 120/90/17 121/91/18 5/92/18
f 17/93/10 36/94/10 218/95/10 219/96/10
f 12/97/10 37/98/10 36/94/10 17/93/10
f 27/99/10 38/100/10 37/98/10 12/97/10
f 7/101/10 29/102/10 38/100/10 27/99/10
f 3/103/19 115/104/19 137/105/19 138/106/19
f 20/107/9 148/108/9 228/109/9 229/110/9
f 10/111/9 147/112/9 148/108/9 20/107/9
f 24/113/9 146/114/9 147/112/9 10/111/9
f 2/115/9 145/116/9 146/114/9 24/113/9
f 142/117/20 143/118/20 131/119/20 1/120/20
f 23/25/10 141/121/10 142/122/10 1/65/10
f 140/123/10 141/121/10 23/25/10 9/1/10
f 21/4/10 139/124/10 140/123/10 9/1/10
f 233/125/10 139/124/10 21/4/10 232/60/10
f 32/83/21 33/86/21 163/86/21 164/83/21
f 290/18/22 69/19/23 162/19/24 289/18/22
f 166/126/25 73/126/25 282/127/26 283/127/26
f 31/128/21 32/94/21 164/94/21 165/128/21
f 41/129/27 42/80/27 170/80/27 171/129/27
f 379/130/28 41/83/28 171/83/28 378/130/28
f 42/98/27 43/100/27 169/131/27 170/98/27
f 43/100/29 371/132/29 372/133/29 169/131/29
f 175/37/21 176/38/21 59/38/21 58/37/21
f 79/134/23 174/134/30 271/135/22 272/135/22
f 176/38/21 177/41/21 62/41/21 59/38/21
f 275/136/31 178/137/32 77/137/32 274/136/26
f 364/48/33 181/49/34 64/49/35 363/48/36
f 181/49/27 182/50/27 65/50/27 64/49/27
f 182/50/27 183/51/27 66/51/27 65/50/27
f 183/51/28 360/52/28 361/52/28 66/51/28
f 81/138/37 118/139/37 355/140/38 356/141/38
f 225/142/9 83/143/9 350/144/9 351/145/9
f 349/146/39 350/144/40 83/143/41 161/143/41
f 346/147/9 347/144/9 84/143/9 85/148/9
f 85/148/9 86/149/9 345/150/9 346/147/9
f 167/151/42 87/151/42 342/152/43 343/152/43
f 341/153/9 342/150/9 87/149/9 88/154/9
f 338/155/44 339/156/44 128/157/45 89/158/45
f 337/159/10 338/160/10 89/161/10 90/162/10
f 334/163/46 335/163/47 179/164/48 91/164/49
f 333/165/10 334/159/10 91/162/10 92/166/10
f 332/167/10 333/165/10 92/166/10 93/168/10
f 93/169/50 173/169/51 331/170/52 332/170/53
f 236/171/10 328/172/10 329/167/10 94/168/10
f 13/173/54 117/174/55 326/175/56 297/176/56
f 226/177/9 19/178/9 321/179/9 322/180/9
f 172/178/57 320/179/58 321/179/58 19/178/57
f 317/181/9 318/179/9 51/178/9 52/182/9
f 52/182/9 53/129/9 316/183/9 317/181/9
f 25/94/59 313/184/59 314/184/59 168/94/59
f 312/185/9 313/183/9 25/129/9 15/186/9
f 309/187/60 310/188/60 129/189/61 16/190/61
f 308/191/10 309/192/10 16/193/10 28/194/10
f 305/195/62 306/195/63 180/129/64 63/129/65
f 304/196/10 305/191/10 63/194/10 60/197/10
f 303/198/10 304/196/10 60/197/10 61/128/10
f 184/178/57 302/199/58 303/199/58 61/178/57
f 299/200/10 300/198/10 22/128/10 235/201/10
f 95/202/19 4/203/19 135/204/19 136/205/19
f 383/206/12 96/207/11 40/208/11 382/209/12
f 325/210/56 97/211/55 14/212/55 324/213/56
f 354/214/38 98/215/37 82/216/37 353/217/38
f 294/218/5 99/219/66 68/220/66 293/221/5
f 101/222/18 100/223/17 34/224/17 6/225/18
f 102/226/6 221/227/6 222/228/6 18/229/6
f 103/230/6 102/226/6 18/229/6 11/231/6
f 104/232/6 103/230/6 11/231/6 26/233/6
f 105/234/6 104/232/6 26/233/6 8/235/6
f 106/236/67 105/234/15 8/235/15 30/237/16
f 107/238/8 280/239/7 281/240/7 74/241/8
f 108/242/68 340/243/44 341/244/44 88/245/45
f 109/246/61 311/247/60 312/248/60 15/249/61
f 110/250/14 369/251/13 370/252/13 44/253/14
f 111/254/20 144/255/20 145/256/20 2/257/20
f 112/258/1 111/259/1 2/115/1 24/113/1
f 113/260/1 112/258/1 24/113/1 10/111/1
f 114/261/1 113/260/1 10/111/1 20/107/1
f 230/262/1 114/261/1 20/107/1 229/110/1
f 115/104/19 95/202/19 136/205/19 137/105/19
f 384/35/12 116/34/11 96/207/11 383/206/12
f 326/175/56 117/174/55 97/211/55 325/210/56
f 355/140/38 118/139/37 98/215/37 354/214/38
f 295/7/4 119/6/3 99/219/66 294/218/5
f 121/91/18 120/90/17 100/223/17 101/222/18
f 122/10/6 220/54/6 221/227/6 102/226/6
f 123/11/6 122/10/6 102/226/6 103/230/6
f 124/29/6 123/11/6 103/230/6 104/232/6
f 125/71/6 124/29/6 104/232/6 105/234/6
f 126/77/16 125/71/15 105/234/15 106/236/67
f 127/15/8 279/14/7 280/239/7 107/238/8
f 128/157/45 339/156/44 340/243/44 108/242/68
f 129/189/61 310/188/60 311/247/60 109/246/61
f 130/45/14 368/44/13 369/251/13 110/250/14
f 131/119/20 143/118/20 144/255/20 111/254/20
f 132/26/1 131/66/1 111/259/1 112/258/1
f 133/2/1 132/26/1 112/258/1 113/260/1
f 134/3/1 133/2/1 113/260/1 114/261/1
f 231/59/1 134/3/1 114/261/1 230/262/1
f 136/205/19 135/204/19 40/208/11 96/207/11
f 137/105/19 136/205/19 96/207/11 116/34/11
f 138/106/19 137/105/19 116/34/11 39/33/11
f 234/62/10 48/51/10 139/124/10 233/125/10
f 140/123/10 139/124/10 48/51/10 47/50/10
f 47/50/10 46/49/10 141/121/10 140/123/10
f 142/122/10 141/121/10 46/49/10 45/75/10
f 45/46/14 130/45/14 143/118/20 142/117/20
f 144/255/20 143/118/20 130/45/14 110/250/14
f 145/256/20 144/255/20 110/250/14 44/253/14
f 146/114/9 145/116/9 44/67/9 43/41/9
f 147/112/9 146/114/9 43/41/9 42/38/9
f 148/108/9 147/112/9 42/38/9 41/37/9
f 228/109/9 148/108/9 41/37/9 227/57/9
f 347/144/39 348/146/40 149/143/41 84/143/41
f 288/18/22 150/19/23 70/19/23 287/18/22
f 152/83/21 151/86/21 50/86/21 49/83/21
f 153/128/21 152/94/21 49/94/21 54/128/21
f 72/126/25 154/126/69 284/127/26 285/127/70
f 86/151/71 155/151/42 344/152/43 345/152/43
f 156/94/59 315/184/59 316/184/59 53/94/59
f 157/100/29 373/132/29 374/132/29 57/100/29
f 158/98/27 157/100/27 57/100/27 56/98/27
f 159/129/27 158/80/27 56/80/27 55/129/27
f 377/130/28 159/83/28 55/83/28 376/130/28
f 318/179/58 319/179/58 160/178/57 51/178/57
f 348/146/40 349/146/39 161/143/41 149/143/41
f 289/18/22 162/19/24 150/19/23 288/18/22
f 164/83/21 163/86/21 151/86/21 152/83/21
f 165/128/21 164/94/21 152/94/21 153/128/21
f 154/126/69 166/126/25 283/127/26 284/127/26
f 155/151/42 167/151/42 343/152/43 344/152/43
f 168/94/59 314/184/59 315/184/59 156/94/59
f 169/131/29 372/133/29 373/132/29 157/100/29
f 170/98/27 169/131/27 157/100/27 158/98/27
f 171/129/27 170/80/27 158/80/27 159/129/27
f 378/130/28 171/83/28 159/83/28 377/130/28
f 160/178/57 319/179/58 320/179/58 172/178/57
f 173/169/51 185/169/41 330/170/39 331/170/52
f 271/135/22 174/134/30 186/134/24 270/135/22
f 187/37/21 188/38/21 176/38/21 175/37/21
f 188/38/21 189/41/21 177/41/21 176/38/21
f 276/136/31 190/137/32 178/137/32 275/136/31
f 179/164/48 335/163/47 336/163/72 191/164/73
f 180/129/64 306/195/63 307/195/74 192/129/75
f 365/48/76 193/49/77 181/49/34 364/48/33
f 193/49/27 194/50/27 182/50/27 181/49/27
f 194/50/27 195/51/27 183/51/27 182/50/27
f 195/51/28 359/52/28 360/52/28 183/51/28
f 196/178/57 301/199/58 302/199/58 184/178/57
f 185/169/41 94/169/41 329/170/39 330/170/39
f 270/135/22 186/134/24 80/134/23 269/135/22
f 36/37/21 37/38/21 188/38/21 187/37/21
f 37/38/21 38/41/21 189/41/21 188/38/21
f 277/136/26 76/137/32 190/137/32 276/136/31
f 191/164/73 336/163/72 337/163/72 90/164/78
f 192/129/75 307/195/74 308/195/79 28/129/80
f 366/48/81 46/49/82 193/49/77 365/48/76
f 46/49/27 47/50/27 194/50/27 193/49/27
f 47/50/27 48/51/27 195/51/27 194/50/27
f 48/51/28 358/52/28 359/52/28 195/51/28
f 22/178/57 300/199/58 301/199/58 196/178/57
f 296/263/10 267/264/10 197/265/10 67/266/10
f 199/267/10 198/268/10 35/269/10 5/270/10
f 5/92/6 121/91/6 200/271/6 199/272/6
f 201/273/6 200/271/6 121/91/6 101/222/6
f 202/274/6 201/273/6 101/222/6 6/225/6
f 34/275/9 203/276/9 202/277/9 6/278/9
f 68/279/9 204/280/9 292/281/9 293/282/9
f 82/283/9 205/284/9 352/285/9 353/286/9
f 14/287/9 206/288/9 323/289/9 324/290/9
f 40/291/9 207/292/9 381/293/9 382/294/9
f 135/295/9 208/296/9 207/292/9 40/291/9
f 209/297/9 208/296/9 135/295/9 4/203/9
f 95/202/83 210/298/83 209/297/83 4/203/83
f 115/104/83 211/299/83 210/298/83 95/202/83
f 212/300/83 211/299/83 115/104/83 3/103/83
f 138/301/10 213/302/10 212/300/10 3/103/10
f 39/303/10 214/304/10 213/302/10 138/301/10
f 385/305/10 386/306/10 214/304/10 39/303/10
f 297/307/10 298/308/10 215/309/10 13/310/10
f 356/311/10 327/312/10 216/313/10 81/314/10
f 267/264/10 268/63/10 217/64/10 197/265/10
f 219/96/10 218/95/10 198/268/10 199/267/10
f 199/272/6 200/271/6 220/54/6 219/53/6
f 221/227/6 220/54/6 200/271/6 201/273/6
f 222/228/6 221/227/6 201/273/6 202/274/6
f 203/276/9 223/87/9 222/88/9 202/277/9
f 204/280/9 224/55/9 291/56/9 292/281/9
f 205/284/9 225/142/9 351/145/9 352/285/9
f 206/288/9 226/177/9 322/180/9 323/289/9
f 207/292/9 227/57/9 380/58/9 381/293/9
f 208/296/9 228/109/9 227/57/9 207/292/9
f 229/110/9 228/109/9 208/296/9 209/297/9
f 210/298/83 230/262/1 229/110/1 209/297/83
f 211/299/83 231/59/1 230/262/1 210/298/83
f 232/60/1 231/59/1 211/299/83 212/300/83
f 213/302/10 233/125/10 232/60/10 212/300/10
f 214/304/10 234/62/10 233/125/10 213/302/10
f 386/306/10 357/61/10 234/62/10 214/304/10
f 298/308/10 299/200/10 235/201/10 215/309/10
f 216/313/10 327/312/10 328/172/10 236/171/10
f 237/315/10 197/265/10 217/64/10 238/316/10
f 239/317/10 238/316/10 217/64/10 80/24/10
f 240/318/84 239/318/84 80/134/23 186/134/24
f 241/318/85 240/318/84 186/134/24 174/134/30
f 242/318/86 241/318/85 174/134/30 79/134/23
f 79/24/10 78/23/10 243/319/10 242/317/10
f 78/23/10 77/32/10 244/320/10 243/319/10
f 77/137/32 178/137/32 245/321/87 244/321/88
f 246/321/89 245/321/87 178/137/32 190/137/32
f 247/321/89 246/321/89 190/137/32 76/137/32
f 76/32/10 75/74/10 248/322/10 247/320/10
f 75/16/8 127/15/8 249/323/90 248/324/90
f 250/325/90 249/323/90 127/15/8 107/238/8
f 251/326/90 250/325/90 107/238/8 74/241/8
f 74/70/9 73/27/9 252/327/9 251/328/9
f 253/329/91 252/329/92 73/126/25 166/126/25
f 254/329/91 253/329/91 166/126/25 154/126/69
f 255/329/92 254/329/91 154/126/69 72/126/25
f 256/330/9 255/327/9 72/27/9 71/20/9
f 71/20/9 70/19/9 257/331/9 256/330/9
f 70/19/23 150/19/23 258/331/84 257/331/84
f 150/19/23 162/19/24 259/331/84 258/331/84
f 162/19/24 69/19/23 260/331/93 259/331/84
f 261/332/9 260/331/9 69/19/9 224/55/9
f 262/333/9 261/332/9 224/55/9 204/280/9
f 263/334/9 262/333/9 204/280/9 68/279/9
f 99/219/66 264/335/94 263/336/94 68/220/66
f 119/6/3 265/337/94 264/335/94 99/219/66
f 266/338/95 265/337/94 119/6/3 67/5/2
f 67/266/10 197/265/10 237/315/10 266/339/10
f 402/340/10 403/341/10 268/63/10 267/264/10
f 403/341/10 404/342/10 269/21/10 268/63/10
f 405/343/96 270/135/22 269/135/22 404/343/96
f 406/343/96 271/135/22 270/135/22 405/343/96
f 272/135/22 271/135/22 406/343/96 407/343/96
f 407/342/10 408/344/10 273/22/10 272/21/10
f 408/344/10 409/345/10 274/31/10 273/22/10
f 410/346/97 275/136/31 274/136/26 409/346/97
f 411/346/97 276/136/31 275/136/31 410/346/97
f 412/346/97 277/136/26 276/136/31 411/346/97
f 412/345/10 413/347/10 278/73/10 277/31/10
f 413/348/98 414/349/98 279/14/7 278/13/7
f 280/239/7 279/14/7 414/349/98 415/350/98
f 281/240/7 280/239/7 415/350/98 416/351/98
f 416/352/9 387/353/9 282/28/9 281/69/9
f 283/127/26 282/127/26 387/354/97 388/354/97
f 284/127/26 283/127/26 388/354/97 389/354/97
f 285/127/70 284/127/26 389/354/97 390/354/97
f 286/17/9 285/28/9 390/353/9 391/355/9
f 391/355/9 392/356/9 287/18/9 286/17/9
f 393/356/96 288/18/22 287/18/22 392/356/96
f 394/356/96 289/18/22 288/18/22 393/356/96
f 395/356/96 290/18/22 289/18/22 394/356/96
f 291/56/9 290/18/9 395/356/9 396/357/9
f 292/281/9 291/56/9 396/357/9 397/358/9
f 293/282/9 292/281/9 397/358/9 398/359/9
f 399/360/99 294/218/5 293/221/5 398/361/99
f 400/362/99 295/7/4 294/218/5 399/360/99
f 296/8/5 295/7/4 400/362/99 401/363/99
f 401/364/10 402/340/10 267/264/10 296/263/10
f 81/314/10 216/313/10 298/308/10 297/307/10
f 216/313/10 236/171/10 299/200/10 298/308/10
f 236/171/10 94/168/10 300/198/10 299/200/10
f 301/199/58 300/199/58 94/169/41 185/169/41
f 302/199/58 301/199/58 185/169/41 173/169/51
f 303/199/58 302/199/58 173/169/51 93/169/50
f 93/168/10 92/166/10 304/196/10 303/198/10
f 92/166/10 91/162/10 305/191/10 304/196/10
f 91/164/49 179/164/48 306/195/63 305/195/62
f 307/195/74 306/195/63 179/164/48 191/164/73
f 308/195/79 307/195/74 191/164/73 90/164/78
f 90/162/10 89/161/10 309/192/10 308/191/10
f 89/158/45 128/157/45 310/188/60 309/187/60
f 311/247/60 310/188/60 128/157/45 108/242/68
f 312/248/60 311/247/60 108/242/68 88/245/45
f 88/154/9 87/149/9 313/183/9 312/185/9
f 314/184/59 313/184/59 87/151/42 167/151/42
f 315/184/59 314/184/59 167/151/42 155/151/42
f 316/184/59 315/184/59 155/151/42 86/151/71
f 317/181/9 316/183/9 86/149/9 85/148/9
f 85/148/9 84/143/9 318/179/9 317/181/9
f 84/143/41 149/143/41 319/179/58 318/179/58
f 320/179/58 319/179/58 149/143/41 161/143/41
f 321/179/58 320/179/58 161/143/41 83/143/41
f 322/180/9 321/179/9 83/143/9 225/142/9
f 323/289/9 322/180/9 225/142/9 205/284/9
f 324/290/9 323/289/9 205/284/9 82/283/9
f 98/215/37 325/210/56 324/213/56 82/216/37
f 118/139/37 326/175/56 325/210/56 98/215/37
f 297/176/56 326/175/56 118/139/37 81/138/37
f 327/312/10 237/315/10 238/316/10 328/172/10
f 329/167/10 328/172/10 238/316/10 239/317/10
f 330/170/39 329/170/39 239/318/84 240/318/84
f 331/170/52 330/170/39 240/318/84 241/318/85
f 332/170/53 331/170/52 241/318/85 242/318/86
f 242/317/10 243/319/10 333/165/10 332/167/10
f 243/319/10 244/320/10 334/159/10 333/165/10
f 244/321/88 245/321/87 335/163/47 334/163/46
f 336/163/72 335/163/47 245/321/87 246/321/89
f 337/163/72 336/163/72 246/321/89 247/321/89
f 247/320/10 248/322/10 338/160/10 337/159/10
f 248/324/90 249/323/90 339/156/44 338/155/44
f 340/243/44 339/156/44 249/323/90 250/325/90
f 341/244/44 340/243/44 250/325/90 251/326/90
f 251/328/9 252/327/9 342/150/9 341/153/9
f 343/152/43 342/152/43 252/329/92 253/329/91
f 344/152/43 343/152/43 253/329/91 254/329/91
f 345/152/43 344/152/43 254/329/91 255/329/92
f 346/147/9 345/150/9 255/327/9 256/330/9
f 256/330/9 257/331/9 347/144/9 346/147/9
f 257/331/84 258/331/84 348/146/40 347/144/39
f 258/331/84 259/331/84 349/146/39 348/146/40
f 259/331/84 260/331/93 350/144/40 349/146/39
f 351/145/9 350/144/9 260/331/9 261/332/9
f 352/285/9 351/145/9 261/332/9 262/333/9
f 353/286/9 352/285/9 262/333/9 263/334/9
f 264/335/94 354/214/38 353/217/38 263/336/94
f 265/337/94 355/140/38 354/214/38 264/335/94
f 356/141/38 355/140/38 265/337/94 266/338/95
f 266/339/10 237/315/10 327/312/10 356/311/10
f 235/201/10 22/128/10 358/52/10 357/61/10
f 359/52/28 358/52/28 22/128/28 196/128/28
f 360/52/28 359/52/28 196/128/28 184/128/28
f 361/52/28 360/52/28 184/128/28 61/128/28
f 362/47/10 361/52/10 61/128/10 60/197/10
f 60/197/10 63/194/10 363/48/10 362/47/10
f 180/194/100 364/48/33 363/48/36 63/194/101
f 192/194/102 365/48/76 364/48/33 180/194/100
f 28/194/103 366/48/81 365/48/76 192/194/102
f 367/76/10 366/48/10 28/194/10 16/193/10
f 16/190/61 129/189/61 368/44/13 367/43/13
f 369/251/13 368/44/13 129/189/61 109/246/61
f 370/252/13 369/251/13 109/246/61 15/249/61
f 371/42/9 370/68/9 15/186/9 25/129/9
f 372/133/29 371/132/29 25/194/29 168/194/29
f 373/132/29 372/133/29 168/194/29 156/194/29
f 374/132/29 373/132/29 156/194/29 53/194/29
f 375/39/9 374/42/9 53/129/9 52/182/9
f 376/40/9 375/39/9 52/182/9 51/178/9
f 160/80/28 377/130/28 376/130/28 51/80/28
f 172/80/28 378/130/28 377/130/28 160/80/28
f 19/80/28 379/130/28 378/130/28 172/80/28
f 380/58/9 379/40/9 19/178/9 226/177/9
f 381/293/9 380/58/9 226/177/9 206/288/9
f 382/294/9 381/293/9 206/288/9 14/287/9
f 97/211/55 383/206/12 382/209/12 14/212/55
f 117/174/55 384/35/12 383/206/12 97/211/55
f 385/36/12 384/35/12 117/174/55 13/173/54
f 13/310/10 215/309/10 386/306/10 385/305/10
f 215/309/10 235/201/10 357/61/10 386/306/10
f 388/354/97 387/354/97 31/98/97 165/98/97
f 389/354/97 388/354/97 165/98/97 153/98/97
f 390/354/97 389/354/97 153/98/97 54/98/97
f 391/355/9 390/353/9 54/80/9 49/83/9
f 49/83/9 50/86/9 392/356/9 391/355/9
f 151/86/96 393/356/96 392/356/96 50/86/96
f 163/86/96 394/356/96 393/356/96 151/86/96
f 33/86/96 395/356/96 394/356/96 163/86/96
f 396/357/9 395/356/9 33/86/9 223/87/9
f 397/358/9 396/357/9 223/87/9 203/276/9
f 398/359/9 397/358/9 203/276/9 34/275/9
f 100/223/17 399/360/99 398/361/99 34/224/17
f 120/90/17 400/362/99 399/360/99 100/223/17
f 401/363/99 400/362/99 120/90/17 35/89/17
f 35/269/10 198/268/10 402/340/10 401/364/10
f 198/268/10 218/95/10 403/341/10 402/340/10
f 218/95/10 36/94/10 404/342/10 403/341/10
f 187/37/96 405/343/96 404/343/96 36/37/96
f 175/37/96 406/343/96 405/343/96 187/37/96
f 407/343/96 406/343/96 175/37/96 58/37/96
f 58/94/10 59/98/10 408/344/10 407/342/10
f 59/98/10 62/100/10 409/345/10 408/344/10
f 177/41/97 410/346/97 409/346/97 62/41/97
f 189/41/97 411/346/97 410/346/97 177/41/97
f 38/41/97 412/346/97 411/346/97 189/41/97
f 38/100/10 29/102/10 413/347/10 412/345/10
f 29/78/16 126/77/16 414/349/98 413/348/98
f 415/350/98 414/349/98 126/77/16 106/236/67
f 416/351/98 415/350/98 106/236/67 30/237/16
f 30/81/9 31/80/9 387/353/9 416/352/9
f 417/65/104 491/365/105 443/366/106 498/367/107
f 491/365/105 431/368/108 467/369/109 443/366/106
f 443/366/106 467/369/109 437/370/110 470/371/111
f 498/367/107 443/366/106 470/371/111 434/1/112
f 431/368/108 492/372/113 444/373/114 467/369/109
f 492/372/113 418/115/115 493/374/116 444/373/114
f 444/373/114 493/374/116 432/111/117 468/375/118
f 467/369/109 444/373/114 468/375/118 437/370/110
f 437/370/110 468/375/118 445/376/119 469/377/120
f 468/375/118 432/111/117 494/378/121 445/376/119
f 445/376/119 494/378/121 420/203/122 495/379/123
f 469/377/120 445/376/119 495/379/123 433/380/124
f 434/1/112 470/371/111 446/381/125 497/382/126
f 470/371/111 437/370/110 469/377/120 446/381/125
f 446/381/125 469/377/120 433/380/124 496/383/127
f 497/382/126 446/381/125 496/383/127 419/103/128
f 419/103/128 496/383/127 447/384/129 504/385/130
f 496/383/127 433/380/124 471/386/131 447/384/129
f 447/384/129 471/386/131 438/387/132 474/388/133
f 504/385/130 447/384/129 474/388/133 425/173/134
f 433/380/124 495/379/123 448/389/135 471/386/131
f 495/379/123 420/203/122 499/390/136 448/389/135
f 448/389/135 499/390/136 435/212/137 472/391/138
f 471/386/131 448/389/135 472/391/138 438/387/132
f 438/387/132 472/391/138 449/392/139 473/393/140
f 472/391/138 435/212/137 500/394/141 449/392/139
f 449/392/139 500/394/141 422/225/142 501/395/143
f 473/393/140 449/392/139 501/395/143 436/396/144
f 425/173/134 474/388/133 450/397/145 503/398/146
f 474/388/133 438/387/132 473/393/140 450/397/145
f 450/397/145 473/393/140 436/396/144 502/399/147
f 503/398/146 450/397/145 502/399/147 421/92/148
f 421/92/148 502/399/147 451/400/149 510/401/150
f 502/399/147 436/396/144 475/402/151 451/400/149
f 451/400/149 475/402/151 439/403/152 478/404/153
f 510/401/150 451/400/149 478/404/153 428/12/154
f 436/396/144 501/395/143 452/405/155 475/402/151
f 501/395/143 422/225/142 505/406/156 452/405/155
f 452/405/155 505/406/156 426/231/157 476/407/158
f 475/402/151 452/405/155 476/407/158 439/403/152
f 439/403/152 476/407/158 453/408/159 477/409/160
f 476/407/158 426/231/157 506/410/161 453/408/159
f 453/408/159 506/410/161 424/235/162 507/411/163
f 477/409/160 453/408/159 507/411/163 427/412/164
f 428/12/154 478/404/153 454/413/165 509/414/166
f 478/404/153 439/403/152 477/409/160 454/413/165
f 454/413/165 477/409/160 427/412/164 508/415/167
f 509/414/166 454/413/165 508/415/167 423/72/168
f 423/72/168 508/415/167 455/416/169 514/417/170
f 508/415/167 427/412/164 479/418/171 455/416/169
f 455/416/169 479/418/171 440/419/172 482/420/173
f 514/417/170 455/416/169 482/420/173 430/190/174
f 427/412/164 507/411/163 456/421/175 479/418/171
f 507/411/163 424/235/162 511/422/176 456/421/175
f 456/421/175 511/422/176 429/249/177 480/423/178
f 479/418/171 456/421/175 480/423/178 440/419/172
f 440/419/172 480/423/178 457/424/179 481/425/180
f 480/423/178 429/249/177 512/426/181 457/424/179
f 457/424/179 512/426/181 418/257/115 492/427/113
f 481/425/180 457/424/179 492/427/113 431/428/108
f 430/190/174 482/420/173 458/429/182 513/430/183
f 482/420/173 440/419/172 481/425/180 458/429/182
f 458/429/182 481/425/180 431/428/108 491/431/105
f 513/430/183 458/429/182 491/431/105 417/120/104
f 418/115/115 512/432/181 459/433/184 493/374/116
f 512/432/181 429/186/177 483/434/185 459/433/184
f 459/433/184 483/434/185 441/182/9 486/435/186
f 493/374/116 459/433/184 486/435/186 432/111/117
f 429/186/177 511/436/176 460/437/187 483/434/185
f 511/436/176 424/82/162 506/438/161 460/437/187
f 460/437/187 506/438/161 426/84/157 484/439/188
f 483/434/185 460/437/187 484/439/188 441/182/9
f 441/182/9 484/439/188 461/440/189 485/441/190
f 484/439/188 426/84/157 505/442/156 461/440/189
f 461/440/189 505/442/156 422/278/142 500/443/141
f 485/441/190 461/440/189 500/443/141 435/287/137
f 432/111/117 486/435/186 462/444/191 494/378/121
f 486/435/186 441/182/9 485/441/190 462/444/191
f 462/444/191 485/441/190 435/287/137 499/445/136
f 494/378/121 462/444/191 499/445/136 420/203/122
f 423/101/168 514/446/170 463/447/192 509/448/166
f 514/446/170 430/193/174 487/449/193 463/447/192
f 463/447/192 487/449/193 442/197/10 490/450/194
f 509/448/166 463/447/192 490/450/194 428/97/154
f 430/193/174 513/451/183 464/452/195 487/449/193
f 513/451/183 417/65/104 498/367/107 464/452/195
f 464/452/195 498/367/107 434/1/112 488/453/196
f 487/449/193 464/452/195 488/453/196 442/197/10
f 442/197/10 488/453/196 465/454/197 489/455/198
f 488/453/196 434/1/112 497/382/126 465/454/197
f 465/454/197 497/382/126 419/103/128 504/456/130
f 489/455/198 465/454/197 504/456/130 425/310/134
f 428/97/154 490/450/194 466/457/199 510/458/150
f 490/450/194 442/197/10 489/455/198 466/457/199
f 466/457/199 489/455/198 425/310/134 503/459/146
f 510/458/150 466/457/199 503/459/146 421/270/148
