# Blender 4.4.1
# www.blender.org
mtllib frame2.mtl
o Body_Plate_1.001
v 0.296777 1.295600 -0.545686
v 0.294385 1.295600 -0.090716
v 0.205324 1.295601 -0.020990
v -0.228359 1.295601 -0.023454
v -0.316682 1.295601 -0.094187
v -0.314290 1.295601 -0.549157
v -0.225228 1.295600 -0.618883
v 0.208454 1.295600 -0.616419
v 0.332965 1.296243 -0.539244
v 0.328179 1.296243 -0.095586
v 0.325960 1.296243 0.016516
v -0.355003 1.296243 0.007143
v -0.352870 1.296243 -0.100629
v -0.348083 1.296243 -0.544287
v -0.345864 1.296243 -0.656390
v 0.335099 1.296243 -0.647016
v 0.332965 1.346846 -0.539244
v 0.328179 1.346846 -0.095586
v 0.325960 1.346846 0.016516
v -0.355003 1.346846 0.007143
v -0.352870 1.346846 -0.100629
v -0.348083 1.346846 -0.544287
v -0.345864 1.346846 -0.656390
v 0.335099 1.346846 -0.647016
v 0.296777 1.340982 -0.545686
v 0.303295 1.347251 -0.548795
v 0.294385 1.340978 -0.090716
v 0.300873 1.347243 -0.087535
v 0.205324 1.341045 -0.020990
v 0.207530 1.347373 -0.014536
v -0.228359 1.341038 -0.023454
v -0.230639 1.347360 -0.017018
v -0.316682 1.340983 -0.094187
v -0.323200 1.347251 -0.091078
v -0.314290 1.340978 -0.549157
v -0.320778 1.347243 -0.552338
v -0.225228 1.341045 -0.618883
v -0.227434 1.347373 -0.625338
v 0.208454 1.341039 -0.616419
v 0.210735 1.347360 -0.622855
v 1.390302 -0.549947 -0.550487
v 1.389287 -0.551120 -0.100549
v 1.351081 -0.471184 -0.031006
v 1.016872 0.279447 -0.026818
v 0.978980 0.359226 -0.096764
v 0.979996 0.357042 -0.546700
v 1.018201 0.276589 -0.615657
v 1.352410 -0.469648 -0.619850
v 1.406407 -0.582406 -0.544355
v 1.404364 -0.581334 -0.105586
v 1.403415 -0.580151 0.005287
v 0.963123 0.394123 0.003445
v 0.964036 0.392190 -0.103134
v 0.966079 0.387844 -0.541883
v 0.967028 0.385834 -0.652744
v 1.407320 -0.583543 -0.650944
v 1.452117 -0.560698 -0.544194
v 1.450075 -0.559626 -0.105426
v 1.449125 -0.558443 0.005447
v 1.008833 0.415832 0.003447
v 1.009746 0.413899 -0.103132
v 1.011789 0.409552 -0.541880
v 1.012738 0.407542 -0.652742
v 1.453030 -0.561836 -0.650784
v 1.431838 -0.530222 -0.550341
v 1.439516 -0.533105 -0.553205
v 1.430819 -0.531397 -0.100403
v 1.438482 -0.534300 -0.097517
v 1.392825 -0.451359 -0.030859
v 1.398985 -0.450627 -0.025170
v 1.058234 0.299091 -0.026816
v 1.062320 0.303381 -0.020720
v 1.020515 0.378952 -0.096762
v 1.023116 0.386739 -0.093921
v 1.021528 0.376766 -0.546698
v 1.024136 0.384526 -0.549605
v 1.059640 0.296269 -0.615655
v 1.063821 0.300545 -0.621628
v 1.394162 -0.449819 -0.619703
v 1.400345 -0.449029 -0.625345
v 0.933753 0.433019 -0.543763
v 0.932974 0.431739 -0.099369
v 0.881356 0.502668 -0.030679
v 0.420709 1.173190 -0.026507
v 0.369422 1.244007 -0.095588
v 0.370795 1.242010 -0.539979
v 0.422504 1.170577 -0.608090
v 0.882374 0.504343 -0.612267
v 0.955294 0.404330 -0.537707
v 0.953110 0.405050 -0.104346
v 0.951972 0.406042 0.005161
v 0.347695 1.275132 0.003388
v 0.348930 1.273403 -0.101877
v 0.351693 1.269488 -0.535220
v 0.352978 1.267689 -0.644716
v 0.956387 0.403377 -0.642983
v 0.996295 0.433986 -0.537546
v 0.994112 0.434706 -0.104185
v 0.992974 0.435697 0.005322
v 0.388697 1.304789 0.003392
v 0.389932 1.303060 -0.101874
v 0.392695 1.299145 -0.535216
v 0.393979 1.297346 -0.644711
v 0.997390 0.433033 -0.642823
v 0.971070 0.460010 -0.543617
v 0.979043 0.458588 -0.546447
v 0.970289 0.458729 -0.099222
v 0.978249 0.457286 -0.096369
v 0.918860 0.529795 -0.030533
v 0.924707 0.531616 -0.024918
v 0.457870 1.200069 -0.026503
v 0.461065 1.204962 -0.020483
v 0.406739 1.270999 -0.095585
v 0.407862 1.279024 -0.092774
v 0.408108 1.268999 -0.539975
v 0.409243 1.277000 -0.542851
v 0.459735 1.197506 -0.608087
v 0.463025 1.202403 -0.613986
v 0.919886 0.531475 -0.612120
v 0.925745 0.533356 -0.617688
v 0.034487 -1.222191 -0.553996
v 0.029574 -1.222944 -0.104304
v 0.124218 -1.213468 -0.033979
v 1.009810 -1.144663 -0.022269
v 1.105448 -1.134781 -0.091360
v 1.106950 -1.132923 -0.541071
v 1.011776 -1.142232 -0.610815
v 0.130648 -1.212483 -0.622500
v -0.004475 -1.226758 -0.548204
v -0.006627 -1.227227 -0.109654
v -0.006084 -1.227236 0.001173
v 1.145827 -1.131746 0.009146
v 1.144497 -1.131476 -0.097394
v 1.143322 -1.129930 -0.535946
v 1.141939 -1.129649 -0.646768
v -0.004996 -1.226749 -0.654750
v 0.000722 -1.277095 -0.548236
v -0.001430 -1.277564 -0.109686
v -0.000888 -1.277573 0.001141
v 1.151026 -1.182083 0.008956
v 1.149696 -1.181812 -0.097584
v 1.148521 -1.180266 -0.536137
v 1.147138 -1.179985 -0.646958
v 0.000200 -1.277086 -0.654782
v 0.039209 -1.267930 -0.554025
v 0.033954 -1.274182 -0.557103
v 0.034296 -1.268676 -0.104333
v 0.028968 -1.274938 -0.101382
v 0.128964 -1.259437 -0.034008
v 0.127669 -1.265503 -0.028354
v 1.014514 -1.190212 -0.022441
v 1.017016 -1.195536 -0.016352
v 1.110173 -1.180528 -0.091533
v 1.116612 -1.185608 -0.088525
v 1.111675 -1.178671 -0.541244
v 1.118133 -1.183719 -0.544253
v 1.016489 -1.187867 -0.610987
v 1.019047 -1.193220 -0.616963
v 0.135395 -1.258461 -0.622529
v 0.134238 -1.264515 -0.628207
v 1.369433 -0.596427 -0.544014
v 1.370082 -0.594817 -0.095420
v 1.337435 -0.667177 -0.025878
v 1.177312 -1.022217 -0.024423
v 1.144465 -1.095075 -0.093371
v 1.143816 -1.096685 -0.541965
v 1.176463 -1.024325 -0.611507
v 1.336586 -0.669284 -0.612962
v 1.426926 -0.586550 -0.537980
v 1.426653 -0.586988 -0.100517
v 1.426211 -0.587926 0.010028
v 1.174768 -1.145449 0.006884
v 1.175193 -1.144547 -0.099391
v 1.175466 -1.144109 -0.536854
v 1.175908 -1.143171 -0.647400
v 1.427351 -0.585648 -0.644255
v 1.383368 -0.567000 -0.537987
v 1.383095 -0.567439 -0.100524
v 1.382653 -0.568376 0.010021
v 1.131211 -1.125899 0.006877
v 1.131635 -1.124997 -0.099398
v 1.131909 -1.124559 -0.536861
v 1.132350 -1.123622 -0.647407
v 1.383793 -0.566099 -0.644262
v 1.408255 -0.613850 -0.544008
v 1.416512 -0.610554 -0.546947
v 1.408898 -0.612238 -0.095414
v 1.417164 -0.608914 -0.092520
v 1.376309 -0.684625 -0.025872
v 1.382984 -0.684993 -0.019534
v 1.216176 -1.039660 -0.024417
v 1.220897 -1.044358 -0.018052
v 1.183276 -1.112494 -0.093365
v 1.186285 -1.120859 -0.090419
v 1.182625 -1.114103 -0.541959
v 1.185619 -1.122489 -0.544855
v 1.215336 -1.041772 -0.611501
v 1.220043 -1.046512 -0.617837
v 1.375458 -0.686731 -0.612956
v 1.382106 -0.687139 -0.619311
v -1.403776 -0.546733 -0.550540
v -1.402760 -0.547906 -0.100601
v -1.364555 -0.467970 -0.031059
v -1.030345 0.282661 -0.026870
v -0.992453 0.362441 -0.096817
v -0.993469 0.360256 -0.546752
v -1.031675 0.279803 -0.615710
v -1.365884 -0.466433 -0.619903
v -1.419881 -0.579192 -0.544407
v -1.417838 -0.578120 -0.105639
v -1.416888 -0.576937 0.005234
v -0.976596 0.397337 0.003392
v -0.977509 0.395404 -0.103187
v -0.979552 0.391058 -0.541935
v -0.980501 0.389047 -0.652797
v -1.420793 -0.580329 -0.650997
v -1.465591 -0.557484 -0.544246
v -1.463548 -0.556412 -0.105478
v -1.462599 -0.555229 0.005395
v -1.022306 0.419046 0.003395
v -1.023219 0.417113 -0.103184
v -1.025262 0.412766 -0.541933
v -1.026212 0.410756 -0.652795
v -1.466504 -0.558621 -0.650836
v -1.445311 -0.527007 -0.550394
v -1.452989 -0.529891 -0.553257
v -1.444292 -0.528182 -0.100455
v -1.451955 -0.531085 -0.097569
v -1.406299 -0.448145 -0.030912
v -1.412459 -0.447412 -0.025222
v -1.071707 0.302305 -0.026868
v -1.075793 0.306595 -0.020773
v -1.033989 0.382167 -0.096815
v -1.036589 0.389953 -0.093973
v -1.035001 0.379980 -0.546751
v -1.037610 0.387740 -0.549658
v -1.073114 0.299483 -0.615708
v -1.077295 0.303759 -0.621681
v -1.407636 -0.446605 -0.619756
v -1.413819 -0.445815 -0.625397
v -0.954115 0.426562 -0.543656
v -0.953359 0.425250 -0.099261
v -0.901439 0.496603 -0.030579
v -0.437965 1.171094 -0.026472
v -0.386371 1.242342 -0.095560
v -0.387731 1.240363 -0.539951
v -0.439744 1.168503 -0.608055
v -0.902427 0.498320 -0.612167
v -0.975780 0.397698 -0.537597
v -0.973611 0.398399 -0.104235
v -0.972473 0.399390 0.005271
v -0.364516 1.273646 0.003413
v -0.365754 1.271913 -0.101852
v -0.368513 1.268003 -0.535195
v -0.369801 1.266200 -0.644690
v -0.976875 0.396745 -0.642873
v -1.016781 0.427356 -0.537436
v -1.014611 0.428056 -0.104075
v -1.013473 0.429048 0.005432
v -0.405517 1.303305 0.003417
v -0.406754 1.301571 -0.101849
v -0.409514 1.297661 -0.535191
v -0.410801 1.295859 -0.644686
v -1.017875 0.426402 -0.642713
v -0.991431 0.453555 -0.543510
v -0.999403 0.452134 -0.546351
v -0.990673 0.452242 -0.099115
v -0.998634 0.450799 -0.096251
v -0.938942 0.523731 -0.030432
v -0.944784 0.525561 -0.024817
v -0.475124 1.197974 -0.026468
v -0.478324 1.202860 -0.020448
v -0.423687 1.269335 -0.095557
v -0.424810 1.277361 -0.092735
v -0.425043 1.267353 -0.539948
v -0.426179 1.275354 -0.542834
v -0.476973 1.195433 -0.608052
v -0.480269 1.200322 -0.613952
v -0.939937 0.525453 -0.612020
v -0.945793 0.527342 -0.617588
v -0.050250 -1.222191 -0.553996
v -0.045337 -1.222944 -0.104304
v -0.139980 -1.213468 -0.033979
v -1.025572 -1.144663 -0.022269
v -1.121211 -1.134781 -0.091360
v -1.122712 -1.132923 -0.541071
v -1.027539 -1.142232 -0.610814
v -0.146410 -1.212483 -0.622500
v -0.011288 -1.226758 -0.548204
v -0.009135 -1.227226 -0.109654
v -0.009678 -1.227235 0.001173
v -1.161589 -1.131746 0.009147
v -1.160259 -1.131476 -0.097393
v -1.159085 -1.129930 -0.535946
v -1.157702 -1.129648 -0.646767
v -0.010766 -1.226749 -0.654750
v -0.016484 -1.277094 -0.548236
v -0.014332 -1.277563 -0.109686
v -0.014875 -1.277573 0.001141
v -1.166788 -1.182082 0.008957
v -1.165458 -1.181812 -0.097584
v -1.164284 -1.180266 -0.536136
v -1.162901 -1.179985 -0.646958
v -0.015963 -1.277086 -0.654782
v -0.054972 -1.267930 -0.554025
v -0.049716 -1.274181 -0.557103
v -0.050058 -1.268676 -0.104333
v -0.044730 -1.274937 -0.101382
v -0.144726 -1.259436 -0.034008
v -0.143431 -1.265503 -0.028354
v -1.030277 -1.190212 -0.022441
v -1.032779 -1.195536 -0.016352
v -1.125935 -1.180528 -0.091533
v -1.132375 -1.185608 -0.088524
v -1.127437 -1.178671 -0.541244
v -1.133896 -1.183718 -0.544252
v -1.032252 -1.187867 -0.610987
v -1.034810 -1.193220 -0.616962
v -0.151157 -1.258461 -0.622529
v -0.150001 -1.264515 -0.628207
v -1.385196 -0.596427 -0.544014
v -1.385844 -0.594817 -0.095420
v -1.353197 -0.667177 -0.025877
v -1.193074 -1.022217 -0.024423
v -1.160227 -1.095075 -0.093370
v -1.159579 -1.096686 -0.541965
v -1.192225 -1.024325 -0.611507
v -1.352348 -0.669285 -0.612961
v -1.442689 -0.586550 -0.537980
v -1.442415 -0.586988 -0.100517
v -1.441973 -0.587926 0.010029
v -1.190530 -1.145449 0.006884
v -1.190955 -1.144548 -0.099391
v -1.191229 -1.144109 -0.536854
v -1.191671 -1.143172 -0.647399
v -1.443114 -0.585649 -0.644255
v -1.399131 -0.567001 -0.537986
v -1.398857 -0.567439 -0.100524
v -1.398415 -0.568376 0.010022
v -1.146973 -1.125899 0.006877
v -1.147398 -1.124998 -0.099398
v -1.147671 -1.124560 -0.536860
v -1.148113 -1.123622 -0.647406
v -1.399555 -0.566099 -0.644262
v -1.424018 -0.613851 -0.544008
v -1.432274 -0.610555 -0.546947
v -1.424660 -0.612238 -0.095414
v -1.432926 -0.608914 -0.092519
v -1.392071 -0.684625 -0.025871
v -1.398746 -0.684993 -0.019534
v -1.231938 -1.039660 -0.024417
v -1.236659 -1.044357 -0.018052
v -1.199038 -1.112494 -0.093364
v -1.202047 -1.120859 -0.090418
v -1.198387 -1.114103 -0.541958
v -1.201382 -1.122489 -0.544854
v -1.231099 -1.041772 -0.611501
v -1.235806 -1.046512 -0.617836
v -1.391220 -0.686731 -0.612955
v -1.397869 -0.687139 -0.619311
vn 0.0131 -0.9999 0.0019
vn 0.0130 -0.9999 -0.0016
vn 0.0152 -0.9999 -0.0009
vn 0.0152 -0.9999 0.0012
vn 0.0007 -0.9999 0.0170
vn 0.0048 -0.9999 0.0090
vn -0.0010 -0.9999 0.0171
vn -0.0051 -1.0000 0.0084
vn -0.0130 -0.9999 0.0016
vn -0.0152 -0.9999 0.0009
vn -0.0132 -0.9999 -0.0019
vn -0.0153 -0.9999 -0.0012
vn -0.0007 -0.9999 -0.0170
vn -0.0048 -0.9999 -0.0091
vn 0.0010 -0.9999 -0.0171
vn 0.0051 -1.0000 -0.0084
vn 0.9999 -0.0000 0.0153
vn 0.9998 -0.0000 0.0198
vn -0.0138 -0.0000 0.9999
vn -0.9999 -0.0000 -0.0153
vn -0.9998 -0.0000 -0.0198
vn 0.0138 -0.0000 -0.9999
vn -0.4352 0.7170 0.5445
vn -0.0962 0.7272 0.6796
vn -0.0963 0.7272 0.6796
vn -0.6939 0.7201 -0.0036
vn -0.4292 0.7168 -0.5495
vn -0.0886 0.7272 -0.6807
vn 0.0963 0.7272 -0.6796
vn 0.0962 0.7272 -0.6796
vn 0.4352 0.7170 -0.5445
vn 0.6939 0.7201 0.0036
vn 0.4292 0.7168 0.5495
vn 0.0886 0.7272 0.6807
vn -1.0000 -0.0000 -0.0053
vn -0.6164 -0.0000 -0.7874
vn 0.0057 -0.0000 -1.0000
vn 0.6251 -0.0000 -0.7805
vn 1.0000 -0.0000 0.0053
vn 0.6164 -0.0000 0.7874
vn -0.0057 -0.0000 1.0000
vn -0.6251 -0.0000 0.7805
vn 0.0119 0.9999 0.0007
vn 0.0116 0.9999 -0.0006
vn 0.0094 1.0000 -0.0012
vn 0.0096 1.0000 0.0014
vn 0.0043 1.0000 0.0069
vn 0.0006 0.9999 0.0166
vn -0.0044 1.0000 0.0063
vn -0.0009 0.9999 0.0168
vn -0.0117 0.9999 0.0005
vn -0.0094 1.0000 0.0012
vn -0.0119 0.9999 -0.0007
vn -0.0096 1.0000 -0.0014
vn -0.0042 1.0000 -0.0070
vn -0.0006 0.9999 -0.0167
vn 0.0044 1.0000 -0.0062
vn 0.0009 0.9999 -0.0168
vn -0.8976 -0.4408 -0.0013
vn -0.8976 -0.4408 -0.0049
vn -0.8967 -0.4426 -0.0042
vn -0.8967 -0.4427 -0.0020
vn -0.9112 -0.4116 0.0146
vn -0.9060 -0.4233 0.0079
vn -0.9117 -0.4105 0.0149
vn -0.9089 -0.4169 0.0088
vn -0.9088 -0.4171 0.0017
vn -0.9097 -0.4152 0.0010
vn -0.9089 -0.4170 -0.0018
vn -0.9097 -0.4153 -0.0012
vn -0.9109 -0.4122 -0.0205
vn -0.9089 -0.4169 -0.0126
vn -0.9105 -0.4130 -0.0208
vn -0.9050 -0.4251 -0.0134
vn 0.4289 -0.9033 0.0088
vn 0.4289 -0.9033 0.0133
vn -0.0022 0.0010 1.0000
vn -0.4289 0.9032 -0.0155
vn -0.4289 0.9031 -0.0201
vn -0.4289 0.9031 -0.0200
vn 0.0022 -0.0009 -1.0000
vn 0.4498 0.6939 0.5623
vn 0.6323 0.3413 0.6955
vn 0.6319 0.3422 0.6954
vn 0.3529 0.9356 0.0033
vn 0.4541 0.6965 -0.5556
vn 0.6376 0.3498 -0.6863
vn 0.6380 0.3488 -0.6866
vn 0.6849 0.2540 -0.6830
vn 0.6856 0.2530 -0.6826
vn 0.8425 -0.0713 -0.5340
vn 0.9482 -0.3177 0.0037
vn 0.8363 -0.0705 0.5438
vn 0.6788 0.2462 0.6918
vn 0.6794 0.2453 0.6916
vn -0.4290 0.9033 0.0014
vn -0.2626 0.5588 -0.7866
vn -0.0007 0.0052 -1.0000
vn 0.2664 -0.5608 -0.7839
vn 0.4290 -0.9033 0.0054
vn 0.2626 -0.5530 0.7907
vn 0.0007 -0.0052 1.0000
vn -0.2664 0.5550 0.7880
vn 0.9087 0.4174 0.0037
vn 0.9086 0.4176 0.0027
vn 0.9079 0.4192 0.0022
vn 0.9081 0.4188 0.0042
vn 0.9089 0.4168 0.0115
vn 0.9115 0.4109 0.0197
vn 0.9055 0.4243 0.0093
vn 0.9112 0.4116 0.0197
vn 0.8985 0.4390 0.0008
vn 0.8998 0.4363 0.0018
vn 0.8983 0.4394 -0.0010
vn 0.8995 0.4370 -0.0017
vn 0.9056 0.4240 -0.0086
vn 0.9104 0.4134 -0.0154
vn 0.9084 0.4181 -0.0049
vn 0.9108 0.4125 -0.0152
vn -0.8021 -0.5972 -0.0013
vn -0.8022 -0.5970 -0.0049
vn -0.8010 -0.5987 -0.0042
vn -0.8009 -0.5988 -0.0020
vn -0.8211 -0.5706 0.0148
vn -0.8137 -0.5813 0.0080
vn -0.8218 -0.5696 0.0151
vn -0.8177 -0.5756 0.0089
vn -0.8176 -0.5758 0.0018
vn -0.8189 -0.5740 0.0011
vn -0.8177 -0.5756 -0.0018
vn -0.8189 -0.5739 -0.0011
vn -0.8206 -0.5712 -0.0206
vn -0.8177 -0.5755 -0.0127
vn -0.8200 -0.5719 -0.0210
vn -0.8124 -0.5829 -0.0134
vn 0.5860 -0.8103 0.0089
vn 0.5860 -0.8102 0.0134
vn -0.0024 0.0005 1.0000
vn -0.5860 0.8102 -0.0156
vn -0.5859 0.8101 -0.0202
vn 0.0023 -0.0005 -1.0000
vn 0.3163 0.7637 0.5627
vn 0.5597 0.4506 0.6955
vn 0.5592 0.4515 0.6953
vn 0.1769 0.9842 0.0032
vn 0.3200 0.7670 -0.5561
vn 0.5634 0.4600 -0.6863
vn 0.5639 0.4590 -0.6866
vn 0.6271 0.3746 -0.6829
vn 0.6280 0.3737 -0.6826
vn 0.8410 0.0842 -0.5344
vn 0.9902 -0.1396 0.0037
vn 0.8348 0.0837 0.5441
vn 0.6227 0.3658 0.6918
vn 0.6234 0.3650 0.6915
vn -0.5861 0.8103 0.0013
vn -0.3593 0.5010 -0.7873
vn -0.0016 0.0050 -1.0000
vn 0.3634 -0.5023 -0.7847
vn 0.5861 -0.8103 0.0055
vn 0.3582 -0.4953 0.7914
vn 0.0016 -0.0050 1.0000
vn -0.3623 0.4966 0.7888
vn 0.8175 0.5759 0.0037
vn 0.8175 0.5760 0.0027
vn 0.8164 0.5774 0.0022
vn 0.8166 0.5772 0.0042
vn 0.8178 0.5754 0.0115
vn 0.8214 0.5700 0.0198
vn 0.8130 0.5822 0.0093
vn 0.8210 0.5706 0.0198
vn 0.8033 0.5955 0.0008
vn 0.8052 0.5930 0.0017
vn 0.8031 0.5959 -0.0011
vn 0.8047 0.5936 -0.0019
vn 0.8131 0.5820 -0.0088
vn 0.8199 0.5723 -0.0157
vn 0.8170 0.5766 -0.0050
vn 0.8205 0.5715 -0.0154
vn -0.1122 0.9937 0.0023
vn -0.1119 0.9937 -0.0013
vn -0.1139 0.9935 -0.0006
vn -0.1140 0.9935 0.0016
vn -0.0824 0.9964 0.0186
vn -0.0950 0.9954 0.0113
vn -0.0814 0.9965 0.0188
vn -0.0882 0.9960 0.0123
vn -0.0881 0.9961 0.0055
vn -0.0861 0.9963 0.0048
vn -0.0879 0.9961 0.0020
vn -0.0861 0.9963 0.0027
vn -0.0828 0.9964 -0.0167
vn -0.0880 0.9961 -0.0084
vn -0.0837 0.9963 -0.0170
vn -0.0965 0.9953 -0.0093
vn -0.9947 -0.1027 -0.0001
vn -0.9947 -0.1027 0.0049
vn -0.0066 -0.0029 1.0000
vn 0.9947 0.1028 -0.0072
vn 0.9946 0.1028 -0.0122
vn 0.0066 0.0029 -1.0000
vn 0.4764 -0.6609 0.5799
vn 0.1001 -0.7125 0.6945
vn 0.1012 -0.7125 0.6943
vn 0.7635 -0.6458 0.0073
vn 0.4873 -0.6605 -0.5712
vn 0.1174 -0.7141 -0.6901
vn 0.1162 -0.7141 -0.6903
vn 0.0191 -0.7258 -0.6876
vn 0.0178 -0.7262 -0.6873
vn -0.3251 -0.7653 -0.5556
vn -0.6176 -0.7865 -0.0053
vn -0.3315 -0.7647 0.5525
vn 0.0028 -0.7238 0.6900
vn 0.0018 -0.7241 0.6897
vn 0.9947 0.1027 0.0110
vn 0.5913 0.0616 -0.8041
vn 0.0129 0.0035 -0.9999
vn -0.5808 -0.0569 -0.8121
vn -0.9947 -0.1027 -0.0037
vn -0.5858 -0.0636 0.8079
vn -0.0129 -0.0035 0.9999
vn 0.5753 0.0589 0.8159
vn 0.0881 -0.9961 -0.0002
vn 0.0886 -0.9961 -0.0012
vn 0.0900 -0.9959 -0.0016
vn 0.0896 -0.9960 0.0004
vn 0.0878 -0.9961 0.0073
vn 0.0815 -0.9965 0.0159
vn 0.0957 -0.9954 0.0052
vn 0.0822 -0.9965 0.0159
vn 0.1103 -0.9939 -0.0028
vn 0.1077 -0.9942 -0.0019
vn 0.1106 -0.9939 -0.0047
vn 0.1082 -0.9941 -0.0054
vn 0.0956 -0.9953 -0.0121
vn 0.0843 -0.9962 -0.0194
vn 0.0892 -0.9960 -0.0084
vn 0.0835 -0.9963 -0.0191
vn 0.4095 0.9123 0.0053
vn 0.4094 0.9123 0.0094
vn -0.0022 -0.0046 1.0000
vn -0.4095 -0.9123 -0.0053
vn -0.4095 -0.9123 -0.0094
vn 0.0022 0.0046 -1.0000
vn -0.9049 0.4257 0.0008
vn -0.9049 0.4256 -0.0012
vn -0.9059 0.4235 -0.0019
vn -0.9058 0.4237 0.0015
vn -0.9095 0.4156 0.0088
vn -0.9111 0.4120 0.0160
vn -0.9136 0.4065 0.0083
vn -0.9119 0.4102 0.0161
vn -0.9180 0.3965 0.0009
vn -0.9171 0.3986 0.0015
vn -0.9180 0.3965 -0.0012
vn -0.9172 0.3985 -0.0019
vn -0.9136 0.4066 -0.0091
vn -0.9119 0.4101 -0.0163
vn -0.9094 0.4158 -0.0086
vn -0.9110 0.4120 -0.0164
vn 0.3719 -0.9282 0.0028
vn 0.4668 -0.7093 0.5282
vn 0.6242 -0.3894 0.6773
vn 0.6241 -0.3896 0.6773
vn 0.4652 -0.7129 -0.5247
vn 0.6222 -0.3943 -0.6763
vn 0.6223 -0.3941 -0.6764
vn 0.7051 -0.2101 -0.6773
vn 0.7052 -0.2099 -0.6772
vn 0.8403 0.1204 -0.5287
vn 0.9414 0.3374 -0.0026
vn 0.8416 0.1241 0.5256
vn 0.7070 -0.2054 0.6768
vn 0.7071 -0.2051 0.6767
vn -0.4095 -0.9123 0.0039
vn -0.2697 -0.6012 -0.7522
vn -0.0014 -0.0035 -1.0000
vn 0.2676 0.5959 -0.7572
vn 0.4095 0.9123 -0.0039
vn 0.2697 0.6012 0.7522
vn 0.0014 0.0035 1.0000
vn -0.2676 -0.5959 0.7572
vn 0.9156 -0.4020 0.0014
vn 0.9156 -0.4021 -0.0010
vn 0.9166 -0.3998 -0.0004
vn 0.9166 -0.3997 0.0007
vn 0.9118 -0.4103 0.0160
vn 0.9133 -0.4071 0.0071
vn 0.9111 -0.4118 0.0161
vn 0.9097 -0.4152 0.0064
vn 0.9075 -0.4201 0.0014
vn 0.9064 -0.4224 0.0007
vn 0.9074 -0.4202 -0.0011
vn 0.9065 -0.4222 -0.0005
vn 0.9111 -0.4118 -0.0157
vn 0.9098 -0.4151 -0.0068
vn 0.9118 -0.4103 -0.0158
vn 0.9134 -0.4071 -0.0061
vn -0.8992 0.4375 0.0001
vn -0.8993 0.4374 0.0061
vn -0.8982 0.4395 0.0054
vn -0.8982 0.4395 0.0008
vn -0.9071 0.4207 -0.0093
vn -0.8987 0.4386 0.0010
vn -0.9099 0.4148 -0.0108
vn -0.9057 0.4238 -0.0022
vn -0.9073 0.4206 -0.0030
vn -0.9082 0.4185 -0.0022
vn -0.9074 0.4203 0.0031
vn -0.9083 0.4184 0.0023
vn -0.9092 0.4160 0.0141
vn -0.9059 0.4234 0.0017
vn -0.9069 0.4211 0.0158
vn -0.8987 0.4385 0.0050
vn 0.4289 0.9033 -0.0088
vn 0.4289 0.9033 -0.0133
vn -0.0022 -0.0010 -1.0000
vn -0.4289 -0.9032 0.0155
vn -0.4289 -0.9031 0.0201
vn 0.0022 0.0009 1.0000
vn 0.4289 0.9032 -0.0133
vn 0.4498 -0.6939 -0.5623
vn 0.4620 -0.6775 -0.5723
vn 0.4569 -0.6844 -0.5681
vn 0.3530 -0.9356 -0.0033
vn 0.4541 -0.6965 0.5556
vn 0.4611 -0.6873 0.5613
vn 0.4666 -0.6800 0.5656
vn 0.8364 0.0511 0.5457
vn 0.8390 0.0594 0.5410
vn 0.8425 0.0713 0.5340
vn 0.9482 0.3177 -0.0037
vn 0.8363 0.0705 -0.5438
vn 0.8300 0.0509 -0.5555
vn 0.8321 0.0574 -0.5516
vn -0.4290 -0.9033 -0.0014
vn -0.2626 -0.5588 0.7866
vn -0.0007 -0.0052 1.0000
vn 0.2664 0.5608 0.7839
vn 0.4290 0.9033 -0.0054
vn 0.2626 0.5530 -0.7907
vn 0.0007 0.0052 -1.0000
vn -0.2664 -0.5550 -0.7880
vn 0.9080 -0.4188 -0.0042
vn 0.9081 -0.4189 -0.0023
vn 0.9074 -0.4202 -0.0019
vn 0.9073 -0.4204 -0.0047
vn 0.9064 -0.4223 -0.0037
vn 0.9099 -0.4145 -0.0146
vn 0.9012 -0.4334 -0.0018
vn 0.9083 -0.4181 -0.0144
vn 0.8997 -0.4365 -0.0017
vn 0.9011 -0.4336 -0.0027
vn 0.8995 -0.4370 0.0017
vn 0.9008 -0.4343 0.0026
vn 0.9007 -0.4345 0.0019
vn 0.9074 -0.4201 0.0112
vn 0.9064 -0.4224 -0.0031
vn 0.9095 -0.4155 0.0096
vn -0.8044 0.5941 -0.0000
vn -0.8045 0.5939 0.0062
vn -0.8031 0.5959 0.0053
vn -0.8030 0.5959 0.0008
vn -0.8154 0.5789 -0.0096
vn -0.8037 0.5951 0.0010
vn -0.8191 0.5736 -0.0111
vn -0.8133 0.5818 -0.0023
vn -0.8155 0.5788 -0.0031
vn -0.8168 0.5770 -0.0023
vn -0.8155 0.5787 0.0031
vn -0.8169 0.5768 0.0023
vn -0.8183 0.5747 0.0142
vn -0.8136 0.5814 0.0016
vn -0.8150 0.5793 0.0160
vn -0.8037 0.5950 0.0050
vn 0.5860 0.8102 -0.0088
vn 0.5860 0.8102 -0.0134
vn -0.0024 -0.0005 -1.0000
vn -0.5860 -0.8101 0.0156
vn -0.5860 -0.8101 0.0202
vn 0.0024 0.0005 1.0000
vn 0.3172 -0.7624 -0.5640
vn 0.3321 -0.7485 -0.5739
vn 0.3259 -0.7544 -0.5698
vn 0.1769 -0.9842 -0.0032
vn 0.3209 -0.7657 0.5574
vn 0.3295 -0.7579 0.5630
vn 0.3362 -0.7518 0.5673
vn 0.8305 -0.1040 0.5472
vn 0.8345 -0.0964 0.5425
vn 0.8402 -0.0854 0.5356
vn 0.9902 0.1396 -0.0036
vn 0.8339 -0.0850 -0.5453
vn 0.8242 -0.1031 -0.5569
vn 0.8274 -0.0972 -0.5531
vn -0.5861 -0.8102 -0.0014
vn -0.3580 -0.4991 0.7891
vn -0.0015 -0.0049 1.0000
vn 0.3621 0.5004 0.7864
vn 0.5861 0.8102 -0.0054
vn 0.3569 0.4934 -0.7932
vn 0.0016 0.0049 -1.0000
vn -0.3610 -0.4947 -0.7905
vn 0.8165 -0.5773 -0.0042
vn 0.8165 -0.5773 -0.0022
vn 0.8155 -0.5787 -0.0017
vn 0.8157 -0.5785 -0.0046
vn 0.8143 -0.5804 -0.0036
vn 0.8192 -0.5733 -0.0147
vn 0.8071 -0.5904 -0.0018
vn 0.8169 -0.5765 -0.0145
vn 0.8051 -0.5931 -0.0017
vn 0.8070 -0.5905 -0.0027
vn 0.8048 -0.5936 0.0019
vn 0.8064 -0.5914 0.0026
vn 0.8064 -0.5913 0.0020
vn 0.8157 -0.5784 0.0114
vn 0.8143 -0.5805 -0.0031
vn 0.8186 -0.5742 0.0099
vn -0.1088 -0.9941 -0.0036
vn -0.1087 -0.9941 0.0025
vn -0.1107 -0.9939 0.0018
vn -0.1109 -0.9938 -0.0028
vn -0.0913 -0.9957 -0.0134
vn -0.1100 -0.9939 -0.0025
vn -0.0854 -0.9962 -0.0150
vn -0.0948 -0.9955 -0.0060
vn -0.0916 -0.9958 -0.0068
vn -0.0894 -0.9960 -0.0060
vn -0.0913 -0.9958 -0.0007
vn -0.0892 -0.9960 -0.0015
vn -0.0866 -0.9962 0.0106
vn -0.0944 -0.9955 -0.0022
vn -0.0914 -0.9957 0.0123
vn -0.1097 -0.9940 0.0013
vn -0.9947 0.1027 0.0001
vn -0.9947 0.1027 -0.0049
vn -0.0066 0.0029 -1.0000
vn 0.9947 -0.1028 0.0072
vn 0.9946 -0.1028 0.0122
vn 0.0066 -0.0029 1.0000
vn 0.4764 0.6609 -0.5799
vn 0.4567 0.6667 -0.5890
vn 0.4651 0.6643 -0.5852
vn 0.7635 0.6458 -0.0073
vn 0.4873 0.6605 0.5712
vn 0.4763 0.6639 0.5765
vn 0.4676 0.6665 0.5806
vn -0.3043 0.7659 0.5664
vn -0.3130 0.7657 0.5619
vn -0.3251 0.7653 0.5556
vn -0.6176 0.7865 0.0053
vn -0.3315 0.7647 -0.5525
vn -0.3113 0.7652 -0.5636
vn -0.3183 0.7651 -0.5598
vn 0.9947 -0.1027 -0.0110
vn 0.5913 -0.0616 0.8041
vn 0.0129 -0.0035 0.9999
vn -0.5808 0.0569 0.8121
vn -0.9947 0.1027 0.0037
vn -0.5858 0.0636 -0.8079
vn -0.0129 0.0035 -0.9999
vn 0.5753 -0.0589 -0.8159
vn 0.0898 0.9960 -0.0004
vn 0.0897 0.9960 0.0016
vn 0.0911 0.9958 0.0019
vn 0.0913 0.9958 -0.0009
vn 0.0932 0.9956 0.0001
vn 0.0851 0.9963 -0.0111
vn 0.1046 0.9945 0.0017
vn 0.0885 0.9960 -0.0110
vn 0.1075 0.9942 0.0019
vn 0.1047 0.9945 0.0009
vn 0.1081 0.9941 0.0055
vn 0.1056 0.9944 0.0063
vn 0.1057 0.9944 0.0056
vn 0.0907 0.9958 0.0153
vn 0.0933 0.9956 0.0007
vn 0.0863 0.9962 0.0139
vn 0.4095 -0.9123 -0.0053
vn 0.4095 -0.9123 -0.0094
vn -0.0022 0.0046 -1.0000
vn -0.4095 0.9123 0.0053
vn -0.4095 0.9123 0.0094
vn -0.4094 0.9123 0.0094
vn 0.0022 -0.0046 1.0000
vn 0.4094 -0.9123 -0.0094
vn -0.9064 -0.4224 -0.0020
vn -0.9064 -0.4223 0.0022
vn -0.9075 -0.4200 0.0030
vn -0.9074 -0.4202 -0.0027
vn -0.9084 -0.4182 -0.0037
vn -0.9102 -0.4140 -0.0120
vn -0.9147 -0.4042 -0.0035
vn -0.9127 -0.4084 -0.0124
vn -0.9166 -0.3999 -0.0020
vn -0.9155 -0.4023 -0.0027
vn -0.9166 -0.3997 0.0023
vn -0.9156 -0.4020 0.0030
vn -0.9147 -0.4040 0.0040
vn -0.9128 -0.4082 0.0124
vn -0.9084 -0.4180 0.0038
vn -0.9103 -0.4138 0.0127
vn 0.3719 0.9283 -0.0028
vn 0.4668 0.7093 -0.5282
vn 0.5026 0.6560 -0.5631
vn 0.5025 0.6561 -0.5630
vn 0.4652 0.7129 0.5247
vn 0.5008 0.6600 0.5600
vn 0.5009 0.6600 0.5600
vn 0.8240 -0.0578 0.5636
vn 0.8242 -0.0586 0.5633
vn 0.8402 -0.1204 0.5287
vn 0.9413 -0.3374 0.0026
vn 0.8416 -0.1241 -0.5256
vn 0.8254 -0.0617 -0.5611
vn 0.8257 -0.0626 -0.5606
vn -0.4095 0.9123 -0.0039
vn -0.2697 0.6012 0.7522
vn -0.0014 0.0035 1.0000
vn 0.2676 -0.5959 0.7572
vn 0.4095 -0.9123 0.0039
vn 0.2697 -0.6012 -0.7522
vn 0.0014 -0.0035 -1.0000
vn -0.2676 0.5959 -0.7572
vn 0.9148 0.4039 -0.0019
vn 0.9147 0.4042 0.0016
vn 0.9158 0.4017 0.0010
vn 0.9158 0.4017 -0.0013
vn 0.9124 0.4090 -0.0123
vn 0.9140 0.4056 -0.0029
vn 0.9106 0.4130 -0.0127
vn 0.9092 0.4164 -0.0028
vn 0.9084 0.4180 -0.0019
vn 0.9073 0.4205 -0.0013
vn 0.9083 0.4183 0.0016
vn 0.9072 0.4206 0.0009
vn 0.9106 0.4132 0.0120
vn 0.9091 0.4166 0.0026
vn 0.9124 0.4092 0.0123
vn 0.9140 0.4058 0.0025
vt 0.125000 0.750001
vt 0.000000 0.750000
vt 0.000000 0.500000
vt 0.125000 0.500000
vt 0.250000 0.750001
vt 0.250000 0.500000
vt 0.375000 0.750001
vt 0.375000 0.500000
vt 0.500000 0.750001
vt 0.500000 0.500000
vt 0.625000 0.750001
vt 0.625000 0.500000
vt 0.750000 0.750000
vt 0.750000 0.500000
vt 0.875000 0.750000
vt 0.875000 0.500000
vt 1.000000 0.750001
vt 1.000000 0.500000
vt 0.000000 0.250000
vt 0.125000 0.250000
vt 0.250000 0.250000
vt 0.375000 0.250000
vt 0.500000 0.250000
vt 0.625000 0.250000
vt 0.750000 0.250000
vt 0.875000 0.250000
vt 1.000000 0.250000
vt 1.000000 0.968655
vt 1.000000 0.998887
vt 0.875000 0.994534
vt 0.875000 0.968924
vt 0.000000 0.997149
vt 0.000000 0.968655
vt 0.125000 0.968635
vt 0.125000 0.998824
vt 0.125000 0.992078
vt 0.250000 0.968956
vt 0.250000 0.999456
vt 0.250000 0.998162
vt 0.375000 0.968922
vt 0.375000 0.999383
vt 0.375000 0.994533
vt 0.500000 0.968655
vt 0.500000 0.998887
vt 0.500000 0.997149
vt 0.625000 0.968635
vt 0.625000 0.998824
vt 0.625000 0.992078
vt 0.750000 0.968956
vt 0.750000 0.999456
vt 0.750000 0.998162
vt 0.875000 0.999385
vt 0.000000 0.044471
vt 0.129602 0.048620
vt 0.255448 0.043740
vt 0.370770 0.049995
vt 0.495066 0.044461
vt 0.629603 0.048621
vt 0.755448 0.043740
vt 0.870770 0.049995
vt 0.995066 0.044461
vt 0.125000 0.750000
vt 0.250000 0.750000
vt 0.375000 0.750000
vt 0.500000 0.750001
vt 0.625000 0.750000
vt 0.750000 0.750000
vt 0.875000 0.750000
vt 1.000000 0.750000
vt 0.000000 0.250000
vt 0.125000 0.250000
vt 0.375000 0.250000
vt 0.500000 0.250000
vt 0.625000 0.250000
vt 0.750000 0.250000
vt 0.875000 0.250000
vt 1.000000 0.971541
vt 1.000000 0.998980
vt 0.875000 1.000000
vt 0.875000 0.972697
vt 0.000000 0.997375
vt 0.000000 0.971541
vt 0.125000 0.971525
vt 0.125000 0.998924
vt 0.125000 0.992715
vt 0.250000 0.972654
vt 0.250000 1.000000
vt 0.375000 0.970617
vt 0.375000 0.997019
vt 0.375000 0.992697
vt 0.500000 0.971541
vt 0.500000 0.998982
vt 0.500000 0.997375
vt 0.625000 0.971524
vt 0.625000 0.998924
vt 0.625000 0.992714
vt 0.750000 0.971029
vt 0.750000 0.998097
vt 0.750000 0.997854
vt 0.000000 0.040406
vt 0.129237 0.044149
vt 0.252530 0.038477
vt 0.372287 0.049995
vt 0.495461 0.040361
vt 0.629238 0.044150
vt 0.752609 0.039649
vt 0.872544 0.045186
vt 0.995460 0.040361
vt 0.125000 0.750000
vt 0.250000 0.750000
vt 0.375000 0.750000
vt 0.500000 0.750000
vt 0.625000 0.750001
vt 0.750000 0.750000
vt 0.875000 0.750000
vt 1.000000 0.750001
vt 0.000000 0.249999
vt 0.125000 0.249999
vt 0.250000 0.249999
vt 0.375000 0.250000
vt 0.500000 0.250000
vt 0.625000 0.250000
vt 0.875000 0.250000
vt 1.000000 0.971903
vt 1.000000 0.998990
vt 0.875000 0.973058
vt 0.000000 0.997389
vt 0.000000 0.971903
vt 0.125000 0.971889
vt 0.125000 0.998939
vt 0.125000 0.992730
vt 0.250000 0.973015
vt 0.375000 0.970972
vt 0.375000 0.997024
vt 0.375000 0.992706
vt 0.500000 0.971898
vt 0.500000 0.998978
vt 0.500000 0.997360
vt 0.625000 0.971876
vt 0.625000 0.998912
vt 0.625000 0.992707
vt 0.750000 0.971384
vt 0.750000 0.998085
vt 0.750000 0.997847
vt 0.000000 0.040292
vt 0.129237 0.044021
vt 0.252528 0.038440
vt 0.372286 0.049994
vt 0.495461 0.040255
vt 0.629241 0.044044
vt 0.752610 0.039653
vt 0.872545 0.045151
vt 0.995461 0.040246
vt 0.125000 0.750000
vt 0.250000 0.750000
vt 0.375000 0.750001
vt 0.500000 0.750000
vt 0.625000 0.750000
vt 0.750000 0.750000
vt 0.875000 0.750000
vt 1.000000 0.750000
vt 0.000000 0.250000
vt 0.375000 0.250000
vt 0.500000 0.250000
vt 0.875000 0.250000
vt 1.000000 0.971537
vt 1.000000 0.992770
vt 0.875000 0.972695
vt 0.000000 0.997252
vt 0.000000 0.971537
vt 0.125000 0.971504
vt 0.125000 0.998879
vt 0.125000 0.992701
vt 0.250000 0.972652
vt 0.375000 0.970625
vt 0.375000 0.997024
vt 0.375000 0.993201
vt 0.500000 0.971583
vt 0.500000 0.999053
vt 0.500000 0.997405
vt 0.625000 0.971583
vt 0.625000 0.999031
vt 0.625000 0.999018
vt 0.750000 0.971041
vt 0.750000 0.994173
vt 0.750000 0.997863
vt 0.000000 0.037374
vt 0.129320 0.040904
vt 0.252572 0.038506
vt 0.372255 0.049995
vt 0.495391 0.037246
vt 0.629313 0.040795
vt 0.752651 0.039649
vt 0.872514 0.045194
vt 0.995379 0.037302
vt 0.125000 0.500000
vt 0.000000 0.250000
vt 0.250000 0.500000
vt 0.375000 0.500000
vt 0.375000 0.250000
vt 0.625000 0.500000
vt 0.750000 0.500000
vt 0.000000 0.000000
vt 0.125000 0.000000
vt 0.250000 0.000000
vt 0.375000 0.000000
vt 0.500000 0.000000
vt 0.625000 0.000000
vt 0.750000 0.000000
vt 0.875000 0.000000
vt 1.000000 0.000000
vt 0.000000 0.782698
vt 0.000000 0.751119
vt 0.129501 0.696741
vt 0.125000 0.782732
vt 0.995159 0.701222
vt 1.000000 0.782698
vt 0.875000 0.782419
vt 0.870848 0.700066
vt 0.255325 0.706301
vt 0.250000 0.782409
vt 0.370843 0.700005
vt 0.375000 0.782459
vt 0.495150 0.701135
vt 0.500000 0.782760
vt 0.629507 0.696680
vt 0.625000 0.782772
vt 0.755327 0.706305
vt 0.750000 0.782408
vt 0.125000 1.000000
vt 0.000000 1.000000
vt 0.375000 1.000000
vt 0.500000 1.000000
vt 0.625000 1.000000
vt 0.750000 1.000000
vt 1.000000 1.000000
vt 0.000000 0.701255
vt 0.250000 0.750000
vt 0.625000 0.750000
vt 0.750000 0.750001
vt 0.875000 0.750000
vt 0.000000 0.250000
vt 0.250000 0.250000
vt 0.375000 0.250000
vt 0.500000 0.249999
vt 0.625000 0.250000
vt 0.750000 0.249999
vt 0.875000 0.250000
vt 1.000000 0.971541
vt 1.000000 0.998980
vt 0.000000 0.971541
vt 0.125000 0.971525
vt 0.125000 0.992716
vt 0.250000 0.972655
vt 0.375000 0.997020
vt 0.375000 0.992698
vt 0.500000 0.971542
vt 0.500000 0.997375
vt 0.750000 0.971030
vt 0.750000 0.997849
vt 0.000000 0.040405
vt 0.129237 0.044149
vt 0.252530 0.038478
vt 0.372287 0.049996
vt 0.495461 0.040362
vt 0.752609 0.039649
vt 0.872544 0.045186
vt 0.995460 0.040361
vt 0.250000 0.750001
vt 0.500000 0.750001
vt 0.625000 0.750001
vt 0.750000 0.750000
vt 0.875000 0.750000
vt 1.000000 0.750000
vt 0.000000 0.250000
vt 0.125000 0.249999
vt 0.250000 0.250000
vt 0.500000 0.250000
vt 1.000000 0.971902
vt 1.000000 0.998990
vt 0.875000 0.973055
vt 0.000000 0.997383
vt 0.000000 0.971902
vt 0.125000 0.971889
vt 0.125000 0.998940
vt 0.125000 0.992731
vt 0.250000 0.973014
vt 0.375000 0.970970
vt 0.375000 0.997024
vt 0.375000 0.992744
vt 0.500000 0.971898
vt 0.500000 0.998982
vt 0.500000 0.997359
vt 0.625000 0.971878
vt 0.625000 0.998916
vt 0.625000 0.992709
vt 0.750000 0.971382
vt 0.750000 0.998083
vt 0.750000 0.997845
vt 0.000000 0.040052
vt 0.129243 0.043763
vt 0.252532 0.038442
vt 0.372283 0.049995
vt 0.495455 0.040012
vt 0.629246 0.043784
vt 0.752614 0.039654
vt 0.872543 0.045152
vt 0.995454 0.040004
vt 0.375000 0.750000
vt 0.625000 0.750000
vt 0.875000 0.750000
vt 1.000000 0.750000
vt 0.000000 0.250000
vt 1.000000 0.971537
vt 1.000000 0.992769
vt 0.875000 0.972694
vt 0.000000 0.997252
vt 0.000000 0.971537
vt 0.125000 0.971504
vt 0.125000 0.998878
vt 0.125000 0.992700
vt 0.250000 0.972651
vt 0.500000 0.971582
vt 0.625000 0.971582
vt 0.625000 0.999018
vt 0.750000 0.971041
vt 0.750000 0.994172
vt 0.129320 0.040904
vt 0.495391 0.037246
vt 0.629313 0.040795
vt 0.250000 0.500000
vt 0.000000 0.782698
vt 0.000000 0.751119
vt 0.125000 0.782732
vt 1.000000 0.782698
vt 0.875000 0.782419
vt 0.250000 0.782409
vt 0.375000 0.782460
vt 0.500000 0.782760
vt 0.625000 0.782772
vt 0.750000 0.782408
vt 0.125000 1.000000
vt 0.000000 1.000000
vt 0.500000 0.999999
vt 0.625000 1.000000
vt 0.875000 1.000000
s 1
usemtl aiWireframe1.009
f 2/1/1 1/2/2 9/3/3 10/4/4
f 3/5/5 2/1/1 10/4/4 11/6/6
f 4/7/7 3/5/5 11/6/6 12/8/8
f 5/9/9 4/7/7 12/8/8 13/10/10
f 6/11/11 5/9/9 13/10/10 14/12/12
f 7/13/13 6/11/11 14/12/12 15/14/14
f 8/15/15 7/13/13 15/14/14 16/16/16
f 1/17/2 8/15/15 16/16/16 9/18/3
f 10/4/17 9/3/17 17/19/17 18/20/17
f 11/6/18 10/4/17 18/20/17 19/21/18
f 12/8/19 11/6/19 19/21/19 20/22/19
f 13/10/20 12/8/21 20/22/21 21/23/20
f 14/12/20 13/10/20 21/23/20 22/24/20
f 15/14/21 14/12/20 22/24/20 23/25/21
f 16/16/22 15/14/22 23/25/22 24/26/22
f 9/18/17 16/16/18 24/26/18 17/27/17
f 25/28/23 26/29/23 40/30/24 39/31/25
f 26/32/26 25/33/26 27/34/26 28/35/26
f 28/36/27 27/34/27 29/37/28 30/38/28
f 30/39/28 29/37/28 31/40/29 32/41/30
f 32/42/30 31/40/29 33/43/31 34/44/31
f 34/45/32 33/43/32 35/46/32 36/47/32
f 36/48/33 35/46/33 37/49/34 38/50/34
f 38/51/34 37/49/34 39/31/25 40/52/24
f 27/34/35 25/33/35 1/2/35 2/1/35
f 29/37/36 27/34/36 2/1/36 3/5/36
f 31/40/37 29/37/37 3/5/37 4/7/37
f 33/43/38 31/40/38 4/7/38 5/9/38
f 35/46/39 33/43/39 5/9/39 6/11/39
f 37/49/40 35/46/40 6/11/40 7/13/40
f 39/31/41 37/49/41 7/13/41 8/15/41
f 25/28/42 39/31/42 8/15/42 1/17/42
f 18/20/43 17/19/44 26/53/45 28/54/46
f 19/21/47 18/20/43 28/54/46 30/55/48
f 20/22/49 19/21/47 30/55/48 32/56/50
f 21/23/51 20/22/49 32/56/50 34/57/52
f 22/24/53 21/23/51 34/57/52 36/58/54
f 23/25/55 22/24/53 36/58/54 38/59/56
f 24/26/57 23/25/55 38/59/56 40/60/58
f 17/27/44 24/26/57 40/60/58 26/61/45
f 42/62/59 41/2/60 49/3/61 50/4/62
f 43/63/63 42/62/59 50/4/62 51/6/64
f 44/64/65 43/63/63 51/6/64 52/8/66
f 45/65/67 44/64/65 52/8/66 53/10/68
f 46/66/69 45/65/67 53/10/68 54/12/70
f 47/67/71 46/66/69 54/12/70 55/14/72
f 48/68/73 47/67/71 55/14/72 56/16/74
f 41/69/60 48/68/73 56/16/74 49/18/61
f 50/4/75 49/3/75 57/70/75 58/71/75
f 51/6/76 50/4/75 58/71/75 59/21/76
f 52/8/77 51/6/77 59/21/77 60/72/77
f 53/10/78 52/8/79 60/72/79 61/73/78
f 54/12/78 53/10/78 61/73/78 62/74/78
f 55/14/80 54/12/78 62/74/78 63/75/80
f 56/16/81 55/14/81 63/75/81 64/76/81
f 49/18/75 56/16/76 64/76/76 57/27/75
f 65/77/82 66/78/82 80/79/83 79/80/84
f 66/81/85 65/82/85 67/83/85 68/84/85
f 68/85/86 67/83/86 69/86/87 70/87/88
f 70/87/88 69/86/87 71/88/89 72/89/90
f 72/90/90 71/88/89 73/91/91 74/92/91
f 74/93/92 73/91/92 75/94/92 76/95/92
f 76/96/93 75/94/93 77/97/94 78/98/95
f 78/99/95 77/97/94 79/80/84 80/79/83
f 67/83/96 65/82/96 41/2/96 42/62/96
f 69/86/97 67/83/97 42/62/97 43/63/97
f 71/88/98 69/86/98 43/63/98 44/64/98
f 73/91/99 71/88/99 44/64/99 45/65/99
f 75/94/100 73/91/100 45/65/100 46/66/100
f 77/97/101 75/94/101 46/66/101 47/67/101
f 79/80/102 77/97/102 47/67/102 48/68/102
f 65/77/103 79/80/103 48/68/103 41/69/103
f 58/71/104 57/70/105 66/100/106 68/101/107
f 59/21/108 58/71/104 68/101/107 70/102/109
f 60/72/110 59/21/108 70/102/109 72/103/111
f 61/73/112 60/72/110 72/103/111 74/104/113
f 62/74/114 61/73/112 74/104/113 76/105/115
f 63/75/116 62/74/114 76/105/115 78/106/117
f 64/76/118 63/75/116 78/106/117 80/107/119
f 57/27/105 64/76/118 80/107/119 66/108/106
f 82/109/120 81/2/121 89/3/122 90/4/123
f 83/110/124 82/109/120 90/4/123 91/6/125
f 84/111/126 83/110/124 91/6/125 92/8/127
f 85/112/128 84/111/126 92/8/127 93/10/129
f 86/113/130 85/112/128 93/10/129 94/12/131
f 87/114/132 86/113/130 94/12/131 95/14/133
f 88/115/134 87/114/132 95/14/133 96/16/135
f 81/116/121 88/115/134 96/16/135 89/18/122
f 90/4/136 89/3/136 97/117/136 98/118/136
f 91/6/137 90/4/136 98/118/136 99/119/137
f 92/8/138 91/6/138 99/119/138 100/120/138
f 93/10/139 92/8/140 100/120/140 101/121/139
f 94/12/139 93/10/139 101/121/139 102/122/139
f 95/14/140 94/12/139 102/122/139 103/25/140
f 96/16/141 95/14/141 103/25/141 104/123/141
f 89/18/136 96/16/137 104/123/137 97/27/136
f 105/124/142 106/125/142 120/79/143 119/126/144
f 106/127/145 105/128/145 107/129/145 108/130/145
f 108/131/146 107/129/146 109/132/147 110/87/148
f 110/87/148 109/132/147 111/133/149 112/134/150
f 112/135/150 111/133/149 113/136/151 114/137/151
f 114/138/152 113/136/152 115/139/152 116/140/152
f 116/141/153 115/139/153 117/142/154 118/143/155
f 118/144/155 117/142/154 119/126/144 120/79/143
f 107/129/156 105/128/156 81/2/156 82/109/156
f 109/132/157 107/129/157 82/109/157 83/110/157
f 111/133/158 109/132/158 83/110/158 84/111/158
f 113/136/159 111/133/159 84/111/159 85/112/159
f 115/139/160 113/136/160 85/112/160 86/113/160
f 117/142/161 115/139/161 86/113/161 87/114/161
f 119/126/162 117/142/162 87/114/162 88/115/162
f 105/124/163 119/126/163 88/115/163 81/116/163
f 98/118/164 97/117/165 106/145/166 108/146/167
f 99/119/168 98/118/164 108/146/167 110/147/169
f 100/120/170 99/119/168 110/147/169 112/148/171
f 101/121/172 100/120/170 112/148/171 114/149/173
f 102/122/174 101/121/172 114/149/173 116/150/175
f 103/25/176 102/122/174 116/150/175 118/151/177
f 104/123/178 103/25/176 118/151/177 120/152/179
f 97/27/165 104/123/178 120/152/179 106/153/166
f 122/154/180 121/2/181 129/3/182 130/4/183
f 123/155/184 122/154/180 130/4/183 131/6/185
f 124/156/186 123/155/184 131/6/185 132/8/187
f 125/157/188 124/156/186 132/8/187 133/10/189
f 126/158/190 125/157/188 133/10/189 134/12/191
f 127/159/192 126/158/190 134/12/191 135/14/193
f 128/160/194 127/159/192 135/14/193 136/16/195
f 121/161/181 128/160/194 136/16/195 129/18/182
f 130/4/196 129/3/196 137/162/196 138/71/196
f 131/6/197 130/4/196 138/71/196 139/21/197
f 132/8/198 131/6/198 139/21/198 140/163/198
f 133/10/199 132/8/200 140/163/200 141/164/199
f 134/12/199 133/10/199 141/164/199 142/24/199
f 135/14/200 134/12/199 142/24/199 143/25/200
f 136/16/201 135/14/201 143/25/201 144/165/201
f 129/18/196 136/16/197 144/165/197 137/27/196
f 145/166/202 146/167/202 160/79/203 159/168/204
f 146/169/205 145/170/205 147/171/205 148/172/205
f 148/173/206 147/171/206 149/174/207 150/87/208
f 150/87/208 149/174/207 151/175/209 152/176/210
f 152/177/210 151/175/209 153/178/211 154/179/211
f 154/180/212 153/178/212 155/181/212 156/182/212
f 156/183/213 155/181/213 157/184/214 158/185/215
f 158/186/215 157/184/214 159/168/204 160/79/203
f 147/171/216 145/170/216 121/2/216 122/154/216
f 149/174/217 147/171/217 122/154/217 123/155/217
f 151/175/218 149/174/218 123/155/218 124/156/218
f 153/178/219 151/175/219 124/156/219 125/157/219
f 155/181/220 153/178/220 125/157/220 126/158/220
f 157/184/221 155/181/221 126/158/221 127/159/221
f 159/168/222 157/184/222 127/159/222 128/160/222
f 145/166/223 159/168/223 128/160/223 121/161/223
f 138/71/224 137/162/225 146/187/226 148/188/227
f 139/21/228 138/71/224 148/188/227 150/189/229
f 140/163/230 139/21/228 150/189/229 152/190/231
f 141/164/232 140/163/230 152/190/231 154/191/233
f 142/24/234 141/164/232 154/191/233 156/192/235
f 143/25/236 142/24/234 156/192/235 158/193/237
f 144/165/238 143/25/236 158/193/237 160/194/239
f 137/27/225 144/165/238 160/194/239 146/195/226
f 170/196/240 169/3/240 177/197/240 178/71/240
f 171/198/241 170/196/240 178/71/240 179/21/241
f 172/199/242 171/198/242 179/21/242 180/200/242
f 173/10/243 172/199/244 180/200/244 181/23/243
f 174/201/243 173/10/243 181/23/243 182/24/243
f 175/202/244 174/201/243 182/24/243 183/25/244
f 176/16/245 175/202/245 183/25/245 184/26/245
f 169/18/240 176/16/241 184/26/241 177/27/240
f 178/71/246 177/197/247 161/203/248 162/204/249
f 179/21/250 178/71/246 162/204/249 163/205/251
f 180/200/252 179/21/250 163/205/251 164/206/253
f 181/23/254 180/200/252 164/206/253 165/207/255
f 182/24/256 181/23/254 165/207/255 166/208/257
f 183/25/258 182/24/256 166/208/257 167/209/259
f 184/26/260 183/25/258 167/209/259 168/210/261
f 177/27/247 184/26/260 168/210/261 161/211/248
f 185/212/262 186/213/262 188/214/262 187/215/262
f 186/216/263 185/217/263 199/218/264 200/219/265
f 187/215/266 188/214/266 190/220/267 189/221/268
f 189/221/268 190/220/267 192/222/269 191/223/270
f 191/223/270 192/222/269 194/224/271 193/225/271
f 193/225/272 194/224/272 196/226/272 195/227/272
f 195/227/273 196/226/273 198/228/274 197/229/275
f 197/229/275 198/228/274 200/219/265 199/218/264
f 162/230/276 161/231/276 185/212/276 187/215/276
f 163/87/277 162/230/277 187/215/277 189/221/277
f 164/232/278 163/87/278 189/221/278 191/223/278
f 165/233/279 164/232/279 191/223/279 193/225/279
f 166/234/280 165/233/280 193/225/280 195/227/280
f 167/235/281 166/234/281 195/227/281 197/229/281
f 168/79/282 167/235/282 197/229/282 199/218/282
f 161/236/283 168/79/283 199/218/283 185/217/283
f 188/214/284 186/237/285 169/3/286 170/196/287
f 190/220/288 188/214/284 170/196/287 171/198/289
f 192/222/290 190/220/288 171/198/289 172/199/291
f 194/224/292 192/222/290 172/199/291 173/10/293
f 196/226/294 194/224/292 173/10/293 174/201/295
f 198/228/296 196/226/294 174/201/295 175/202/297
f 200/219/298 198/228/296 175/202/297 176/16/299
f 186/216/285 200/219/298 176/16/299 169/18/286
f 202/62/300 201/2/301 209/3/302 210/4/303
f 203/238/304 202/62/300 210/4/303 211/6/305
f 204/111/306 203/238/304 211/6/305 212/8/307
f 205/112/308 204/111/306 212/8/307 213/10/309
f 206/239/310 205/112/308 213/10/309 214/12/311
f 207/240/312 206/239/310 214/12/311 215/14/313
f 208/241/314 207/240/312 215/14/313 216/16/315
f 201/69/301 208/241/314 216/16/315 209/18/302
f 210/4/316 209/3/316 217/242/316 218/71/316
f 211/6/317 210/4/316 218/71/316 219/243/317
f 212/8/318 211/6/318 219/243/318 220/244/318
f 213/10/319 212/8/320 220/244/320 221/245/319
f 214/12/319 213/10/319 221/245/319 222/246/319
f 215/14/320 214/12/319 222/246/319 223/247/320
f 216/16/321 215/14/321 223/247/321 224/248/321
f 209/18/316 216/16/322 224/248/322 217/27/316
f 225/249/323 226/250/323 240/79/324 239/80/325
f 226/81/326 225/251/326 227/252/326 228/84/326
f 228/253/327 227/252/327 229/254/328 230/87/329
f 230/87/329 229/254/328 231/88/330 232/255/331
f 232/256/331 231/88/330 233/257/332 234/92/332
f 234/258/333 233/257/333 235/94/333 236/95/333
f 236/96/334 235/94/334 237/259/335 238/98/336
f 238/260/336 237/259/335 239/80/325 240/79/324
f 227/252/337 225/251/337 201/2/337 202/62/337
f 229/254/338 227/252/338 202/62/338 203/238/338
f 231/88/339 229/254/339 203/238/339 204/111/339
f 233/257/340 231/88/340 204/111/340 205/112/340
f 235/94/341 233/257/341 205/112/341 206/239/341
f 237/259/342 235/94/342 206/239/342 207/240/342
f 239/80/343 237/259/343 207/240/343 208/241/343
f 225/249/344 239/80/344 208/241/344 201/69/344
f 218/71/345 217/242/346 226/261/347 228/262/348
f 219/243/349 218/71/345 228/262/348 230/263/350
f 220/244/351 219/243/349 230/263/350 232/264/352
f 221/245/353 220/244/351 232/264/352 234/265/354
f 222/246/355 221/245/353 234/265/354 236/105/356
f 223/247/357 222/246/355 236/105/356 238/266/358
f 224/248/359 223/247/357 238/266/358 240/267/360
f 217/27/346 224/248/359 240/267/360 226/268/347
f 242/154/361 241/2/362 249/3/363 250/4/364
f 243/269/365 242/154/361 250/4/364 251/6/366
f 244/111/367 243/269/365 251/6/366 252/8/368
f 245/270/369 244/111/367 252/8/368 253/10/370
f 246/271/371 245/270/369 253/10/370 254/12/372
f 247/272/373 246/271/371 254/12/372 255/14/374
f 248/273/375 247/272/373 255/14/374 256/16/376
f 241/274/362 248/273/375 256/16/376 249/18/363
f 250/4/377 249/3/377 257/275/377 258/276/377
f 251/6/378 250/4/377 258/276/377 259/277/378
f 252/8/379 251/6/379 259/277/379 260/200/379
f 253/10/380 252/8/381 260/200/381 261/278/380
f 254/12/380 253/10/380 261/278/380 262/24/380
f 255/14/381 254/12/380 262/24/380 263/25/381
f 256/16/382 255/14/382 263/25/382 264/26/382
f 249/18/377 256/16/378 264/26/378 257/27/377
f 265/279/383 266/280/383 280/79/384 279/281/385
f 266/282/386 265/283/386 267/284/386 268/285/386
f 268/286/387 267/284/387 269/287/388 270/87/389
f 270/87/389 269/287/388 271/288/390 272/289/391
f 272/290/391 271/288/390 273/291/392 274/292/392
f 274/293/393 273/291/393 275/294/393 276/295/393
f 276/296/394 275/294/394 277/297/395 278/298/396
f 278/299/396 277/297/395 279/281/385 280/79/384
f 267/284/397 265/283/397 241/2/397 242/154/397
f 269/287/398 267/284/398 242/154/398 243/269/398
f 271/288/399 269/287/399 243/269/399 244/111/399
f 273/291/400 271/288/400 244/111/400 245/270/400
f 275/294/401 273/291/401 245/270/401 246/271/401
f 277/297/402 275/294/402 246/271/402 247/272/402
f 279/281/403 277/297/403 247/272/403 248/273/403
f 265/279/404 279/281/404 248/273/404 241/274/404
f 258/276/405 257/275/406 266/300/407 268/301/408
f 259/277/409 258/276/405 268/301/408 270/302/410
f 260/200/411 259/277/409 270/302/410 272/303/412
f 261/278/413 260/200/411 272/303/412 274/304/414
f 262/24/415 261/278/413 274/304/414 276/305/416
f 263/25/417 262/24/415 276/305/416 278/306/418
f 264/26/419 263/25/417 278/306/418 280/307/420
f 257/27/406 264/26/419 280/307/420 266/308/407
f 282/154/421 281/2/422 289/3/423 290/4/424
f 283/63/425 282/154/421 290/4/424 291/6/426
f 284/309/427 283/63/425 291/6/426 292/8/428
f 285/112/429 284/309/427 292/8/428 293/10/430
f 286/310/431 285/112/429 293/10/430 294/12/432
f 287/159/433 286/310/431 294/12/432 295/14/434
f 288/311/435 287/159/433 295/14/434 296/16/436
f 281/312/422 288/311/435 296/16/436 289/18/423
f 290/4/437 289/3/437 297/313/437 298/71/437
f 291/6/438 290/4/437 298/71/437 299/21/438
f 292/8/439 291/6/439 299/21/439 300/200/439
f 293/10/440 292/8/441 300/200/441 301/164/440
f 294/12/440 293/10/440 301/164/440 302/122/440
f 295/14/441 294/12/440 302/122/440 303/25/441
f 296/16/442 295/14/442 303/25/442 304/26/442
f 289/18/437 296/16/438 304/26/438 297/27/437
f 305/314/443 306/315/443 320/79/444 319/316/445
f 306/317/446 305/318/446 307/319/446 308/320/446
f 308/321/447 307/319/447 309/322/448 310/87/449
f 310/87/449 309/322/448 311/175/450 312/176/451
f 312/177/451 311/175/450 313/323/452 314/179/452
f 314/180/453 313/323/453 315/324/453 316/182/453
f 316/325/454 315/324/454 317/326/455 318/327/456
f 318/186/456 317/326/455 319/316/445 320/79/444
f 307/319/457 305/318/457 281/2/457 282/154/457
f 309/322/458 307/319/458 282/154/458 283/63/458
f 311/175/459 309/322/459 283/63/459 284/309/459
f 313/323/460 311/175/460 284/309/460 285/112/460
f 315/324/461 313/323/461 285/112/461 286/310/461
f 317/326/462 315/324/462 286/310/462 287/159/462
f 319/316/463 317/326/463 287/159/463 288/311/463
f 305/314/464 319/316/464 288/311/464 281/312/464
f 298/71/465 297/313/466 306/187/467 308/328/468
f 299/21/469 298/71/465 308/328/468 310/189/470
f 300/200/471 299/21/469 310/189/470 312/190/472
f 301/164/473 300/200/471 312/190/472 314/329/474
f 302/122/475 301/164/473 314/329/474 316/330/476
f 303/25/477 302/122/475 316/330/476 318/193/478
f 304/26/479 303/25/477 318/193/478 320/194/480
f 297/27/466 304/26/479 320/194/480 306/195/467
f 330/196/481 329/3/481 337/197/481 338/71/481
f 331/331/482 330/196/481 338/71/481 339/21/482
f 332/199/483 331/331/483 339/21/483 340/200/483
f 333/10/484 332/199/485 340/200/485 341/23/484
f 334/201/484 333/10/484 341/23/484 342/24/484
f 335/202/486 334/201/484 342/24/484 343/25/486
f 336/16/487 335/202/487 343/25/487 344/26/487
f 329/18/481 336/16/488 344/26/488 337/27/481
f 338/71/489 337/197/490 321/203/491 322/204/492
f 339/21/493 338/71/489 322/204/492 323/205/494
f 340/200/495 339/21/493 323/205/494 324/206/496
f 341/23/497 340/200/495 324/206/496 325/207/498
f 342/24/499 341/23/497 325/207/498 326/208/500
f 343/25/501 342/24/499 326/208/500 327/209/502
f 344/26/503 343/25/501 327/209/502 328/210/504
f 337/27/490 344/26/503 328/210/504 321/211/491
f 345/332/505 346/333/505 348/214/505 347/334/505
f 346/216/506 345/335/506 359/336/507 360/219/508
f 347/334/509 348/214/509 350/220/510 349/337/511
f 349/337/511 350/220/510 352/222/512 351/338/513
f 351/338/513 352/222/512 354/224/514 353/339/514
f 353/339/515 354/224/515 356/226/515 355/340/515
f 355/340/516 356/226/516 358/228/517 357/341/518
f 357/341/518 358/228/517 360/219/508 359/336/507
f 322/342/519 321/343/519 345/332/519 347/334/519
f 323/87/520 322/342/520 347/334/520 349/337/520
f 324/232/521 323/87/521 349/337/521 351/338/521
f 325/344/522 324/232/522 351/338/522 353/339/522
f 326/345/523 325/344/523 353/339/523 355/340/523
f 327/235/524 326/345/524 355/340/524 357/341/524
f 328/346/525 327/235/525 357/341/525 359/336/525
f 321/236/526 328/346/526 359/336/526 345/335/526
f 348/214/527 346/237/528 329/3/529 330/196/530
f 350/220/531 348/214/527 330/196/530 331/331/532
f 352/222/533 350/220/531 331/331/532 332/199/534
f 354/224/535 352/222/533 332/199/534 333/10/536
f 356/226/537 354/224/535 333/10/536 334/201/538
f 358/228/539 356/226/537 334/201/538 335/202/540
f 360/219/541 358/228/539 335/202/540 336/16/542
f 346/216/528 360/219/541 336/16/542 329/18/529
